<svg width="483" height="558" viewBox="0 0 483 558" fill="none" xmlns="http://www.w3.org/2000/svg">
<path d="M330.278 293.749C332.228 291.259 331.398 287.379 328.428 285.079C327.158 284.099 325.868 283.059 324.548 281.949C324.028 281.509 323.518 281.069 323.018 280.629C320.108 278.089 315.938 278.149 313.928 280.719C283.268 319.909 252.448 358.959 221.468 397.889C196.138 429.719 170.698 461.469 145.138 493.129C143.148 495.589 143.938 499.499 146.898 501.809C148.838 503.329 150.778 504.839 152.718 506.359C155.628 508.639 159.538 508.519 161.488 506.089C186.388 475.179 211.198 444.189 235.928 413.129C267.528 373.449 298.978 333.659 330.278 293.749Z" fill="#AB7650"/>
<path d="M345.708 275.429C340.838 281.759 335.968 288.089 331.088 294.419C328.418 293.079 324.948 291.049 321.298 288.059C317.838 285.229 315.278 282.419 313.468 280.169C318.618 273.959 323.758 267.749 328.908 261.549C334.518 266.169 340.118 270.799 345.708 275.429Z" fill="#909395"/>
<path d="M344.668 277.039C343.018 279.139 341.368 281.229 339.728 283.329C337.318 282.219 334.068 280.459 330.648 277.729C326.758 274.639 324.108 271.469 322.448 269.179C324.168 267.099 325.898 265.019 327.618 262.939C333.298 267.639 338.988 272.339 344.668 277.039Z" fill="#525254"/>
<path d="M302.638 234.379C313.158 244.639 325.318 255.619 339.178 266.809C353.558 278.429 367.348 288.309 380.008 296.659" fill="#909395"/>
<path d="M302.638 234.379C313.158 244.639 325.318 255.619 339.178 266.809C353.558 278.429 367.348 288.309 380.008 296.659" stroke="#808183" stroke-width="10" stroke-miterlimit="10" stroke-linecap="round"/>
<path d="M344.498 260.659C358.418 244.789 372.398 228.619 386.408 212.159C395.818 201.099 405.078 190.109 414.198 179.169" fill="#909395"/>
<path d="M338.958 255.799C351.958 242.089 381.888 210.859 394.228 197.389L412.468 177.719C413.318 176.789 414.758 176.729 415.678 177.579C416.538 178.379 416.628 179.699 415.938 180.609L399.638 201.949C388.778 216.399 361.518 250.799 350.048 265.519C347.528 268.729 342.888 269.289 339.668 266.779C336.218 264.109 335.878 258.899 338.958 255.799Z" fill="#96979A"/>
<path d="M380.588 291.649C393.478 277.369 406.418 262.819 419.388 247.979C428.098 238.019 436.668 228.099 445.108 218.229" fill="#909395"/>
<path d="M375.118 286.699C395.048 266.599 424.178 237.029 443.408 216.739C445.368 214.739 448.548 217.429 446.828 219.699C429.878 241.839 403.738 274.579 386.078 296.589C383.528 299.779 378.878 300.299 375.688 297.749C372.218 295.029 371.958 289.759 375.118 286.699Z" fill="#96979A"/>
<path d="M305.628 232.509C319.118 217.859 332.658 202.929 346.228 187.709C355.348 177.489 364.318 167.319 373.158 157.199" fill="#909395"/>
<path d="M300.198 227.509C312.798 214.909 341.808 186.219 353.778 173.809C353.798 173.789 371.458 155.709 371.478 155.689C373.458 153.699 376.618 156.429 374.868 158.679C357.048 181.369 329.598 214.929 311.058 237.499C308.468 240.659 303.818 241.119 300.658 238.539C297.238 235.789 297.028 230.539 300.198 227.509Z" fill="#96979A"/>
</svg>
