<svg width="483" height="558" viewBox="0 0 483 558" fill="none" xmlns="http://www.w3.org/2000/svg">
<path d="M288.39 373.12C289.55 379.09 298.69 424.47 320.05 443.59C322.81 446.06 328.26 450.94 336.9 453.29C349.69 456.77 360.59 452.28 363.45 450.99C376.32 445.2 382.24 434.16 384.9 429.03C387.02 424.94 388.53 420.81 393.58 384.35C395.58 369.91 396.17 364.99 399.45 357.8C402.46 351.2 406.49 342.38 415.98 337.44C424.25 333.13 438.47 330.83 448.45 339.54C456.87 346.89 458.35 358.68 456.47 366.43C455.57 370.14 453.33 375.26 449.93 379.77C447.53 382.95 445.42 384.67 442.54 389.37C442.19 389.94 440.46 392.78 438.85 396.6C435.52 404.52 434.91 411.39 434.43 414.99C433.18 424.35 430.15 431 425.49 441.54C421.73 450.07 417.93 458.68 409.66 467.58C407.05 470.39 398.96 478.64 385.66 484.69C371.46 491.14 359.03 491.58 354.51 491.58C342.28 491.6 333.22 488.55 327.96 486.73C322.46 484.83 313.96 481.8 304.98 474.73C296.9 468.36 292.46 461.88 287.62 454.82C283.73 449.14 279.11 441.39 275.06 431.57C279.5 412.09 283.94 392.6 288.39 373.12Z" fill="#D5D0C6"/>
<path d="M305.32 422.34C299.04 423.63 292.75 424.92 286.47 426.21C286.63 435.02 286.78 443.83 286.94 452.64C289.41 457.52 293.53 464.19 300.22 470.59C306.3 476.41 311.97 479.6 315.14 481.35C318.02 482.94 325.69 486.94 336.53 489.35C341.79 490.52 353.25 492.95 367.9 490.3C372.18 489.52 383.75 487.04 396.05 478.98C404.2 473.64 409.3 468.06 411.02 466.09C416.41 459.95 419.37 454.44 421.58 450.26C424.16 445.38 427.25 438.51 429.58 429.83C423.74 443.08 416.45 452.31 411.2 458C406.62 462.96 400.73 469.25 391.03 474.6C386.47 477.11 375.02 483.24 358.99 483.28C341.73 483.32 329.74 476.27 322.99 472.3C312.66 466.23 307.94 460.29 305.25 455.58C303.68 452.83 299.65 445.77 302.44 441.92C304.67 438.84 310.76 438.51 311.5 438.47C313.16 438.38 314.53 438.56 315.46 438.73C313.64 436.7 311.59 434.12 309.63 430.94C307.69 427.8 306.31 424.85 305.32 422.34Z" fill="#ADA59D"/>
<path d="M406.34 411.92C403.82 410.37 402.64 408.2 401.74 406.56C400.98 405.16 398.2 400.06 399.83 393.79C400.12 392.68 402 385.46 408.89 383.07C409.46 382.87 414.92 381.08 420.12 384.22C424.37 386.78 425.68 390.96 426.25 392.77C427.68 397.33 426.75 401.16 426.51 402.09C426.14 403.47 424.56 409.39 418.72 412.18C418.3 412.38 411.86 415.32 406.34 411.92Z" fill="#555C5F"/>
<path d="M409.02 428.13C413.01 428.58 415.17 432.72 415.66 433.75C417.18 436.96 417.43 441.65 414.77 444.86C412.93 447.07 410.46 447.68 407.88 448.31C405.51 448.89 403.15 449.46 401.11 448.18C399.24 447.01 398.67 444.93 398.3 443.58C397.09 439.16 399.08 435.34 399.58 434.39C400.22 433.16 401.51 430.77 404.3 429.28C405.2 428.8 406.9 427.89 409.02 428.13Z" fill="#555C5F"/>
<path d="M379.51 437.85C380.18 436.93 381.07 435.68 382.02 434.13C383.08 432.42 384.26 430.53 385.36 427.95C386.43 425.43 386.96 423.34 387.8 420C388.12 418.72 388.36 417.66 388.52 416.91C389.72 417.08 391.6 417.56 392.81 419.07C395.45 422.37 392.75 427.84 391.92 429.54C391.27 430.85 389.54 434.24 385.54 436.31C383.09 437.56 380.82 437.8 379.51 437.85Z" fill="#555C5F"/>
<path d="M383.75 452C386.62 454.74 386.5 458.85 386.43 461.06C386.39 462.49 386.18 467.23 382.6 471.4C379.08 475.5 374.56 476.4 371.49 477.02C369.31 477.46 366.49 477.99 363.19 476.89C361.86 476.45 359.34 475.61 357.7 473.19C355.84 470.44 356.26 467.37 356.55 465.28C357.12 461.12 359.19 458.33 360.12 457.11C360.84 456.16 363.32 453.09 367.78 451.11C369.51 450.34 373.83 448.49 378.89 449.71C380.38 450.06 382.17 450.49 383.75 452Z" fill="#555C5F"/>
<path d="M339.4 471.14C335.75 474.51 329.38 472.1 328.55 471.78C327.28 471.28 323.76 469.9 321.91 466.16C321.78 465.89 319.11 460.31 322.04 456.71C323.54 454.86 325.76 454.47 327.53 454.16C328.48 453.99 333.1 453.17 337.1 456.2C337.52 456.51 339.46 458.03 340.67 460.8C341.16 461.92 342.3 464.51 341.44 467.57C341.26 468.21 340.8 469.85 339.4 471.14Z" fill="#555C5F"/>
<path d="M306.43 452.1C304.06 452.31 301.19 451.48 300.06 449.65C298.97 447.88 300.03 446.01 301.54 443.33C302.7 441.27 303.35 440.11 304.84 439.65C307.34 438.87 310.77 440.5 312.23 442.76C313.75 445.11 312.95 447.84 311.43 449.55C311.08 449.95 309.42 451.83 306.43 452.1Z" fill="#555C5F"/>
<path d="M438.43 397.66C437.59 394.11 434.06 381.1 421.41 371.96C411.47 364.77 401.27 363.86 397.19 363.72C397.79 360.73 400.91 346.74 413.92 338.6C416.83 336.78 426.99 330.42 438.77 333.92C446.99 336.36 451.46 342.26 452.39 343.54C458 351.26 457.4 359.58 457.16 362.26C456.44 370.24 452.49 376.13 451.03 378.26C448.03 382.62 445.47 384.22 442.01 390.17C440.22 393.23 439.09 395.91 438.43 397.66Z" fill="#555C5F"/>
<path d="M364.09 464.64C364.85 460.65 369.18 456.94 373.41 458C376 458.65 378.3 461.02 378.64 464C379.09 467.85 375.99 470.32 375.58 470.64C372.86 472.73 368.33 473.29 365.75 470.77C363.41 468.48 364.03 464.97 364.09 464.64Z" fill="#BCB3AA"/>
<path d="M412.6 391.11C415.28 391.57 416.58 395.38 416.56 398C416.55 398.82 416.53 402.51 413.62 404C411.29 405.19 408.28 404.38 406.73 402.47C404.08 399.2 407.19 394.56 407.37 394.3C407.63 393.92 409.89 390.64 412.6 391.11Z" fill="#BCB3AA"/>
<path d="M154.09 271.62C194.28 269.06 234.47 266.49 274.66 263.93C279.81 269.31 286.49 276.82 293.55 286.37C300.97 296.4 309.46 307.88 316.46 324.99C323.06 341.1 324.92 353.82 326.93 367.63C329.61 385.99 330.85 395.4 326.42 406.69C324.53 411.49 320.66 420.96 310.59 426.6C303.08 430.81 295.67 430.91 291.95 430.69C291.23 444.24 290.47 457.86 289.65 471.54C289.07 481.19 288.48 490.81 287.86 500.39C287.59 501.89 286.96 504.15 285.31 506.26C283.21 508.93 280.25 510.38 274.84 511.62C270.34 512.65 265.66 513.2 254.16 513.15C248.88 513.13 245.45 512.96 238.59 512.64C226.54 512.07 223.7 511.57 220.97 509.32C217.25 506.26 216.22 502.01 215.95 500.81C214.41 494.06 217.45 486.66 223.52 481.49C222.08 476.08 220.75 470.1 219.69 463.62C218.36 455.47 217.67 447.92 217.39 441.15C214.24 440.81 211.09 440.47 207.94 440.13C207.34 456.02 206.75 471.9 206.15 487.79C206.17 489.22 206.06 491.32 205.38 493.75C205.05 494.93 203.38 500.94 198.23 504.47C195.4 506.41 192.61 506.85 188.53 507.28C175.47 508.64 165.24 508.19 162.23 508.05C155.31 507.72 150.04 507.22 143.78 505.63C137.11 503.93 135.17 502.48 133.89 500.9C129.64 495.63 132 487.97 132.36 486.86C134.71 479.63 141.02 476.49 142.32 475.88C140.39 466.68 138.73 456.33 137.72 444.99C136.93 436.14 136.65 427.85 136.69 420.23C134.88 420.71 132.01 421.25 128.53 420.99C126.59 420.85 119.88 420.27 114.62 415.37C110.72 411.75 109.37 407.4 108.77 405.37C104.18 389.88 112.53 365.91 117.04 353.46C123.32 336.14 127.07 325.81 134.66 309.42C142.03 293.54 148.95 280.69 154.09 271.62Z" fill="#EDE6DC"/>
<path d="M128.04 420.94C126.16 419.18 122.64 415.42 120.64 409.49C118.17 402.18 119.47 395.9 120.13 393.4C119.98 397.73 120.53 401.22 121.09 403.61C121.62 405.9 122.37 408.15 124.03 410.31C125.75 412.54 127 412.8 127.35 412.86C129.64 413.24 131.51 411.26 131.63 411.14C133.87 408.7 133.19 404.69 133.03 403.61C131.25 391.37 137.27 360.66 140.31 345.14C142.14 335.8 144.33 327.97 146.57 319.99C149.07 311.07 151.51 303.4 153.59 297.27C154.23 296.63 154.87 295.99 155.5 295.36C154.19 300.9 152.26 309.12 150.01 319.1C143.81 346.66 140.72 360.44 138.9 374.25C137.48 385.07 136.08 400.75 136.72 420.21C135.46 420.54 133.91 420.85 132.13 420.97C130.58 421.09 129.21 421.05 128.04 420.94Z" fill="#BCB3AA"/>
<path d="M261.32 321.02C264.65 333.24 266.68 343.63 267.96 351.4C269.68 361.86 270.54 367.25 270.51 374.89C270.47 384.31 270.45 389.01 269.36 394.98C269.17 396.02 268.56 399.19 268.55 403.45C268.53 409.14 269.59 412.14 270 413.19C270.87 415.44 271.97 418.17 274.72 419.7C275.35 420.05 277.5 421.25 279.57 420.47C280.61 420.08 281.48 419.24 282.76 416.64C283.72 414.68 284.95 411.65 285.63 407.58C286.16 408.86 287.05 411.53 286.59 414.86C286.51 415.41 286.13 417.91 284.42 420.6C283.4 422.21 282.26 423.34 281.42 424.05C282.43 425.05 284.14 426.48 286.59 427.37C292.58 429.54 298.09 426.74 299.61 425.97C307.62 421.9 309.7 413.26 310.01 411.86C310.48 413.12 311.57 416.57 310.46 420.73C309.03 426.06 305.01 428.75 304.04 429.36C302.54 429.8 300.79 430.2 298.82 430.46C296.2 430.81 293.87 430.81 291.95 430.69C291.82 433.19 291.68 435.7 291.55 438.2C288.64 437.76 283.77 436.64 278.68 433.37C276.28 431.83 271.42 428.27 267.83 421.88C267.02 420.44 264.68 416.02 263.87 409.75C263 402.99 264.68 400.08 265.4 391.75C265.83 386.77 265.59 383.64 265.02 375.28C264.15 362.56 262.92 343.96 261.32 321.02Z" fill="#BCB3AA"/>
<path d="M217.41 441.15C217.18 439.32 216.94 437.49 216.71 435.66C212.43 436.02 207.39 436.09 201.77 435.47C190.63 434.24 181.75 430.79 175.73 427.81C178.13 431.02 180.44 433.45 182.24 435.15C185.79 438.51 187.56 440.19 190.03 441.02C191.63 441.56 192.53 441.67 194.12 442.68C196.32 444.08 197.55 445.91 198.23 446.94C199.17 448.37 199.89 449.91 200.57 452.17C201.53 455.34 201.71 457.53 202.23 462.98C202.77 468.68 203.05 471.55 203.32 472.87C204.13 476.94 205.43 480.14 206.4 482.22C206.95 471.9 207.38 461.42 207.7 450.79C207.81 447.22 207.9 443.67 207.98 440.13C211.11 440.47 214.26 440.81 217.41 441.15Z" fill="#A49B95"/>
<path d="M161.37 508C160.71 507.49 155.76 503.55 155.67 496.98C155.59 491.42 159.02 486.2 164.39 483.75C163.3 485.17 160.84 488.8 160.6 493.96C160.22 502.02 165.55 507.34 166.44 508.19C164.75 508.13 163.06 508.06 161.37 508Z" fill="#A49B95"/>
<path d="M147.53 506.47C146.37 506.21 145.21 505.95 144.05 505.69C143.72 505.34 138.6 499.88 140.4 492.6C141.88 486.62 146.91 483.96 147.68 483.57C146.54 485.14 144.62 488.27 144.07 492.63C143.17 499.72 146.54 505.02 147.53 506.47Z" fill="#A49B95"/>
<path d="M233.85 512.39C232.1 512.24 230.35 512.1 228.6 511.95C227.95 510.83 224.5 504.68 226.69 497.28C228.16 492.31 231.4 489.37 232.78 488.26C231.65 489.9 229.66 493.3 229.29 498C228.68 505.63 232.79 511.07 233.85 512.39Z" fill="#A49B95"/>
<path d="M247.75 513.03C246.89 511.99 243.52 507.66 243.79 501.32C244.1 494.09 248.9 489.76 249.75 489.02C248.86 490.57 246.65 494.9 247.2 500.68C247.86 507.7 252.12 512.03 253.28 513.14C251.44 513.11 249.59 513.07 247.75 513.03Z" fill="#A49B95"/>
<path d="M150.02 278.93C148.68 281.43 147.34 283.94 146.01 286.44C147.79 286.07 149.57 285.71 151.34 285.34C154.07 287.65 158.14 290.7 163.53 293.45C171.41 297.47 178.08 298.81 184.34 299.96C197.1 302.31 207.16 301.88 209.74 301.75C219.92 301.22 227.29 299.18 242.04 295.11C254.1 291.78 257.4 290.17 273.95 285.54C280.56 283.69 286.03 282.27 289.72 281.34C286.66 277.54 283.6 273.74 280.55 269.94C238.48 270.81 196.41 271.68 154.34 272.56C152.9 274.68 151.46 276.81 150.02 278.93Z" fill="#A49B95"/>
<path d="M244.98 432.73C240.89 432.49 238.73 428.74 238.47 428.26C236 423.8 238.59 419.01 238.98 418.3C239.5 417.34 241.37 413.89 245.24 413.07C245.88 412.93 248.7 412.33 250.86 413.96C253.29 415.8 253.22 419.22 253.16 422.13C253.1 424.89 253.03 428.58 250.22 430.94C249.82 431.27 247.81 432.89 244.98 432.73Z" fill="#555C5F"/>
<path d="M254.81 448.68C254.8 447.54 254.78 442.82 258.51 439.62C259.17 439.06 262.11 436.53 266.17 437.19C266.51 437.25 270.11 437.89 272.17 441.15C273.75 443.65 273.48 446.17 273.19 448.81C272.88 451.65 272.58 454.42 270.25 456.6C267.08 459.57 262.83 458.94 262.59 458.9C259.54 458.4 257.69 456.45 256.97 455.58C254.83 452.95 254.82 450.01 254.81 448.68Z" fill="#555C5F"/>
<path d="M251.62 395.07C248.62 395.56 246.26 393.2 245.75 392.64C242.98 389.67 243.62 385.52 243.84 384.09C244 383.02 245.11 376.74 249.46 375.66C251.13 375.25 253.15 375.63 254.57 376.81C255.88 377.9 256.23 379.3 256.74 381.53C257.42 384.46 258 386.99 256.87 389.83C256.47 390.79 254.99 394.51 251.62 395.07Z" fill="#555C5F"/>
<path d="M247.66 360.34C244.65 360.96 242.17 358.67 241.66 358.17C239.35 355.91 239.27 352.94 239.23 351.79C239.14 348.56 240.48 344.4 243.95 342.34C244.62 341.94 247.5 340.24 250.08 341.45C252.28 342.48 252.91 345.01 253.4 346.94C253.65 347.93 254.5 351.53 252.63 355.37C251.85 356.99 250.5 359.76 247.66 360.34Z" fill="#555C5F"/>
<path d="M232.73 330.98C230.07 332.69 226.73 332.3 224.43 330.98C221.16 329.1 220.45 325.61 220.22 324.47C219.93 323.04 219.22 319.54 221.62 316.81C223.49 314.69 226.47 313.9 229.02 314.51C232.03 315.23 233.51 317.66 234.38 319.11C235.12 320.33 236.83 323.14 235.91 326.51C235.7 327.3 234.96 329.55 232.73 330.98Z" fill="#555C5F"/>
<path d="M256.47 317.32C253.28 319.17 249.8 317.32 249.58 317.19C246.19 315.31 245.43 311.2 245.75 308.51C245.84 307.72 246.33 303.65 249.45 302.38C252.5 301.14 255.61 303.59 256.34 304.17C256.98 304.67 259.22 306.49 259.66 309.66C259.99 312.01 259.41 315.62 256.47 317.32Z" fill="#555C5F"/>
<path d="M276.51 306.98C275.56 306.58 272.48 305.1 271.28 301.62C270.34 298.9 270.5 294.81 273.45 292.43C277 289.56 281.62 291.55 281.88 291.66C285.5 293.29 286.55 296.85 286.73 297.53C286.95 298.33 287.61 300.94 286.22 303.66C285.95 304.19 284.7 306.62 281.88 307.49C279.48 308.23 277.44 307.37 276.51 306.98Z" fill="#555C5F"/>
<path d="M290.43 324.09C289.78 321.56 289.12 319.01 290.43 316.94C292.36 313.88 297.1 314.23 297.45 314.26C300.28 314.51 302.15 316.1 303.58 317.32C306.52 319.83 307.63 322.76 307.92 323.58C308.68 325.75 309.6 328.35 308.3 330.86C306.76 333.85 303.24 334.46 302.68 334.56C298.87 335.23 295.99 332.98 295.4 332.52C293.69 331.18 292.81 329.54 291.95 327.92C291.58 327.2 290.9 325.9 290.43 324.09Z" fill="#555C5F"/>
<path d="M289.66 344.9C289.81 345.55 290.68 349.58 288.26 353.33C287.7 354.19 285.34 357.84 282.26 357.54C280.23 357.34 278.95 355.53 277.66 353.71C276.9 352.63 274.91 349.72 274.98 345.54C275.01 343.69 275.08 339.51 278.04 337.75C280.37 336.37 283.09 337.3 283.66 337.49C286.65 338.51 288.07 341.15 288.64 342.21C289.3 343.43 289.57 344.48 289.66 344.9Z" fill="#555C5F"/>
<path d="M314.17 370.3C310.62 371.49 306.7 367.82 304.72 365.96C302.9 364.25 300.92 362.39 300.12 359.19C299.14 355.24 300.66 351.98 301.52 350.13C302.62 347.77 303.87 345.09 306.5 344.39C308.77 343.79 310.9 344.97 312.63 345.92C313.49 346.4 315.48 347.53 316.97 349.88C317.98 351.47 318.28 352.85 318.63 354.48C319.31 357.61 319.07 360.1 318.89 361.88C318.63 364.37 318.5 365.64 317.61 367.11C317.19 367.82 316.1 369.65 314.17 370.3Z" fill="#555C5F"/>
<path d="M317.11 384.47C318.79 384.8 319.66 386.32 319.92 386.77C321.09 388.81 320.93 391.71 319.28 393.66C318.98 394.02 317.47 395.81 315.07 395.7C314.9 395.69 312.49 395.55 311.24 393.53C310.1 391.68 310.8 389.68 311.11 388.81C311.29 388.29 311.95 386.64 313.66 385.49C314.4 385 315.62 384.18 317.11 384.47Z" fill="#555C5F"/>
<path d="M293.36 386.51C290.51 388.17 286.88 386.04 286.59 385.87C283.88 384.23 282.52 381.15 282.5 378.34C282.49 377.56 282.47 373.47 285.82 371.32C288.15 369.83 291.46 369.69 293.61 371.32C295.45 372.72 295.65 374.82 296.04 378.98C296.35 382.24 295.74 383.67 295.27 384.47C295 384.95 294.44 385.89 293.36 386.51Z" fill="#555C5F"/>
<path d="M243.45 471.28C240.71 472.77 236.84 470.51 235.02 468.98C233.89 468.03 230.56 465.24 231.06 461.07C231.4 458.21 233.46 455.41 236.42 454.56C239.37 453.71 241.89 455.17 242.8 455.71C243.51 456.12 246.85 458.2 247.4 462.09C247.79 464.87 246.54 467.06 245.74 468.47C244.96 469.86 244.47 470.73 243.45 471.28Z" fill="#555C5F"/>
<path d="M266.68 481.49C265.09 479.99 265.38 477.52 265.91 476.13C266.95 473.45 269.93 472.23 272.29 472.3C273.63 472.34 276.26 472.84 276.89 474.6C277.48 476.26 275.94 478.09 274.59 479.71C273.62 480.87 272.83 481.81 271.4 482.26C271.11 482.35 268.43 483.15 266.68 481.49Z" fill="#555C5F"/>
<path d="M177.07 457.49C173.75 458.45 170.83 455.94 170.56 455.7C168.33 453.72 166.74 449.92 168.39 446.76C169.31 444.99 171.2 443.54 173.5 443.31C176.55 443.01 178.58 445.05 178.86 445.35C180.4 446.96 180.59 448.84 180.77 450.71C180.93 452.32 181.08 453.85 180.13 455.31C179.12 456.87 177.49 457.37 177.07 457.49Z" fill="#555C5F"/>
<path d="M155.75 468.98C153.98 469.76 151.89 469.28 150.52 468.34C148.78 467.15 148.35 465.32 147.71 462.6C146.96 459.4 146.31 456.6 147.97 454.3C148.06 454.18 149.84 451.78 152.44 451.87C155.67 451.99 157.49 455.89 158.06 457.1C159.15 459.44 159.11 461.5 159.08 462.08C159.01 463.32 158.82 467.63 155.75 468.98Z" fill="#555C5F"/>
<path d="M153.71 432.6C151 432.82 149.02 431.16 148.6 430.81C145.78 428.45 145.63 424.7 145.54 422.51C145.43 419.82 145.28 416.14 147.97 413.83C149.8 412.26 152.88 411.36 155.12 412.55C156.98 413.54 157.51 415.63 158.57 419.83C159.12 422.02 159.56 423.83 159.21 426.21C158.99 427.74 158.63 430.15 156.66 431.57C155.44 432.44 154.18 432.56 153.71 432.6Z" fill="#555C5F"/>
<path d="M149.62 394.56C146.1 393.43 144.99 388.47 144.64 386.9C144.45 386.05 143.5 381.44 145.92 376.81C146.75 375.22 147.98 372.87 150.01 372.72C152.31 372.55 154.07 375.35 154.35 375.78C155.62 377.78 155.58 379.88 155.5 384.08C155.47 385.77 155.22 387.29 154.73 390.34C154.35 392.68 154.11 393.56 153.33 394.17C151.91 395.26 149.83 394.62 149.62 394.56Z" fill="#555C5F"/>
<path d="M156.77 358.56C154.1 358.51 152.28 355.18 151.66 353.2C150.01 347.86 154.35 343.37 154.72 342.99C155.52 342.18 156.84 340.86 158.42 341.08C159.95 341.29 160.85 342.81 161.48 343.89C163.06 346.56 162.86 349.3 162.76 350.53C162.65 351.88 162.49 353.7 161.23 355.51C160.75 356.19 159.07 358.6 156.77 358.56Z" fill="#555C5F"/>
<path d="M161.24 325.11C159.16 325.23 157.59 322.83 157.41 322.56C155.16 319.03 156.97 313.85 159.58 311.07C160.35 310.25 161.57 308.95 163.28 309.03C165.44 309.13 166.67 311.34 166.73 311.46C167.47 312.84 167.24 314.16 166.86 316.44C166.62 317.83 166.32 319.53 165.2 321.42C164.25 322.99 163.07 325 161.24 325.11Z" fill="#555C5F"/>
<path d="M124.34 376.04C122.54 376.59 119.83 376.43 118.85 374.89C117.94 373.46 118.97 371.54 121.02 367.74C122.57 364.86 123.47 363.25 124.98 363.14C126.72 363.02 128.08 364.98 128.3 365.31C129.74 367.47 129.04 369.99 128.81 370.8C128.63 371.47 127.63 375.04 124.34 376.04Z" fill="#555C5F"/>
<path d="M124.22 351.15C122.29 350.19 121.9 347.63 121.79 346.94C121.02 341.92 125.4 337.73 128.05 335.2C130.39 332.96 131.4 332.85 132.01 332.9C134.16 333.1 135.94 335.91 136.1 338.39C136.19 339.75 135.26 341.45 133.42 344.77C130.97 349.18 130.06 349.88 129.46 350.26C128.94 350.58 126.36 352.22 124.22 351.15Z" fill="#555C5F"/>
<path d="M137.11 320.9C135.37 318.96 136.35 315.86 136.98 313.88C137.46 312.37 138.6 308.76 141.58 307.88C141.84 307.8 143.81 307.24 144.9 308.26C145.77 309.07 145.6 310.44 145.28 312.98C145.19 313.7 144.91 315.68 143.88 318.34C143.04 320.51 142.6 321.61 141.71 322.04C140.26 322.75 138.2 322.11 137.11 320.9Z" fill="#555C5F"/>
<path d="M163.36 80.73C155.16 68.85 146.05 61.97 140.21 58.26C132.94 53.65 126.07 49.29 116.04 49.07C103.49 48.79 94.62 55.16 92.55 56.73C83.4 63.66 80.31 72.67 78.59 77.67C74.63 89.23 75.97 99.04 76.72 104.05C77.01 105.99 79.42 121.11 88.98 132.82C91.57 136 96.14 140.69 100.55 144.73C102.68 146.68 104.52 148.25 105.83 149.33C125.01 126.46 144.19 103.59 163.36 80.73Z" fill="#EDE6DC"/>
<path d="M149.58 82.94C147.24 78.13 141.83 68.55 131.71 61.49C130.33 60.53 125.47 57.25 118.43 54.85C114.69 53.58 111.97 52.68 108.22 52.81C103.07 52.99 99.32 54.98 96.99 56.21C92.34 58.68 89.5 61.69 87.8 63.53C86.68 64.74 84.36 67.28 82.35 71.02C81.07 73.41 79.36 77.33 78.44 85.15C77.93 89.49 76.9 98.17 79.12 108.3C83.24 127.09 95.92 138.89 100.57 142.85C116.9 122.88 133.24 102.91 149.58 82.94Z" fill="#D6D0C8"/>
<path d="M106.61 129.07C103.04 126.43 97.44 121.44 93.67 113.41C92.36 110.62 87.35 99.5 91.12 86.86C92.36 82.68 94.06 77 99.46 73.75C106.88 69.28 115.59 72.84 116.99 73.41C122.95 75.84 126.33 80.35 130.95 86.52C133.64 90.11 135.51 93.36 136.74 95.71C126.7 106.83 116.65 117.95 106.61 129.07Z" fill="#83807F"/>
<path d="M115 116.37C114.27 115.92 111.28 113.98 110.4 110.24C109.35 105.76 112.02 101.61 114.83 99.69C115.56 99.19 116.58 98.49 118.06 98.33C118.93 98.24 120.53 98.27 125.72 101.56C127.28 102.55 128.56 103.45 129.46 104.11C124.65 108.2 119.82 112.29 115 116.37Z" fill="#606065"/>
<path d="M337.36 149.58C339.66 157.48 342.42 169.08 343.62 183.36C344.81 197.49 345.68 207.74 342.09 220.64C340.64 225.86 335.76 242.54 320.64 255.87C317.61 258.54 311.33 263.58 293.58 270.51C267.34 280.75 244.64 283.96 233.67 285.15C204.17 288.35 181.53 285.42 173.93 284.3C147.39 280.4 130.94 273.13 124.4 270C107.98 262.16 101.34 255.35 98.02 251.45C89.28 241.18 86.16 230.69 85.25 227.28C83.61 221.12 83.16 215.46 83.38 207.02C84.1 179.31 91.11 157.64 92.23 154.25C96.56 141.2 100.59 129.05 110.78 115.44C120.48 102.49 130.9 94.73 135.97 91.27C152.06 80.3 166.69 76.96 180.06 73.91C216.49 65.59 244.67 71 251.21 72.38C259.97 74.23 267.08 76.55 271.98 78.34C275.99 72.13 284.37 61.23 298.87 54.34C305.38 51.25 316.2 46.11 328.83 49.23C336.08 51.02 341.15 54.85 343.13 56.38C350.55 62.1 353.97 68.82 355.73 72.21C363.83 87.88 361.32 103.72 360.33 109.49C356.5 131.51 342.46 145.09 337.36 149.58Z" fill="#EDE6DC"/>
<path d="M337.19 148.81C335.28 150.37 333.38 151.92 331.47 153.48C334.7 157.48 337.93 161.48 341.16 165.47C340.66 162.91 340.1 160.27 339.46 157.55C338.75 154.51 337.99 151.59 337.19 148.81Z" fill="#8E8882"/>
<path d="M275.02 84.98C278.73 78.44 285.32 69.16 296.3 61.83C300.38 59.1 306.71 54.97 316.04 53.32C319.9 52.64 326.87 51.48 335.1 54.17C341.64 56.31 346.03 59.94 348.21 62C352.54 66.1 354.7 70.27 356.11 73.03C356.73 74.25 358.77 78.41 360.15 84.61C362.48 95.06 361.22 103.65 360.59 107.69C359.85 112.46 357.83 122.09 351.58 132.59C345 143.64 336.83 150.45 331.69 154.08C326.39 142.41 317.83 126.97 304.12 111.36C293.97 99.79 283.68 91.2 275.02 84.98Z" fill="#D6D0C8"/>
<path d="M290.77 97.74C293.81 91.8 299.24 83.56 308.56 77.32C312.62 74.6 317.46 71.44 324.39 71.19C326.8 71.1 332.89 70.97 338.35 75.1C343.36 78.9 344.95 84.09 345.84 87.01C347.88 93.69 346.88 99.24 345.84 105.05C345.02 109.61 343.88 116.02 339.54 123.09C334.45 131.39 327.73 136.1 323.65 138.47C319.9 131.76 314.92 124.02 308.36 115.99C302.28 108.57 296.21 102.54 290.77 97.74Z" fill="#83807F"/>
<path d="M302.46 109.2C303.91 107.33 308.17 102.3 314.47 101.41C316.03 101.19 318.73 100.81 320.85 102.43C322.25 103.5 322.8 104.99 323.19 106.05C324.27 108.97 323.74 111.57 323.49 112.73C323.05 114.74 322.28 116.08 321.45 117.54C320.53 119.14 319.39 120.39 317.15 122.94C316.36 123.84 315.69 124.57 315.23 125.08C313.31 122.35 311.19 119.5 308.83 116.58C306.67 113.92 304.54 111.46 302.46 109.2Z" fill="#606065"/>
<path d="M250.58 202.616C251.345 190.323 244.408 179.888 235.087 179.308C225.765 178.728 217.589 188.223 216.824 200.516C216.059 212.808 222.996 223.243 232.317 223.823C241.638 224.403 249.815 214.908 250.58 202.616Z" fill="#1B1819"/>
<path d="M147.219 200.753C147.983 188.461 141.677 178.065 133.133 177.533C124.589 177.002 117.042 186.536 116.277 198.828C115.513 211.121 121.819 221.517 130.363 222.049C138.907 222.58 146.454 213.046 147.219 200.753Z" fill="#1B1819"/>
<path d="M168.22 246.34C168.2 246.34 168.02 246.33 167.83 246.32C165.08 246.13 162.44 244.7 160.31 243.28C156.38 240.66 153.99 237.93 152.57 236.3C149.64 232.94 149.1 231.32 148.91 230C148.71 228.61 148.87 227.23 149.17 226.34C150.85 221.31 160.92 220.27 163.98 219.96C174.52 218.87 190.35 220.44 191.72 226.6C192.11 228.33 191.25 229.97 190.1 232.13C189.58 233.11 188.52 234.88 181.42 240.39C176.97 243.84 175.58 244.55 174.27 245.07C172.69 245.69 170.74 246.44 168.22 246.34Z" fill="#1B1819"/>
<path d="M167.68 245.07C167.94 249.47 168.2 253.86 168.47 258.26C166.92 259.66 165.36 261.06 163.81 262.46C163.51 262.81 163.52 263.32 163.81 263.64C164.12 263.99 164.68 264.02 165.05 263.7C166.6 262.38 168.15 261.06 169.7 259.74C172.92 261.4 176.14 263.06 179.36 264.72C180.3 265.26 181.28 264.9 181.51 264.34C181.67 263.94 181.47 263.39 181.04 262.98C177.81 261.32 174.59 259.66 171.36 258C171.1 253.76 170.85 249.52 170.59 245.28C169.63 245.21 168.66 245.14 167.68 245.07Z" fill="#1B1819"/>
<path d="M222.77 161.58C224.12 162.93 225.86 163.14 226.86 163.24C231.77 163.75 235.76 160.44 237.46 159.03C240.03 156.89 243.19 154.27 243.08 150.48C243.07 150.23 242.93 146.92 240.4 145.12C238.01 143.42 235.06 144.19 232.49 144.86C227.9 146.06 225.23 148.88 224.7 149.46C223.42 150.85 221.07 153.42 221.13 156.99C221.12 157.76 221.16 159.97 222.77 161.58Z" fill="#555C5F"/>
<path d="M202.53 146.77C200.94 146.21 200.24 144.46 200.04 143.96C199.32 142.16 199.71 140.52 200.1 138.98C200.43 137.7 201.33 134.34 204.5 131.51C206.35 129.87 208.7 127.77 211.39 128.45C213.56 129 215.09 131.14 215.48 133.11C215.97 135.59 214.6 137.59 212.86 140.13C212.11 141.23 210.57 143.22 208.01 144.92C206.06 146.21 204.29 147.39 202.53 146.77Z" fill="#555C5F"/>
<path d="M182.17 143.9C180.55 143.77 178.8 142.87 177.89 141.35C177.25 140.28 177.18 139.15 177.38 137.2C177.71 133.91 177.98 131.24 179.74 127.94C181.03 125.52 183.97 120.01 187.59 120.34C190.78 120.63 192.58 125.28 192.76 125.77C195.6 133.36 188.81 141.84 184.85 143.45C183.49 144 182.17 143.9 182.17 143.9Z" fill="#555C5F"/>
<path d="M162.6 143.45C160.83 144.64 158.26 143.45 157.15 142.94C156.67 142.72 153.07 140.98 151.96 136.9C151.62 135.67 150.88 132.96 152.56 130.86C154.24 128.74 157.06 128.89 157.24 128.9C159.55 129.06 160.96 130.64 161.75 131.54C163.68 133.72 163.94 136.21 164.05 137.33C164.2 139 164.49 142.17 162.6 143.45Z" fill="#555C5F"/>
<path d="M141.24 161.58C138.76 162.49 136.47 161.45 134.69 160.64C131.08 159 129.13 156.24 128.31 154.85C127.16 152.92 125.9 150.78 126.61 148.38C127.32 145.96 129.59 144.81 130.1 144.55C133.02 143.07 135.96 144.06 136.91 144.38C141.63 145.96 143.49 150.46 143.97 151.61C144.69 153.35 145.89 156.25 144.48 158.84C143.46 160.71 141.65 161.43 141.24 161.58Z" fill="#555C5F"/>
<path d="M102.17 174.26C100.75 174.08 99.99 171.96 99.87 171.62C98.56 167.96 100.96 163.3 104.21 161.49C104.78 161.18 105.99 160.5 106.85 160.98C107.93 161.58 107.8 163.64 107.7 165.15C107.48 168.61 105.96 170.9 105.57 171.45C104.66 172.76 103.51 174.42 102.17 174.26Z" fill="#555C5F"/>
<path d="M90.51 206.09C88.6 205.47 88.06 202.67 87.7 200.81C87.45 199.51 86.43 194.22 89.66 190.09C90.37 189.18 91.82 187.33 93.49 187.54C95.33 187.77 96.31 190.37 96.81 191.71C98.38 195.89 97.06 199.7 96.55 201.16C95.5 204.19 94.15 205.12 93.83 205.33C93.44 205.57 91.94 206.55 90.51 206.09Z" fill="#555C5F"/>
<path d="M93.92 226.17C94 230.22 95.91 232.99 96.9 234.43C98.43 236.64 99.45 237.02 99.88 237.15C101.1 237.51 102.64 237.35 103.71 236.47C105.08 235.34 105.08 233.5 105.07 231.02C105.07 229.29 105.02 226.36 103.2 223.36C102.25 221.8 101.28 220.2 99.37 219.79C97.97 219.49 96.36 219.89 95.28 220.9C93.84 222.24 93.88 224.17 93.92 226.17Z" fill="#555C5F"/>
<path d="M121.47 250.94C119.11 252.15 116.39 250.14 115.92 249.79C115.66 249.59 113.19 247.71 113.05 244.56C113.01 243.77 112.92 241.65 114.39 240.54C115.82 239.46 117.76 240.08 118.41 240.28C120.57 240.97 121.67 242.7 122.24 243.6C122.99 244.79 124 246.38 123.52 248.26C123.45 248.5 123 250.15 121.47 250.94Z" fill="#555C5F"/>
<path d="M254.17 261.79C252.14 262.59 250.35 263.3 248.68 262.43C246.43 261.25 246.26 258.17 246.25 257.96C246.11 254.32 249.6 252.22 249.82 252.09C250.16 251.89 252.96 250.32 255.95 251.58C256.39 251.76 259.01 252.87 259.4 255.28C259.68 257.02 258.63 258.43 258.12 259.11C256.95 260.69 255.41 261.3 254.17 261.79Z" fill="#555C5F"/>
<path d="M269.11 240.09C267.92 240.1 265.98 240.11 264.39 238.81C261.64 236.57 262.26 232.3 262.35 231.79C263.19 226.62 268.49 224.38 269.12 224.13C270.42 223.61 274.48 221.97 277.42 224.26C280.56 226.71 279.67 231.5 279.59 231.92C278.89 235.42 276.2 237.29 275.12 238.05C274.3 238.61 272.15 240.07 269.11 240.09Z" fill="#555C5F"/>
<path d="M281.88 248.77C284.01 246.8 286.06 244.92 288.9 245.07C289.19 245.09 292.49 245.31 293.75 247.75C295.27 250.69 292.48 254.18 292.09 254.64C290.37 256.72 288.14 257.32 286.22 257.83C283.87 258.46 281.84 259 280.35 257.83C278.79 256.6 278.68 254.16 279.07 252.6C279.46 251.02 280.43 250.1 281.88 248.77Z" fill="#555C5F"/>
<path d="M297.51 213.15C294.33 214.09 291.34 212.19 290.74 211.81C287.33 209.64 286.39 205.98 286.14 204.72C285.98 203.89 285.23 199.58 288.05 195.91C288.71 195.06 290.7 192.47 293.86 192.27C297.34 192.05 299.84 194.89 301.07 196.29C301.75 197.06 303.13 198.66 303.75 201.2C303.97 202.11 304.57 204.7 303.37 207.58C302.35 210.02 300.61 211.33 299.99 211.79C299.41 212.25 298.63 212.82 297.51 213.15Z" fill="#555C5F"/>
<path d="M321.07 221.75C322.77 224.96 322.42 228.17 322.26 229.49C322.11 230.67 321.54 234.83 318.17 238.17C316.79 239.54 315.13 241.18 312.72 241.15C310.16 241.11 308.07 239.21 307.1 237.41C305.73 234.87 306.46 232.3 307.44 228.81C308.24 225.98 309.25 222.38 312.55 220.04C313.49 219.38 315.76 217.77 318 218.51C319.64 219.05 320.45 220.58 321.07 221.75Z" fill="#555C5F"/>
<path d="M329.49 207.15C326.01 207.55 323.13 201.96 322.85 201.41C320.17 196.06 322.11 190.74 322.59 189.54C323.39 187.54 324.49 184.79 326.93 184.18C330.5 183.28 333.88 187.73 334.08 188.01C336.56 191.38 336.11 195.29 335.87 197.33C335.73 198.54 335.36 201.38 333.32 204.1C332.27 205.48 331.16 206.96 329.49 207.15Z" fill="#555C5F"/>
<path d="M316.22 170.64C313.71 171.37 311.16 168.93 309.07 166.94C304.99 163.04 303.89 158.58 303.45 156.73C302.78 153.86 302.2 151.39 303.58 149.96C305.62 147.84 310.33 149.74 310.86 149.96C314.34 151.41 316.06 154.28 317.37 156.47C318.86 158.95 320.47 161.65 319.92 165.02C319.85 165.44 319.08 169.8 316.22 170.64Z" fill="#555C5F"/>
<path d="M289.28 175.87C284.42 175.28 281.74 169.99 281.49 169.49C280.81 168.09 278.64 163.67 280.98 160.43C282.14 158.82 284.11 157.91 285.96 157.88C290.13 157.8 292.63 162.2 293.36 163.5C295.37 167.04 294.92 170.4 294.76 171.54C294.43 173.98 293.59 174.78 293.36 174.99C291.98 176.2 290.01 175.96 289.28 175.87Z" fill="#555C5F"/>
<path d="M266.05 146.77C263.31 148.27 259.82 145.67 258.9 144.98C258.02 144.32 255.28 142.28 255.07 138.85C255.04 138.32 254.86 135.44 256.73 134C259.11 132.16 263.07 133.99 265.03 135.53C265.63 136 268.66 138.38 268.48 142.04C268.45 142.53 268.24 145.56 266.05 146.77Z" fill="#555C5F"/>
<path d="M282.39 131.58C279.68 130.24 276.99 128.9 275.24 125.96C275.01 125.58 271.53 119.55 274.6 115.75C277.02 112.76 281.79 113.26 284.3 114.09C288.36 115.44 290.23 118.89 291.7 121.62C293.17 124.33 295.05 127.82 293.49 130.43C291.99 132.93 288.23 133.1 287.62 133.11C285.62 133.16 284.18 132.47 282.39 131.58Z" fill="#555C5F"/>
<path d="M262.98 99.41C259.37 102.01 254.36 99.5 253.15 98.9C252.28 98.47 249.29 96.92 247.53 93.41C246.86 92.08 245.16 88.68 246.76 85.75C247.87 83.73 249.95 83.02 250.21 82.94C254.41 81.58 258.79 85.51 261.19 87.66C263.62 89.84 265.75 91.75 265.66 94.55C265.57 97.49 263.11 99.32 262.98 99.41Z" fill="#555C5F"/>
<path d="M233.62 127.11C229.94 125.72 228.86 121.39 228.77 120.98C227.43 115.22 232 108.47 237.83 106.94C238.63 106.73 243.53 105.55 246.51 108.6C249.32 111.48 248.31 115.95 248.04 117.15C247.14 121.15 244.34 123.4 243.19 124.3C241.71 125.46 237.65 128.63 233.62 127.11Z" fill="#555C5F"/>
<path d="M232.98 82.56C231.26 82.96 227.04 83.93 224.04 81.41C223.68 81.11 221.75 79.49 221.74 77.07C221.74 76.69 221.78 74.78 223.14 73.75C223.89 73.18 224.73 73.13 225.57 73.11C228.94 73.03 231.64 73.56 231.95 73.62C238.13 74.82 239.01 74.72 239.44 75.65C240.16 77.22 238.5 79.36 238.2 79.74C236.73 81.66 234.6 82.18 232.98 82.56Z" fill="#555C5F"/>
<path d="M219.71 109.11C218.48 110.65 215.83 113.96 211.41 114.47C210.75 114.55 206.21 115.07 203.88 112.17C201.91 109.73 202.73 106.37 203.5 103.23C204.24 100.2 205.79 93.84 211.41 91.36C212.36 90.94 217.02 89.05 220.35 91.49C223.57 93.85 223.28 98.59 223.16 100.55C222.88 105.05 220.53 108.07 219.71 109.11Z" fill="#555C5F"/>
<path d="M169.79 122.64C167.31 122.89 164.78 121.51 163.53 119.83C160.12 115.25 163.79 105.17 170.42 101.7C171.21 101.28 175.01 99.3 177.7 100.93C181.5 103.24 179.89 110.85 179.74 111.53C178.63 116.8 174.99 119.7 173.87 120.59C172.66 121.57 171.5 122.47 169.79 122.64Z" fill="#555C5F"/>
<path d="M194.81 86.64C192.1 87.26 188.64 88.06 186.9 86.13C185.3 84.35 186.16 81.37 186.26 81.02C186.95 78.74 188.73 77.55 189.83 76.81C190.63 76.27 191.54 75.81 197.74 74.51C201.93 73.63 202.68 73.6 203.36 74.13C205.14 75.51 204.3 79.07 204.25 79.24C203.71 81.38 202.27 82.63 201.19 83.58C198.75 85.7 196.16 86.33 194.81 86.64Z" fill="#555C5F"/>
<path d="M168.26 92.77C166.62 94.69 164.26 97.46 160.35 98.13C158.18 98.5 154.32 98.44 153.33 96.47C152.15 94.11 155.72 90.3 158.31 87.53C162.87 82.66 167 81.43 169.03 81.02C170.76 80.67 172.02 80.43 172.73 81.15C174.47 82.9 171.5 88.97 168.26 92.77Z" fill="#555C5F"/>
<path d="M146.94 105.02C149.55 108 145.61 114.37 145.15 115.11C144.25 116.56 141.32 121.3 136.47 121.49C135.95 121.51 132.42 121.6 131.11 119.45C129.59 116.95 132.1 113.15 134.17 110C136.05 107.15 137.58 104.83 140.55 104C140.74 103.95 145 102.81 146.94 105.02Z" fill="#555C5F"/>
<path d="M119.75 126.21C119.37 129.35 117.7 131.66 116.94 132.59C115.69 134.14 113.23 137.18 109.92 136.93C109.24 136.88 107.84 136.77 107.11 135.78C104.84 132.7 111.83 124.9 113.75 122.76C115.51 120.8 116.81 119.74 117.84 120.08C118.98 120.46 119.45 122.48 119.63 123.27C119.86 124.32 119.86 125.29 119.75 126.21Z" fill="#555C5F"/>
</svg>
