<svg width="483" height="558" viewBox="0 0 483 558" fill="none" xmlns="http://www.w3.org/2000/svg">
<path d="M223.313 114.691C223.143 117.871 222.973 121.041 222.803 124.221C219.683 123.821 216.563 123.431 213.443 123.031C213.443 119.801 213.443 116.561 213.443 113.331C211.003 115.431 208.563 117.531 206.123 119.631C196.543 117.721 186.253 116.081 175.313 114.861C152.313 112.311 131.373 112.231 113.163 113.351C110.413 116.811 107.113 121.391 103.893 127.081C98.4426 136.691 95.7226 145.021 92.9826 153.571C91.5126 158.161 89.9226 163.661 88.4626 169.941C82.5226 167.191 77.6326 164.381 73.8626 162.001C67.7626 158.161 61.3726 154.061 55.1426 146.851C51.1126 142.191 48.2126 138.741 47.3126 133.231C46.3126 127.101 48.4026 122.141 49.0126 120.801C49.4326 119.881 50.9826 116.651 55.6526 112.461C58.6926 109.731 62.7226 106.891 72.1626 102.931C80.0026 99.6406 86.1726 97.8406 91.5626 96.2906C94.4326 95.4606 102.303 93.2606 112.843 91.1806C118.923 89.9806 126.383 88.7306 134.973 87.7806C138.173 79.8006 141.573 73.1806 144.503 68.0406C146.723 64.1506 149.673 59.8306 155.563 51.1906C158.943 46.2306 162.313 41.4706 167.303 36.8906C168.973 35.3606 170.703 33.9606 172.923 32.6306C174.053 31.9506 176.913 30.3306 181.943 28.8906C185.263 27.9406 188.413 27.3806 194.033 26.8506C198.113 26.4606 203.363 25.9806 210.883 26.0006C214.553 26.0106 222.223 26.1506 231.993 27.3606C235.773 27.8306 244.643 29.0506 255.823 31.9606C264.493 34.2106 270.143 36.3306 281.183 40.4706C281.183 40.4706 289.773 43.6906 299.053 48.6406C300.713 49.5306 303.203 50.9006 306.033 53.2406C306.823 53.8906 309.333 56.0106 311.993 59.3706C313.193 60.8806 315.133 63.5406 316.933 67.2006C318.453 70.2906 319.183 72.7206 320.163 76.0506C321.083 79.1406 321.733 81.9206 322.543 85.9206C323.883 92.5606 324.773 96.9306 325.433 103.111C326.183 110.091 326.253 115.521 326.283 119.621C326.323 123.671 326.223 127.101 326.113 129.661C328.883 131.301 332.573 133.531 336.833 136.301C340.713 138.811 346.673 142.691 353.683 148.041C355.693 149.571 365.563 157.161 376.493 168.301C377.533 169.361 381.523 173.461 385.683 179.531C389.113 184.541 390.193 187.281 390.793 189.741C391.373 192.121 392.123 195.371 390.963 199.101C389.853 202.671 387.593 204.821 385.683 206.591C384.443 207.741 381.243 210.501 373.423 213.571C365.263 216.771 358.303 217.861 352.823 218.681C348.693 219.301 345.223 219.611 342.793 219.791C344.213 213.571 344.743 208.331 344.953 204.551C345.383 196.811 344.713 190.591 343.793 181.941C343.283 177.191 342.733 173.241 342.303 170.461C337.013 167.171 329.733 162.861 320.823 158.271C308.753 152.041 299.553 148.311 287.123 143.291C273.083 137.631 263.473 133.791 249.843 130.011C242.183 127.891 235.703 126.471 231.123 125.551C228.533 121.931 225.923 118.311 223.313 114.691Z" fill="#E5BB74"/>
<path opacity="0.35" d="M113.353 113.111C111.073 116.001 108.763 119.221 106.523 122.801C100.973 131.641 97.3929 140.141 95.0229 147.351C111.573 144.431 129.783 142.501 149.443 142.351C237.643 141.671 306.553 177.141 345.013 201.841C344.953 198.421 344.803 194.881 344.573 191.241C344.123 184.211 343.393 177.581 342.473 171.401C330.553 164.761 318.633 158.111 306.713 151.471C291.473 145.411 276.233 139.341 260.983 133.281C251.093 130.661 241.203 128.041 231.313 125.421C228.533 121.431 225.753 117.451 222.973 113.461C222.943 117.031 222.913 120.611 222.883 124.181C219.803 123.771 216.723 123.361 213.653 122.951C213.583 119.741 213.513 116.541 213.443 113.331C210.743 115.471 208.053 117.611 205.353 119.761C183.983 114.971 159.053 111.671 131.313 112.231C125.133 112.341 119.153 112.651 113.353 113.111Z" fill="#39393A"/>
<path d="M88.4629 169.941C82.2929 167.331 77.2829 164.521 73.4829 162.131C66.2929 157.611 61.6229 153.431 58.8029 150.901C53.1729 145.821 51.4929 143.301 50.5029 141.581C49.3529 139.571 47.5329 136.331 47.1229 131.731C46.6329 126.231 48.4329 121.931 49.4629 119.911C52.5429 118.591 56.1329 117.281 60.2129 116.221C66.6129 114.551 72.3729 113.931 77.0529 113.781C81.7229 111.671 86.3929 109.561 91.0729 107.451C89.5529 110.111 88.0229 112.761 86.5029 115.421C89.9229 115.081 92.6629 114.801 94.3729 114.621C101.563 113.881 104.133 113.581 108.083 113.441C110.253 113.361 112.023 113.351 113.163 113.361C110.473 116.791 106.823 121.861 103.233 128.441C98.9229 136.341 96.6429 142.851 94.2329 149.861C92.4829 154.901 90.3629 161.701 88.4629 169.941Z" fill="#AB7642"/>
<path d="M342.473 171.391C342.933 174.501 343.533 178.911 344.053 184.231C344.773 191.661 345.273 196.831 345.003 203.371C344.833 207.421 344.333 213.061 342.813 219.801C345.393 219.611 349.023 219.281 353.333 218.621C359.413 217.691 366.493 216.571 374.793 213.171C385.883 208.631 388.643 204.341 389.693 202.321C390.353 201.051 390.743 199.921 390.973 199.121C390.073 197.351 388.543 194.811 386.033 192.311C383.743 190.021 381.633 188.771 378.973 187.201C376.613 185.821 373.253 184.061 368.933 182.521C365.443 178.951 361.953 175.371 358.463 171.801C358.693 174.891 358.913 177.981 359.143 181.081C353.583 177.851 348.033 174.621 342.473 171.391Z" fill="#AB7642"/>
<path d="M387.743 193.331C386.063 191.591 383.983 189.701 381.443 187.881C376.473 184.321 371.633 182.361 367.993 181.241C364.423 177.331 360.843 173.411 357.273 169.501C358.123 173.591 358.973 177.671 359.823 181.761C355.303 178.661 349.383 174.751 342.323 170.471C341.433 169.931 325.073 160.681 307.883 152.001C291.223 143.591 266.113 133.041 231.143 125.561C228.333 121.541 225.523 117.531 222.713 113.511C222.743 117.081 222.773 120.661 222.803 124.231C219.683 123.831 216.563 123.441 213.443 123.041C213.443 119.811 213.443 116.571 213.443 113.341C211.003 115.441 208.563 117.541 206.123 119.641C192.763 117.011 177.613 114.791 160.913 113.571C147.393 112.591 130.733 112.111 111.733 113.211C101.683 113.801 93.0726 114.701 86.3826 115.551C88.5126 112.571 90.6426 109.591 92.7626 106.611C87.9926 108.991 83.2326 111.381 78.4626 113.761C74.0526 113.781 68.5426 114.211 62.3726 115.671C58.1626 116.671 54.4826 117.951 51.3926 119.241" stroke="#5F3000" stroke-width="3" stroke-miterlimit="10"/>
<path d="M326.123 129.671C298.803 115.521 259.133 99.1006 209.183 91.5406C181.203 87.3006 156.043 86.7606 134.973 87.8006C136.073 85.0506 137.323 82.1706 138.723 79.2006C140.113 76.2406 141.533 73.4606 142.953 70.8606C162.793 69.4406 186.533 69.4406 213.023 72.9106C261.353 79.2506 299.733 94.6606 325.883 107.881C326.073 110.791 326.203 113.821 326.273 116.951C326.353 121.391 326.293 125.641 326.123 129.671Z" fill="#C91C00"/>
<path d="M388.663 192.121C387.993 192.861 387.323 193.601 386.653 194.351C387.563 195.291 388.493 196.321 389.423 197.451C389.953 198.081 390.443 198.711 390.913 199.321C391.203 198.411 391.453 197.331 391.543 196.101C391.563 195.791 391.583 195.491 391.583 195.191C390.603 194.171 389.633 193.141 388.663 192.121Z" fill="#5F3000"/>
<path d="M52.0032 120.591C51.4632 120.831 50.8832 121.111 50.2932 121.431C49.5432 121.831 48.8732 122.251 48.2832 122.661C48.4832 122.051 48.7432 121.391 49.0732 120.701C49.6032 119.591 50.1832 118.651 50.7232 117.901C50.8032 117.881 50.8732 117.851 50.9532 117.831C51.3032 118.751 51.6532 119.671 52.0032 120.591Z" fill="#5F3000"/>
<path d="M187.223 36.9006C184.773 39.7006 181.833 43.6006 179.223 48.6406C176.773 53.3806 175.333 57.7606 174.453 61.2406" stroke="#876440" stroke-width="3" stroke-miterlimit="10" stroke-linecap="round"/>
<path d="M201.963 37.4106C199.513 40.2106 196.573 44.1107 193.963 49.1507C191.513 53.8906 190.073 58.2707 189.193 61.7507" stroke="#876440" stroke-width="3" stroke-miterlimit="10" stroke-linecap="round"/>
<path d="M205.993 46.4806C201.563 45.1806 195.603 43.9106 188.503 43.6706C182.183 43.4606 176.753 44.1206 172.543 44.9506" stroke="#876440" stroke-width="3" stroke-miterlimit="10" stroke-linecap="round"/>
<path d="M203.023 56.1706C198.593 54.8706 192.633 53.6006 185.533 53.3606C179.213 53.1506 173.783 53.8106 169.573 54.6406" stroke="#876440" stroke-width="3" stroke-miterlimit="10" stroke-linecap="round"/>
<path d="M314.053 80.8306C312.243 79.1706 309.743 77.1906 306.493 75.4306C303.443 73.7806 300.623 72.8006 298.383 72.2106" stroke="#876440" stroke-width="2" stroke-miterlimit="10" stroke-linecap="round"/>
<path d="M313.733 90.7807C311.923 89.1207 309.423 87.1406 306.173 85.3806C303.123 83.7306 300.303 82.7506 298.063 82.1606" stroke="#876440" stroke-width="2" stroke-miterlimit="10" stroke-linecap="round"/>
<path d="M307.893 93.5007C308.733 90.5107 309.543 86.4806 309.703 81.6906C309.843 77.4206 309.413 73.7606 308.883 70.9106" stroke="#876440" stroke-width="2" stroke-miterlimit="10" stroke-linecap="round"/>
<path d="M301.653 91.5007C302.493 88.5107 303.303 84.4806 303.463 79.6906C303.603 75.4206 303.173 71.7606 302.643 68.9106" stroke="#876440" stroke-width="2" stroke-miterlimit="10" stroke-linecap="round"/>
<path d="M268.303 112.031C269.113 114.341 269.953 117.431 270.293 121.111C270.613 124.571 270.403 127.541 270.063 129.831" stroke="#876440" stroke-width="2" stroke-miterlimit="10" stroke-linecap="round"/>
<path d="M259.023 108.421C259.833 110.731 260.673 113.821 261.013 117.501C261.333 120.961 261.123 123.931 260.783 126.221" stroke="#876440" stroke-width="2" stroke-miterlimit="10" stroke-linecap="round"/>
<path d="M254.223 112.721C257.303 113.131 261.323 113.961 265.793 115.701C269.773 117.251 272.973 119.091 275.373 120.691" stroke="#876440" stroke-width="2" stroke-miterlimit="10" stroke-linecap="round"/>
<path d="M253.613 119.241C256.693 119.651 260.713 120.481 265.183 122.221C269.163 123.771 272.363 125.611 274.763 127.211" stroke="#876440" stroke-width="2" stroke-miterlimit="10" stroke-linecap="round"/>
<path d="M326.123 129.671C326.173 127.811 326.233 125.951 326.283 124.101C300.833 110.971 264.393 95.7807 218.633 87.7207C187.463 82.2307 159.733 81.4007 137.273 82.3607C136.503 84.1807 135.743 85.9907 134.973 87.8107C151.913 87.1407 170.633 87.5007 190.793 89.6307C247.743 95.6407 293.723 113.401 326.123 129.671Z" fill="#971C00"/>
<path d="M77.7028 125.601C75.9528 127.641 73.8528 130.481 71.9928 134.171C70.2428 137.631 69.2128 140.821 68.5928 143.361" stroke="#876440" stroke-width="2" stroke-miterlimit="10" stroke-linecap="round"/>
<path d="M88.2228 125.971C86.4728 128.011 84.3728 130.851 82.5128 134.541C80.7628 138.001 79.7328 141.191 79.1128 143.731" stroke="#876440" stroke-width="2" stroke-miterlimit="10" stroke-linecap="round"/>
<path d="M91.1027 132.581C87.9327 131.631 83.6827 130.711 78.6127 130.531C74.1027 130.381 70.2227 130.861 67.2227 131.461" stroke="#876440" stroke-width="2" stroke-miterlimit="10" stroke-linecap="round"/>
<path d="M88.9825 139.651C85.8125 138.701 81.5625 137.781 76.4925 137.601C71.9825 137.451 68.1025 137.931 65.1025 138.531" stroke="#876440" stroke-width="2" stroke-miterlimit="10" stroke-linecap="round"/>
<path d="M363.793 191.941C364.293 193.631 364.803 195.881 364.943 198.591C365.073 201.141 364.853 203.341 364.563 205.041" stroke="#876440" stroke-width="1.5" stroke-miterlimit="10" stroke-linecap="round"/>
<path d="M357.473 189.501C357.973 191.191 358.483 193.441 358.623 196.151C358.753 198.701 358.533 200.901 358.243 202.601" stroke="#876440" stroke-width="1.5" stroke-miterlimit="10" stroke-linecap="round"/>
<path d="M354.043 192.801C356.163 193.031 358.913 193.541 361.963 194.711C364.673 195.761 366.833 197.031 368.463 198.161" stroke="#876440" stroke-width="1.5" stroke-miterlimit="10" stroke-linecap="round"/>
<path d="M353.463 197.631C355.583 197.861 358.333 198.371 361.383 199.541C364.093 200.591 366.253 201.861 367.883 202.991" stroke="#876440" stroke-width="1.5" stroke-miterlimit="10" stroke-linecap="round"/>
</svg>
