<svg width="483" height="558" viewBox="0 0 483 558" fill="none" xmlns="http://www.w3.org/2000/svg">
<path d="M353.55 170.54C352.86 187.64 352.52 196.19 351.51 202.88C350.11 212.1 347.82 227.28 337.92 243.41C336.16 246.28 327.75 259.61 311.34 271.31C298.43 280.51 287.15 283.99 271.51 288.67C244.98 296.61 222.6 298 210.23 298.2C183.68 298.64 164.85 294.27 159.23 292.88C142.46 288.73 134.08 284.1 131.94 282.88C119.14 275.62 111.61 267 104.9 259.18C97.48 250.54 85.35 236.09 78.49 213.43C73.18 195.88 73.49 181.52 73.72 173.6C73.95 165.91 74.54 150.4 81.55 132.07C89.82 110.44 102.37 97.01 110.49 88.5C129.12 68.96 147.85 59.71 151.68 57.86C156.39 55.59 174.1 47.39 199 44.92C211.5 43.68 229.81 43.48 250.74 49.01C254 49.87 269.37 54.05 287.51 64.33C297.79 70.16 310.7 77.63 323.25 91.9C333.15 103.16 338.08 113.25 344.12 125.63C351.41 140.57 352.95 148.56 353.55 153.86C353.85 156.45 354.01 159.24 353.55 170.54Z" fill="url(#paint0_radial_24_756)" stroke="#B4FBFF" stroke-width="5" stroke-miterlimit="10"/>
<path d="M349.21 231.73C348.55 232.94 347.35 234.74 345.3 236.16C339.93 239.86 333.42 237.78 331.77 237.18C326.94 235.41 324.33 231.85 322.49 229.27C318.7 223.94 317.83 219.03 316.28 210.21C315.53 205.93 314.37 199.15 314.92 190.21C315.28 184.22 316.26 179.72 317.05 176.17C318.41 170.03 319.24 166.27 321.54 161.64C323.62 157.45 326.17 152.31 331.94 148.76C333.6 147.74 337.43 145.45 342.58 145.44C352.29 145.42 358.49 153.48 359.35 154.63C355.97 180.32 352.59 206.03 349.21 231.73Z" fill="#2B4769"/>
<path d="M355.81 152.07C359.39 152.83 361.57 155.18 363.6 157.43C364.47 158.4 367.67 162.09 370.11 169.94C372.02 176.08 372.29 180.97 372.54 185.9C372.79 191.09 373.06 196.43 371.77 203.39C370.9 208.13 368.94 215.59 364.11 223.18C360.73 228.48 358.4 230 357.09 230.71C356.22 231.18 350.99 233.91 345.35 231.99C340.51 230.34 338.16 226.26 336.03 222.42C335.01 220.58 332.48 215.65 331.18 204.8C329.41 190.02 331.71 179.22 332.58 175.57C334.19 168.86 336.1 164.9 338.3 161.68C342 156.25 345.54 154.35 346.5 153.87C348.3 152.94 351.73 151.2 355.81 152.07Z" fill="#EDE6DA"/>
<path d="M367.25 162.88C367.65 163.7 368.05 164.52 368.45 165.34C366.25 166.06 352.64 170.75 347 184.66C342.85 194.9 343.29 209.43 352.36 217.94C356.26 221.59 360.69 223.14 363.66 223.86C362.88 224.92 362.1 225.97 361.32 227.03C358.37 226 353.96 223.99 349.97 219.99C341.25 211.23 339.49 197.87 342.48 187.31C347.68 168.99 366.01 163.25 367.25 162.88Z" fill="#ACADAF"/>
<path d="M307.43 112.83C305.26 112.34 304.14 110.91 302.15 108.92C300.07 106.83 297.62 105.15 295.46 103.15C290.1 98.18 284.45 93.65 281.74 91.48C275.01 86.08 270.25 82.96 264.7 76.24C262.62 73.72 261.12 71.54 261.81 70.45C262.73 68.98 267.19 70.23 270.32 71.13C277.15 73.1 282.15 75.91 284.96 77.6C290 80.63 294.32 83.22 299.26 87.98C305.42 93.92 308.01 98.88 310.49 103.64C312.81 108.07 313.41 110.45 312.36 111.81C311.32 113.16 308.9 113.17 307.43 112.83Z" fill="#FEFDFB"/>
<path d="M107 120.66C105.89 120.16 105.48 118.69 105.21 117.72C104.61 115.57 105.03 113.36 106.49 110.32C108.66 105.78 111.47 102.82 112.62 101.64C117.52 96.57 120.92 93.05 127.17 87.98C127.17 87.98 132.69 83.63 140.32 79.81C140.32 79.81 142.66 78.67 146.06 78.66C147.61 78.66 148.35 78.91 148.72 79.45C149.18 80.12 148.95 81.07 148.61 81.98C147.25 85.7 144.91 87.72 144.91 87.72C140.03 91.93 135.59 96.62 130.74 100.87C127.56 103.66 124.45 106.68 118.23 112.74C112.82 118.02 109.25 121.69 107 120.66Z" fill="#FEFDFB"/>
<path d="M90.4101 160.75C88.9901 160.4 88.5601 157.44 88.4501 156.66C88.2401 155.17 88.4001 154 88.4501 153.68C89.5301 146.49 91.9401 141.08 91.9401 141.08C93.9901 136.48 95.3301 135.2 96.4501 134.44C98.2401 133.23 99.5901 133.29 100.02 133.33C100.39 133.37 101.81 133.5 102.57 134.52C103.21 135.37 103.17 136.54 102.48 138.95C101.69 141.75 100.78 143.57 99.9301 145.42C99.4001 146.57 98.5601 148.6 96.8701 152.65C95.8001 155.22 95.0701 157.04 93.3001 158.95C92.4301 159.89 91.3901 160.99 90.4101 160.75Z" fill="#FEFDFB"/>
<defs>
<radialGradient id="paint0_radial_24_756" cx="0" cy="0" r="1" gradientUnits="userSpaceOnUse" gradientTransform="translate(213.728 171.213) scale(133.722 133.722)">
<stop offset="0.5744" stop-color="white" stop-opacity="0"/>
<stop offset="0.7212" stop-color="#F0FEFF" stop-opacity="0.3277"/>
<stop offset="1" stop-color="#C9FCFF" stop-opacity="0.95"/>
</radialGradient>
</defs>
</svg>
