<svg width="483" height="558" viewBox="0 0 483 558" fill="none" xmlns="http://www.w3.org/2000/svg">
<path d="M206.436 474.39C206.686 478.86 206.686 482.66 206.616 485.61C206.616 485.61 206.436 492.2 205.556 497.39C205.326 498.77 204.876 500.57 204.566 501.63C204.436 502.06 204.336 502.39 204.236 502.65C203.976 503.37 203.706 503.97 203.366 504.7C202.706 506.14 202.376 506.55 201.976 506.87C201.226 507.47 200.386 507.64 199.856 507.7C193.336 508.64 187.916 509.14 184.086 509.42C176.036 510.02 163.996 510.86 148.886 509.16C143.366 508.54 138.906 507.75 136.026 507.18C135.346 507.04 134.226 506.72 133.246 505.84C132.236 504.94 131.846 503.87 131.526 502.84C130.826 500.6 130.116 498.35 130.056 494.8C130.016 492.95 129.996 490.87 130.736 488.23C130.976 487.38 131.636 485.23 133.126 482.93C135.906 478.65 139.836 476.58 141.796 475.71C141.646 474.75 141.486 473.79 141.336 472.83C142.496 473.13 144.246 473.55 146.396 473.98C158.346 476.36 167.156 475.2 177.796 475.21C185.586 475.23 195.266 475.05 206.436 474.39Z" fill="#76461D"/>
<path d="M146.446 479.87C145.226 477.04 145.116 474.69 145.166 473.36C145.256 470.96 145.916 470 146.186 469.66C146.976 468.64 148.016 468.2 148.616 468C158.106 468.26 167.596 468.51 177.086 468.77C177.266 468.8 178.556 469.06 179.256 470.3C179.866 471.39 179.576 472.47 179.516 472.67C179.696 474.14 179.816 477 178.356 480C177.846 481.04 177.256 481.89 176.696 482.55C166.616 481.66 156.536 480.76 146.446 479.87Z" fill="#76461D"/>
<path d="M289.116 473.98C288.976 479.91 288.876 484.64 288.786 489.27C288.786 489.27 288.666 495.52 287.766 501.05C287.546 502.43 287.106 504.23 286.806 505.29C286.686 505.72 286.576 506.05 286.486 506.31C286.236 507.03 285.976 507.63 285.656 508.36C285.026 509.8 284.696 510.21 284.316 510.53C283.596 511.13 282.776 511.3 282.276 511.36C275.996 512.3 270.776 512.8 267.086 513.08C259.336 513.68 247.746 514.52 233.196 512.82C227.886 512.2 223.576 511.41 220.816 510.84C220.166 510.7 219.086 510.38 218.136 509.5C217.166 508.6 216.786 507.53 216.476 506.5C215.796 504.26 215.126 502.01 215.056 498.46C215.026 496.61 214.996 494.53 215.706 491.89C215.986 490.83 216.546 488.82 218.006 486.59C219.706 483.99 221.756 482.4 223.146 481.51C222.846 480.33 222.546 479.16 222.246 477.98C225.046 478.02 227.846 478.06 230.646 478.1C240.116 478.21 250.366 477.95 261.286 477.14C271.196 476.41 280.496 475.3 289.116 473.98Z" fill="#76461D"/>
<path d="M227.766 483.45C226.396 480.69 226.156 478.35 226.136 477.02C226.096 474.62 226.706 473.63 226.956 473.27C227.686 472.21 228.706 471.71 229.286 471.48C238.776 471.21 248.266 470.94 257.756 470.68C257.936 470.7 259.246 470.88 260.006 472.09C260.676 473.15 260.446 474.24 260.406 474.44C260.666 475.9 260.946 478.75 259.656 481.82C259.206 482.89 258.656 483.77 258.136 484.46C248.006 484.12 237.886 483.78 227.766 483.45Z" fill="#76461D"/>
<path d="M218.686 485.61C219.186 484.95 219.826 484.21 220.626 483.46C221.516 482.63 222.376 481.99 223.126 481.51C225.486 480.85 229.276 480.12 233.816 480.78C242.276 482 247.586 487.17 249.336 489.04C245.076 486.72 241.266 485.49 238.536 484.8C236.026 484.17 233.046 483.44 229.086 483.52C224.576 483.62 220.966 484.72 218.686 485.61Z" fill="#61360B"/>
<path d="M134.596 480.96C134.936 480.57 135.306 480.18 135.706 479.79C137.736 477.81 139.916 476.55 141.776 475.72C144.136 475.25 148.976 474.6 154.666 476.32C160.996 478.22 164.916 481.99 166.556 483.77C164.466 482.58 161.436 481.09 157.606 479.96C154.836 479.14 150.936 478.02 145.796 478.27C141.236 478.48 137.436 479.7 134.596 480.96Z" fill="#61360B"/>
<path d="M288.756 490.1C286.146 490.16 281.466 490.64 276.586 493.42C267.616 498.55 264.896 507.55 264.326 509.63" stroke="#61360B" stroke-width="1.76" stroke-miterlimit="10" stroke-dasharray="4 4"/>
<path d="M284.946 511.29C284.406 511.71 283.866 511.9 283.506 512C280.746 512.37 277.046 512.83 272.656 513.24C268.506 513.63 262.966 514.14 256.056 514.29C245.026 514.53 236.766 514.77 226.416 512.47C223.566 511.84 221.256 511.18 219.746 510.71C218.406 510.18 217.746 509.4 217.446 508.99C217.066 508.46 216.886 507.95 216.586 507.08C216.286 506.19 216.096 505.43 215.986 504.88C221.106 505.91 228.206 507.09 236.746 507.74C249.716 508.72 259.776 507.97 267.046 507.4C275.146 506.77 281.916 505.82 286.866 505.01C287.006 506.22 286.866 507.2 286.736 507.82C286.526 508.84 286.206 510.32 284.946 511.29Z" fill="#3D2614"/>
<path d="M206.616 486.95C204.006 487.01 199.326 487.49 194.446 490.27C185.476 495.4 182.756 504.4 182.186 506.48" stroke="#61360B" stroke-width="1.76" stroke-miterlimit="10" stroke-dasharray="4 4"/>
<path d="M204.036 505.51C203.706 505.88 203.246 506.31 202.646 506.7C201.356 507.53 200.086 507.75 199.356 507.82C196.596 508.19 192.896 508.65 188.506 509.06C184.356 509.45 178.816 509.96 171.906 510.11C156.206 510.45 144.776 508.69 142.266 508.29C139.336 507.82 136.926 507.35 135.316 507.01C135.046 506.93 134.656 506.79 134.226 506.55C133.986 506.41 132.936 505.79 132.176 504.49C131.966 504.14 131.696 503.59 131.526 502.86C131.316 502.16 131.106 501.45 130.896 500.75C136.946 501.9 144.256 502.98 152.596 503.56C155.496 503.76 167.246 504.51 182.896 503.22C189.206 502.7 196.646 501.8 204.956 500.24C204.916 501.39 204.776 502.71 204.436 504.13C204.306 504.61 204.176 505.07 204.036 505.51Z" fill="#3D2614"/>
<path d="M196.856 474.81C196.896 477.13 196.936 479.46 196.986 481.81C197.036 484.24 197.106 486.65 197.176 489.04" fill="#3D2614"/>
<path d="M196.856 474.81C196.896 477.13 196.936 479.46 196.986 481.81C197.036 484.24 197.106 486.65 197.176 489.04" stroke="#61360B" stroke-width="2" stroke-miterlimit="10"/>
<path d="M278.866 475.59C278.906 478.25 278.946 480.92 278.996 483.61C279.046 486.39 279.116 489.16 279.186 491.9" fill="#3D2614"/>
<path d="M278.866 475.59C278.906 478.25 278.946 480.92 278.996 483.61C279.046 486.39 279.116 489.16 279.186 491.9" stroke="#61360B" stroke-width="2" stroke-miterlimit="10"/>
<path d="M178.456 481.17C178.796 479.46 179.166 477.55 179.596 475.23C179.716 474.56 179.756 473.24 179.626 471.59C179.606 471.34 179.496 470.37 178.696 469.59C178.076 468.99 177.366 468.82 177.086 468.77C167.596 468.51 158.106 468.26 148.616 468C148.096 468.16 147.306 468.5 146.596 469.21C144.856 470.94 145.116 473.38 145.156 473.75" stroke="#61360B" stroke-width="2" stroke-miterlimit="10"/>
<path d="M259.656 484.06C260.306 481.54 260.686 479.42 260.916 477.82C261.006 477.22 260.986 475.87 260.776 474.19C260.746 473.94 260.596 472.98 259.746 472.24C259.096 471.67 258.386 471.53 258.096 471.5C248.606 471.7 239.116 471.89 229.626 472.09C229.116 472.28 228.346 472.65 227.666 473.39C226.016 475.2 226.386 477.63 226.446 477.99" stroke="#61360B" stroke-width="2" stroke-miterlimit="10"/>
<path d="M261.586 477.53C264.406 477.4 267.276 477.23 270.206 477.02C276.676 476.55 282.886 475.89 288.816 475.11" stroke="#61360B" stroke-width="2" stroke-miterlimit="10"/>
<path d="M180.076 475.49C182.856 475.36 185.646 475.24 188.436 475.12C194.456 474.86 200.466 474.62 206.446 474.4" stroke="#61360B" stroke-width="2" stroke-miterlimit="10"/>
<path d="M145.706 472.58C144.276 472.83 142.846 473.09 141.416 473.34" stroke="#61360B" stroke-width="2" stroke-miterlimit="10"/>
<path d="M226.866 476.83C225.366 477.39 223.856 477.94 222.356 478.5" stroke="#61360B" stroke-width="2" stroke-miterlimit="10"/>
<path d="M186.416 489.14C189.222 489.14 191.496 486.866 191.496 484.06C191.496 481.255 189.222 478.98 186.416 478.98C183.61 478.98 181.336 481.255 181.336 484.06C181.336 486.866 183.61 489.14 186.416 489.14Z" fill="#3D2614"/>
<path d="M269.576 491.33C272.382 491.33 274.656 489.056 274.656 486.25C274.656 483.444 272.382 481.17 269.576 481.17C266.771 481.17 264.496 483.444 264.496 486.25C264.496 489.056 266.771 491.33 269.576 491.33Z" fill="#3D2614"/>
</svg>
