<svg width="483" height="558" viewBox="0 0 483 558" fill="none" xmlns="http://www.w3.org/2000/svg">
<path d="M265.17 392.87C264.83 394.35 264.49 395.83 264.16 397.31C268.86 398.7 274.87 400.16 281.95 401.1C287.08 401.78 297.38 402.8 310.37 401.39C315.46 400.84 321.71 399.83 328.72 397.95C328.83 396.92 328.94 395.89 329.05 394.86C322.35 394.59 315.66 394.32 308.96 394.05C294.37 393.66 279.77 393.26 265.17 392.87Z" fill="#B7BCB8"/>
<path d="M125.97 387.74C123.21 387.72 120.08 387.53 116.65 387.04C113.48 386.59 110.63 385.96 108.13 385.28C107.98 386.38 107.84 387.48 107.69 388.59C109.87 389.24 112.41 389.84 115.25 390.24C119.45 390.83 123.19 390.84 126.23 390.62C126.14 389.65 126.05 388.69 125.97 387.74Z" fill="#B7BCB8"/>
<path d="M262.35 379.89C262.01 384.32 261.67 388.74 261.33 393.17C269.94 395.95 282.51 398.93 297.84 398.96C310.53 398.98 321.2 396.98 329.05 394.87C329.4 392.99 329.66 390.56 329.5 387.72C329.37 385.51 329.01 383.58 328.61 382.02C319.5 383.76 307.68 385.14 293.93 384.57C281.46 384.05 270.77 382.06 262.35 379.89Z" fill="#FAFAE9"/>
<path d="M109.05 377.33C108.41 380.22 107.77 383.12 107.14 386.01C108.83 386.58 110.67 387.1 112.63 387.54C119.65 389.11 125.95 389.04 130.89 388.5C131.42 385.88 131.95 383.27 132.49 380.65C129.07 381.32 123.48 381.93 116.98 380.33C113.78 379.55 111.12 378.42 109.05 377.33Z" fill="#FAFAE9"/>
<path d="M285.48 274C291.52 279.69 299.51 288.25 306.96 299.97C317.37 316.35 321.61 330.85 324.59 341.33C327.55 351.73 330.66 366.09 331.48 383.54C328.93 384.35 326.14 385.15 323.14 385.87C323.14 385.87 316.3 387.52 309.62 388.31C301.73 389.24 285.69 388.72 265.55 384.13C265.66 385.74 265.76 387.96 265.68 390.61C265.66 391.14 265.62 392.51 265.42 394.87C265.1 398.8 264.67 401.65 264.57 402.44C264.34 404.16 263.39 411.36 266.44 417.42C269.42 423.34 275.1 425.96 279.46 427.97C284.58 430.33 289.21 431.05 292.14 431.29C291.25 447.03 290.37 462.77 289.48 478.5C281.83 479.63 273.72 480.58 265.19 481.24C250.09 482.42 236.06 482.54 223.33 482.03C221.62 475.6 220.05 468.33 218.91 460.3C217.97 453.64 217.45 447.42 217.22 441.73C214.13 441.38 211.04 441.02 207.95 440.67C207.98 446.46 207.91 452.44 207.71 458.6C207.46 466.38 207.03 473.86 206.46 481.04C199.04 481.32 191.14 481.34 182.8 480.98C167.82 480.34 154.19 478.62 142.14 476.41C139.69 467.19 138.57 459.58 138.01 454.17C137.54 449.66 137.3 445.08 136.99 439.36C136.61 432.39 136.48 427.18 136.45 426.05C136.31 420.54 136.23 413.49 136.42 405.24C134.86 405.12 133.05 404.88 131.07 404.41C129.53 404.04 128.16 403.6 126.96 403.14C126.71 399.66 126.58 395.87 126.65 391.81C126.71 388.58 126.9 385.53 127.16 382.68C123.51 382.89 118.3 382.75 112.39 381.02C109.07 380.05 106.27 378.8 104.04 377.59C104.88 372.55 106.19 365.84 108.27 358.04C111.68 345.24 115.47 335.95 118.61 328.3C123.09 317.39 125.34 311.94 129.72 304.94C134.46 297.36 139.63 291.2 141.72 288.73C144.86 285.02 147.68 282.02 149.81 279.84C161.76 283.05 175.75 285.77 191.48 286.94C231.29 289.9 264.14 281.58 285.48 274Z" fill="#4C555B"/>
<path d="M161.1 282.61C162.95 292.69 165.71 304.18 169.88 316.57C174.47 330.2 179.75 341.96 184.85 351.74C194.39 341.21 204.49 330.48 215.2 319.63C228.22 306.43 241.08 294.1 253.65 282.61C239.73 285.36 222.18 287.54 201.92 287.07C186.38 286.72 172.63 284.89 161.1 282.61Z" fill="#FAFAE9"/>
<path d="M206.51 480.61C207.05 473.66 207.47 466.43 207.72 458.93C207.93 452.68 208.01 446.6 207.99 440.72C211.01 441.06 214.03 441.4 217.05 441.74C217.2 440.17 217.35 438.59 217.5 437.02C210.72 436.76 202.45 435.88 193.27 433.64C185.87 431.84 179.45 429.54 174.12 427.26C176.9 432.81 180.31 435.71 182.94 437.35C186.36 439.48 189.01 439.79 193 443.09C194.13 444.02 196.27 445.83 198.1 448.71C200.43 452.38 200.95 455.73 201.54 459.94C201.77 461.53 201.87 462.78 201.92 463.84C202.13 468.41 202.17 469.91 202.37 471.55C202.62 473.75 203.52 476.89 206.51 480.61Z" fill="#303438"/>
<path d="M136.43 405.25C141.57 407.24 147.45 409.2 154.02 410.87C160.17 412.43 165.9 413.48 171.08 414.19C175.65 410.06 180.22 405.93 184.79 401.81C183.76 400.54 182.25 398.33 181.31 395.24C180.37 392.12 180.43 389.45 180.59 387.84C180.79 377.56 180.98 367.29 181.18 357.01C181.49 356.23 181.94 355.28 182.62 354.29C183.49 353.01 184.44 352.08 185.2 351.44C184.59 352.27 183.78 353.57 183.28 355.31C182.91 356.57 182.81 357.69 182.8 358.54C182.74 367.76 182.68 376.98 182.63 386.2C182.53 387.52 182.52 389.44 183.07 391.65C183.58 393.71 184.45 395.56 186.92 399.05C188.79 401.7 191.02 404.49 194.97 408.75C196.64 410.55 198.96 412.98 201.86 415.79C207.61 416.08 213.7 416.17 220.1 415.98C236.85 415.47 251.76 413.15 264.45 410.2C264.54 411.08 264.69 412.07 264.95 413.14C265.32 414.67 265.81 415.98 266.29 417.05C260.2 418.47 253.65 419.73 246.67 420.71C229.65 423.1 214.25 423.23 201.14 422.37C198.1 420.25 194.51 417.31 191.04 413.31C189.2 411.18 187.68 409.1 186.45 407.18C183.85 409.78 180.89 412.5 177.53 415.22C175.34 417 173.18 418.61 171.1 420.07C166.29 420.01 160.76 419.63 154.7 418.67C147.69 417.55 141.57 415.91 136.47 414.2C136.45 411.21 136.44 408.23 136.43 405.25Z" fill="#303438"/>
<path d="M193.37 368.71C195.259 368.71 196.79 367.291 196.79 365.54C196.79 363.789 195.259 362.37 193.37 362.37C191.481 362.37 189.95 363.789 189.95 365.54C189.95 367.291 191.481 368.71 193.37 368.71Z" fill="#242626"/>
<path d="M193.37 386.47C195.259 386.47 196.79 385.051 196.79 383.3C196.79 381.549 195.259 380.13 193.37 380.13C191.481 380.13 189.95 381.549 189.95 383.3C189.95 385.051 191.481 386.47 193.37 386.47Z" fill="#242626"/>
<path d="M322.33 380.41C324.219 380.41 325.75 378.991 325.75 377.24C325.75 375.489 324.219 374.07 322.33 374.07C320.441 374.07 318.91 375.489 318.91 377.24C318.91 378.991 320.441 380.41 322.33 380.41Z" fill="#242626"/>
<path d="M274.94 277.41C276.08 277.05 277.23 276.69 278.37 276.34C277.31 282.43 275.57 289.55 272.71 297.26C270.81 302.36 268.72 306.91 266.65 310.88C259.85 311.19 253.06 311.5 246.26 311.82C248.31 316.16 250.36 320.5 252.41 324.84C240.3 333.44 229.54 339.12 221.64 342.8C213.86 346.42 206.94 349.02 203.09 350.46C195.06 353.45 188.02 355.66 182.49 357.26C182.52 356.79 182.55 356.32 182.58 355.86C185.2 355.15 188.78 354.11 192.97 352.68C201.02 349.94 206.8 347.29 211.73 345.02C222.03 340.29 229.53 336.02 235.24 332.76C240.78 329.6 245.39 326.77 248.83 324.59C246.66 319.43 244.48 314.26 242.31 309.1C249.81 308.67 257.31 308.25 264.81 307.82C265.5 306.41 266.19 304.96 266.87 303.46C266.87 303.46 267.94 301.08 268.85 298.8C270.15 295.56 272.55 287.85 274.94 277.41Z" fill="#303438"/>
<path d="M149.63 279.85C147.83 287.16 146.04 294.48 144.24 301.79C146.52 302.75 148.84 303.71 151.2 304.66C152.98 305.38 154.75 306.08 156.5 306.77C154.07 310.09 151.63 313.41 149.2 316.73C153.28 322.26 157.98 328.11 163.39 334.09C170.31 341.74 177.15 348.26 183.53 353.76C183.83 353.31 184.13 352.85 184.42 352.4C183.57 351.58 182.35 350.4 180.88 348.96C178.67 346.79 171.78 340.17 166.95 334.69C161.42 328.41 156.59 322.1 152.36 315.9C155.02 312.45 157.69 309.01 160.35 305.56C156.01 303.84 151.67 302.11 147.33 300.39C148.86 293.75 150.38 287.1 151.91 280.46C151.38 280.32 150.84 280.18 150.3 280.04C150.09 279.97 149.86 279.91 149.63 279.85Z" fill="#303438"/>
<path d="M127.54 403.36C127.72 397.29 128.07 389.63 128.78 380.8C128.78 380.8 129.46 372.5 130.37 364.51C132.7 344.13 137.73 321.45 139.78 312.56C136.94 319.29 133.52 328.51 130.78 339.73C127.63 352.64 126.7 362.77 125.92 371.58C125.21 379.59 124.66 389.99 124.99 402.2C125.84 402.58 126.69 402.97 127.54 403.36Z" fill="#303438"/>
<path d="M264.43 410.2C262.46 410.62 260.49 411.04 258.52 411.47C257.9 408.44 257.23 403.78 257.58 398.1C257.89 393.14 258.77 390.85 259.28 386.44C260.19 378.54 258.88 372.76 258.34 369.33C257.24 362.33 257.1 350.78 261.79 331.14C261.58 340.24 261.79 350.24 262.68 360.99C263.36 369.24 264.36 376.97 265.55 384.13C265.61 384.91 265.67 386 265.7 387.3C265.71 387.9 265.75 390.03 265.55 393.27C265.4 395.69 265.2 397.53 265 399.28C264.62 402.69 264.45 403.16 264.35 404.99C264.22 407.21 264.33 409.02 264.43 410.2Z" fill="#303438"/>
<path d="M278.55 386.65C281.23 387.09 284.8 387.6 289.03 388.01C292.55 388.35 295.71 388.66 300.02 388.68C302.12 388.69 307.46 388.7 313.36 387.79C315.46 387.47 318.01 386.97 318.23 386.93C320.49 386.49 322.4 386.05 323.84 385.71C318.14 386.18 312.2 386.53 306.05 386.74C296.38 387.07 287.19 387 278.55 386.65Z" fill="#303438"/>
<path d="M292.16 431.29C292.06 432.99 291.96 434.68 291.86 436.38C288.81 436.44 284.85 436.14 280.5 434.72C268.69 430.88 262.49 421.61 260.5 418.3C262.43 417.88 264.35 417.46 266.28 417.04C266.88 418.23 267.86 419.88 269.4 421.56C270.88 423.18 272.97 424.93 277.36 426.96C280.5 428.43 285.48 430.33 292.16 431.29Z" fill="#303438"/>
<path d="M181.72 306.86C180.13 303.37 178.54 299.88 176.95 296.39C179.85 292.98 182.76 289.57 185.66 286.16C186.85 286.29 188.09 286.41 189.36 286.5C190.88 286.61 192.35 286.68 193.76 286.71C196.12 290.42 198.49 294.13 200.85 297.84C198.44 301.19 196.03 304.53 193.62 307.88C195.83 316.95 198.04 326.01 200.25 335.08C195.11 340.63 189.97 346.18 184.83 351.73C183.03 348.27 181.23 344.61 179.46 340.77C177.75 337.05 176.18 333.43 174.75 329.92C177.09 322.24 179.4 314.55 181.72 306.86Z" fill="#BE2315"/>
<path d="M199.93 299.14C200.24 298.69 200.56 298.24 200.87 297.8C201.9 299.29 202.94 300.9 203.97 302.61C204.77 303.94 205.5 305.23 206.18 306.49C209.99 304.86 213.83 303.19 217.69 301.48C228.57 296.64 239.08 291.7 249.23 286.68C247.7 288.1 246.18 289.52 244.65 290.94C237.67 294.56 230.27 298.16 222.44 301.68C216.71 304.26 211.1 306.64 205.63 308.83C204.88 307.51 204.11 306.19 203.33 304.86C202.2 302.93 201.06 301.02 199.93 299.14Z" fill="#B7BCB8"/>
<path d="M176.97 296.44C176.11 297.53 175.23 298.72 174.35 300.01C173.7 300.97 173.11 301.91 172.56 302.82C170.99 301.53 169.23 299.88 167.45 297.84C165.49 295.58 164 293.39 162.89 291.5C163.24 293 163.6 294.49 163.95 295.99C164.97 297.35 166.16 298.8 167.53 300.27C169.35 302.23 171.14 303.88 172.81 305.25C173.65 303.89 174.54 302.49 175.49 301.08C176.21 300 176.93 298.96 177.65 297.95C177.43 297.45 177.2 296.95 176.97 296.44Z" fill="#B7BCB8"/>
<path opacity="0.45" d="M285.48 274C287.56 275.96 289.67 278.07 291.78 280.33C292.51 281.11 293.22 281.89 293.9 282.67C275.57 288.75 259.72 292.03 247.92 293.92C229.07 296.93 204.16 300.69 173.33 295.12C160.59 292.82 150.29 289.55 143.25 286.97C144.6 285.5 145.95 284 147.3 282.49C148.09 281.61 148.87 280.73 149.64 279.85C153.22 280.82 158.08 282.02 163.88 283.14C177.21 285.71 187.48 286.3 195.03 286.7C203.97 287.17 214.71 287.7 228.86 286.44C241.78 285.29 251.48 283.19 257.58 281.84C268.68 279.4 278.1 276.54 285.48 274Z" fill="#5D605F"/>
<path d="M289.136 477.633C288.966 480.393 288.826 482.643 288.736 484.163C288.526 487.723 288.276 491.633 288.006 495.843C287.916 497.333 287.786 499.343 287.686 500.793C287.476 502.033 287.026 503.713 285.976 505.433C285.106 506.873 284.166 507.753 283.916 507.993C283.166 508.683 282.366 509.233 281.056 509.923C279.676 510.653 277.596 511.603 274.816 512.383C268.616 513.263 263.886 513.513 260.706 513.563C258.646 513.603 255.686 513.583 255.216 513.583C253.186 513.573 251.076 513.523 246.946 513.423C242.316 513.313 238.926 513.213 235.516 512.983C235.236 512.963 234.996 512.943 234.796 512.933C231.946 512.723 229.566 512.483 227.896 512.303C226.916 512.213 225.716 512.023 224.396 511.623C223.396 511.323 222.526 510.953 221.806 510.603C220.896 509.933 219.626 508.843 218.446 507.233C218.006 506.633 215.816 503.553 215.436 498.963C215.066 494.493 216.626 491.073 217.466 489.303C219.496 485.033 222.476 482.453 224.236 481.153C225.126 478.783 226.416 477.373 227.286 476.603C231.856 472.543 239.796 472.753 244.226 476.693C245.596 477.913 246.396 479.283 246.866 480.263C251.896 480.413 257.216 480.403 262.776 480.173C272.326 479.803 281.146 478.863 289.136 477.633Z" fill="#1C1F21"/>
<path d="M206.636 478.823C206.266 482.543 206.156 485.223 206.126 487.033C206.116 487.803 206.106 489.463 205.756 491.613C205.506 493.173 205.196 494.253 205.076 494.633C204.566 496.353 203.966 497.613 203.706 498.123C203.316 498.913 202.596 500.333 201.266 501.933C199.776 503.723 198.356 504.723 198.006 504.973C196.886 505.753 196.026 506.123 195.726 506.243C195.306 506.413 194.806 506.583 193.846 506.823C191.996 507.273 190.526 507.453 190.276 507.483C188.556 507.683 186.316 507.923 183.686 508.123C178.206 508.553 173.536 508.653 169.986 508.653C167.316 508.653 163.996 508.583 160.196 508.373C157.966 508.243 155.826 508.123 152.966 507.773C151.176 507.563 148.636 507.203 145.566 506.593C139.716 505.423 137.646 504.433 136.256 503.593C135.096 502.893 134.116 502.103 133.286 501.003C132.366 499.783 131.976 498.653 131.726 497.903C130.916 495.503 131.016 493.473 131.086 492.283C131.356 487.493 133.456 484.133 134.006 483.283C135.396 481.163 136.906 479.853 137.666 479.203C139.326 477.783 140.936 476.863 142.146 476.283C142.446 475.573 142.976 474.533 143.906 473.533C147.866 469.293 156.246 468.683 160.376 472.723C161.076 473.413 161.926 474.493 162.506 476.173C168.396 477.483 175.286 478.613 183.016 479.153C191.956 479.793 199.936 479.483 206.636 478.823Z" fill="#1C1F21"/>
<path d="M145.006 484.673C143.136 484.693 140.636 484.733 138.766 486.623C137.036 488.373 136.106 491.373 137.086 492.323C137.816 493.033 139.196 492.203 144.996 490.063C150.616 487.993 152.156 487.733 152.146 486.983C152.126 485.783 148.236 484.633 145.006 484.673Z" fill="white"/>
<path d="M235.626 491.583C235.706 490.543 225.466 486.873 222.136 490.763C220.746 492.383 220.646 495.233 221.646 495.923C222.686 496.633 224.346 494.633 228.536 493.113C232.926 491.533 235.586 492.113 235.626 491.583Z" fill="white"/>
</svg>
