<svg width="483" height="558" viewBox="0 0 483 558" fill="none" xmlns="http://www.w3.org/2000/svg">
<path d="M288.37 373.234C289.53 379.204 298.67 424.584 320.03 443.704C322.79 446.174 328.24 451.054 336.88 453.404C349.67 456.884 360.57 452.394 363.43 451.104C376.3 445.314 382.22 434.274 384.88 429.144C387 425.054 388.51 420.924 393.56 384.464C395.56 370.024 396.15 365.104 399.43 357.914C402.44 351.314 406.47 342.494 415.96 337.554C424.23 333.244 438.45 330.944 448.43 339.654C456.85 347.004 458.33 358.794 456.45 366.544C455.55 370.254 453.31 375.374 449.91 379.884C447.51 383.064 445.4 384.784 442.52 389.484C442.17 390.054 440.44 392.894 438.83 396.714C435.5 404.634 434.89 411.504 434.41 415.104C433.16 424.464 430.13 431.114 425.47 441.654C421.71 450.184 417.91 458.794 409.64 467.694C407.03 470.504 398.94 478.754 385.64 484.804C371.44 491.254 359.01 491.694 354.49 491.694C342.26 491.714 333.2 488.664 327.94 486.844C322.44 484.944 313.94 481.914 304.96 474.844C296.88 468.474 292.44 461.994 287.6 454.934C283.71 449.254 279.09 441.504 275.04 431.684C279.48 412.204 283.92 392.714 288.37 373.234Z" fill="#D5D0C6"/>
<path d="M288.37 373.234C289.53 379.204 298.67 424.584 320.03 443.704C322.79 446.174 328.24 451.054 336.88 453.404C349.67 456.884 360.57 452.394 363.43 451.104C376.3 445.314 382.22 434.274 384.88 429.144C387 425.054 388.51 420.924 393.56 384.464C395.56 370.024 396.15 365.104 399.43 357.914C402.44 351.314 406.47 342.494 415.96 337.554C424.23 333.244 438.45 330.944 448.43 339.654C456.85 347.004 458.33 358.794 456.45 366.544C455.55 370.254 453.31 375.374 449.91 379.884C447.51 383.064 445.4 384.784 442.52 389.484C442.17 390.054 440.44 392.894 438.83 396.714C435.5 404.634 434.89 411.504 434.41 415.104C433.16 424.464 430.13 431.114 425.47 441.654C421.71 450.184 417.91 458.794 409.64 467.694C407.03 470.504 398.94 478.754 385.64 484.804C371.44 491.254 359.01 491.694 354.49 491.694C342.26 491.714 333.2 488.664 327.94 486.844C322.44 484.944 313.94 481.914 304.96 474.844C296.88 468.474 292.44 461.994 287.6 454.934C283.71 449.254 279.09 441.504 275.04 431.684C279.48 412.204 283.92 392.714 288.37 373.234Z" fill="#2A4669"/>
<path d="M305.3 422.454C299.02 423.744 292.73 425.034 286.45 426.324C286.61 435.134 286.76 443.944 286.92 452.754C289.39 457.634 293.51 464.304 300.2 470.704C306.28 476.524 311.95 479.714 315.12 481.464C318 483.054 325.67 487.054 336.51 489.464C341.77 490.634 353.23 493.064 367.88 490.414C372.16 489.634 383.73 487.154 396.03 479.094C404.18 473.754 409.28 468.174 411 466.204C416.39 460.064 419.35 454.554 421.56 450.374C424.14 445.494 427.23 438.624 429.56 429.944C423.72 443.194 416.43 452.424 411.18 458.114C406.6 463.074 400.71 469.364 391.01 474.714C386.45 477.224 375 483.354 358.97 483.394C341.71 483.434 329.72 476.384 322.97 472.414C312.64 466.344 307.92 460.404 305.23 455.694C303.66 452.944 299.63 445.884 302.42 442.034C304.65 438.954 310.74 438.624 311.48 438.584C313.14 438.494 314.51 438.674 315.44 438.844C313.62 436.814 311.57 434.234 309.61 431.054C307.67 427.914 306.29 424.964 305.3 422.454Z" fill="#E86B18"/>
<path d="M438.41 397.774C437.57 394.224 434.04 381.214 421.39 372.074C411.45 364.884 401.25 363.974 397.17 363.834C397.77 360.844 400.89 346.854 413.9 338.714C416.81 336.894 426.97 330.534 438.75 334.034C446.97 336.474 451.44 342.374 452.37 343.654C457.98 351.374 457.38 359.694 457.14 362.374C456.42 370.354 452.47 376.244 451.01 378.374C448.01 382.734 445.45 384.334 441.99 390.284C440.2 393.344 439.07 396.024 438.41 397.774Z" fill="#E86B18"/>
<path d="M305.207 259C305.687 259.06 306.347 259.17 307.257 259.36C307.257 259.36 307.267 259.36 307.277 259.36C314.047 260.74 319.757 264.36 319.757 264.36C321.657 265.57 325.767 268.18 328.947 272.79C333.797 279.82 333.947 287.36 333.797 290.66C333.857 298.37 333.937 306.11 334.057 313.89C334.287 329.67 334.627 345.29 335.077 360.74C335.377 363.83 335.937 373.64 329.457 382.31C327.017 385.57 324.267 387.77 322.057 389.2C317.797 391.35 308.197 395.46 300.357 391.5C296.837 389.72 291.797 385.38 287.587 360.86C283.617 337.71 287.067 335.49 284.017 319.75C278.927 293.49 266.777 286.5 270.997 275.58C273.387 269.4 280.977 262.1 305.207 259Z" fill="#1F354D"/>
<path d="M308.527 265.47C310.827 267.61 314.377 271.45 317.037 277.21C319.597 282.74 320.267 287.73 320.437 290.83C320.837 301.67 321.227 312.5 321.627 323.34C321.857 333.72 322.077 344.11 322.307 354.49C321.177 360.05 320.037 365.61 318.907 371.17C317.257 375.03 315.617 378.89 313.967 382.74C318.187 383.67 322.417 384.61 326.637 385.54C328.497 383.49 331.357 379.83 333.287 374.53C335.217 369.22 335.367 364.57 335.247 361.81C333.837 328.6 334.537 311.96 333.827 288.95C333.757 286.73 333.617 280.88 330.267 274.92C329.977 274.4 328.857 272.45 326.927 270.24C322.777 265.49 317.737 262.82 313.647 261.32C311.947 262.7 310.237 264.08 308.527 265.47Z" fill="#FFFEE9"/>
<path d="M329.907 275.51C322.437 277.24 314.977 278.96 307.507 280.69C307.387 280.71 307.007 280.8 306.737 281.15C306.287 281.73 306.577 282.46 306.587 282.5C307.787 287.69 308.987 292.88 310.177 298.07C310.227 298.52 310.537 298.89 310.947 299C311.417 299.12 311.807 298.83 311.847 298.79C319.177 295.51 326.497 292.24 333.827 288.96C333.947 287.28 333.907 285.1 333.397 282.64C333.397 282.64 332.647 279.12 331.327 276.85C331.267 276.75 331.157 276.58 331.007 276.28C330.827 275.92 330.817 275.8 330.687 275.69C330.567 275.57 330.347 275.46 329.907 275.51Z" fill="#1F1F3B"/>
<path d="M320.257 289.96L318.907 289.29C318.657 289.16 318.357 289.17 318.107 289.31L316.787 290.04C316.167 290.38 315.417 289.87 315.527 289.17L315.747 287.68C315.787 287.4 315.687 287.12 315.487 286.93L314.377 285.9C313.857 285.42 314.117 284.55 314.817 284.43L316.307 284.18C316.587 284.13 316.827 283.95 316.937 283.7L317.577 282.33C317.877 281.69 318.787 281.67 319.117 282.3L319.817 283.64C319.947 283.89 320.197 284.06 320.477 284.09L321.977 284.27C322.677 284.36 322.987 285.21 322.487 285.72L321.427 286.8C321.227 287 321.147 287.29 321.197 287.56L321.487 289.04C321.607 289.73 320.887 290.28 320.257 289.96Z" fill="#E86B18"/>
<path d="M146.267 277.83C148.677 278.54 152.157 279.51 156.377 280.51C160.937 281.6 176.187 285.06 197.037 285.97C202.957 286.23 214.537 286.51 229.137 285.18C248.827 283.38 264.127 279.56 272.477 277.19C280.157 275.02 286.527 272.79 291.207 271.03C293.577 272.07 294.597 273.41 295.087 274.31C296.077 276.15 295.707 277.74 295.427 283.84C295.347 285.68 295.307 287.17 295.277 288.1C296.267 288.75 297.807 289.92 299.167 291.84C300.477 293.7 301.077 295.48 301.357 296.61C303.257 299.25 305.777 302.93 308.457 307.5C310.927 311.7 314.947 318.62 318.417 328.24C320.937 335.23 322.297 341.26 323.307 345.72C324.007 348.79 324.457 351.19 324.827 353.15C325.817 358.38 326.817 364.5 327.657 371.39C328.087 371.58 328.677 371.91 329.287 372.43C331.057 373.96 331.487 375.99 331.927 378.05C331.927 378.05 332.877 382.55 331.587 386.56C331.227 387.69 330.677 388.57 330.677 388.57C330.537 388.87 330.367 389.19 330.167 389.52C329.957 389.88 329.737 390.19 329.527 390.48C329.497 390.97 329.467 391.76 329.427 392.73C329.347 394.82 329.337 396.36 329.337 396.54C329.267 398.65 328.467 402.8 326.717 407.2C325.427 410.44 323.427 415.46 318.547 420.35C313.667 425.24 308.447 427.46 305.657 428.43C299.967 430.41 294.997 430.44 292.077 430.24C291.657 437.95 291.237 445.66 290.807 453.37C291.107 453.34 292.337 453.23 293.337 454.05C294.467 454.97 294.847 456.68 294.227 458.26C293.847 475.11 293.457 491.96 293.077 508.81C292.697 509.68 292.017 510.92 290.777 512C288.857 513.67 286.667 514.03 285.797 514.17C265.497 517.47 270.707 517.4 263.667 517.7C251.687 518.21 245.697 518.43 241.757 518.13C234.877 517.6 225.037 516.18 213.547 512.13C213.547 512.13 212.007 507.45 211.757 504.98C211.557 502.97 211.167 498.56 212.907 493.36C215.167 486.62 219.657 482.64 221.717 481.02C220.767 478.6 219.837 475.85 219.037 472.81C217.917 468.53 217.307 464.6 216.997 461.19C216.377 460.32 216.277 459.19 216.737 458.25C217.377 456.96 218.737 456.71 218.867 456.69C218.467 454.76 218.127 452.66 217.877 450.4C217.487 446.84 217.417 443.58 217.507 440.7C216.157 440.72 214.657 440.67 213.027 440.51C211.177 440.32 209.517 440.02 208.067 439.68C207.947 444.04 207.837 448.4 207.717 452.76C207.837 452.75 209.207 452.68 210.097 453.79C210.727 454.58 210.867 455.65 210.477 456.6C209.667 471.45 208.857 486.3 208.047 501.15C208.127 501.78 208.197 502.99 207.667 504.34C206.807 506.53 204.987 507.53 204.477 507.79C202.417 508.48 199.447 509.39 195.797 510.22C191.037 511.3 187.227 511.75 180.347 512.39C170.617 513.3 165.757 513.77 163.367 513.79C151.877 513.91 143.507 512.15 141.667 511.75C135.877 510.49 131.187 508.85 127.877 507.54C127.327 505.44 126.707 502.3 126.727 498.48C126.737 496.57 126.847 492.26 128.637 487.88C131.847 480.07 138.787 476.25 141.357 474.99C140.177 469.84 139.007 464.69 137.827 459.54C137.717 459.25 137.207 457.79 137.957 456.35C138.267 455.75 138.697 455.35 138.997 455.12C137.967 449.49 137.127 443.08 136.767 436.01C136.467 430.13 136.527 424.69 136.817 419.78C135.947 420.13 134.637 420.59 133.017 420.88C125.797 422.18 117.837 419.24 113.107 413.8C111.127 411.52 110.077 409.23 109.447 407.84C109.047 406.97 107.527 403.51 106.977 398.65C106.357 393.1 107.307 388.45 108.237 385.4C107.497 384.95 105.767 383.74 104.757 381.46C103.927 379.58 104.017 377.92 104.077 377.03C104.327 373.31 106.507 370.85 107.227 370.05C108.237 368.94 109.247 368.23 109.947 367.79C109.677 365.45 109.447 361.9 109.987 357.66C110.507 353.56 111.477 350.88 115.727 339.92C118.817 331.95 120.367 327.96 120.957 326.64C124.057 319.76 126.917 314.87 129.387 310.68C132.587 305.24 137.037 298.24 142.917 290.38C142.597 289.27 142.067 286.83 142.787 283.87C143.607 280.67 145.447 278.64 146.267 277.83Z" fill="#2A4669"/>
<path d="M150.657 292.63C149.947 293.32 148.317 295.08 147.847 297.82C147.637 299.04 147.717 300.11 147.847 300.88C150.707 302.01 153.717 303.1 156.867 304.11C168.537 307.86 179.457 309.74 189.037 310.58C189.437 307.97 189.827 305.36 190.227 302.75C182.947 302.4 173.777 301.19 163.677 297.9C158.797 296.32 154.447 294.49 150.657 292.63Z" fill="#22334E"/>
<path d="M196.927 311.24C197.207 308.69 197.497 306.13 197.777 303.58C207.007 303.91 217.287 303.8 228.417 302.9C242.627 301.75 255.347 299.55 266.287 297.03C264.827 298.14 262.887 299.92 261.267 302.56C260.527 303.77 259.997 304.92 259.617 305.95C251.257 308.24 241.037 310.37 229.267 311.41C216.847 312.51 205.887 312.13 196.927 311.24Z" fill="#22334E"/>
<path d="M191.847 391.76C193.617 392.06 195.377 392.36 197.147 392.65C196.717 385.6 196.357 378.45 196.057 371.2C195.407 355.23 195.127 339.68 195.167 324.6C194.147 335.37 193.317 346.61 192.737 358.3C192.167 369.89 191.887 381.05 191.847 391.76Z" fill="#22334E"/>
<path d="M275.087 375.94C281.307 375.29 288.147 374.85 295.517 374.79C303.277 374.72 310.457 375.09 316.967 375.68C312.187 376.82 306.427 377.8 299.857 378.11C289.917 378.58 281.447 377.37 275.087 375.94Z" fill="#22334E"/>
<path d="M128.317 376.13C129.377 376.34 130.427 376.54 131.487 376.75C131.597 374.2 131.827 371.43 132.227 368.47C132.657 365.3 133.217 362.37 133.847 359.73C132.737 359.4 131.637 359.08 130.527 358.75C129.817 361.82 129.187 365.27 128.787 369.05C128.507 371.54 128.367 373.91 128.317 376.13Z" fill="#22334E"/>
<path d="M131.657 353.45C134.187 344.76 136.717 336.07 139.257 327.38C139.397 327.49 139.607 327.68 139.767 327.98C140.057 328.51 140.007 329.02 139.977 329.21C139.037 334.89 137.967 340.71 136.747 346.66C136.237 349.13 135.707 351.57 135.177 353.98C133.997 353.8 132.827 353.63 131.657 353.45Z" fill="#22334E"/>
<path d="M121.087 413.34C119.807 410.68 119.477 408.4 119.297 407.08C118.757 403.07 119.327 399.63 119.997 397.22C119.657 399.86 119.667 403.51 121.237 407.31C122.257 409.77 123.827 413.54 127.107 414.11C129.027 414.44 131.277 413.64 132.467 412.07C133.677 410.48 133.457 408.56 133.297 406.67C133.047 403.81 132.807 399.69 132.877 394.32C133.437 393.42 134.547 393.03 135.527 393.37C136.547 393.72 137.177 394.78 137.007 395.86C136.947 403.89 136.887 411.91 136.817 419.94C135.847 420.33 134.397 420.79 132.587 420.94C131.557 421.02 129.577 421.19 127.567 420.47C123.877 419.12 122.137 415.51 121.087 413.34Z" fill="#22334E"/>
<path d="M298.487 429.72C295.867 430.55 293.597 430.46 292.277 430.32C292.217 431.31 292.167 432.31 292.107 433.3C289.477 432.85 285.647 431.89 281.467 429.68C278.747 428.25 274.657 426.03 271.257 421.51C267.937 417.09 266.857 412.55 265.897 408.49C265.187 405.5 264.887 402.94 264.747 401.09C266.107 400.54 267.467 399.99 268.827 399.44C269.297 402.95 269.807 405.9 270.237 408.11C271.837 416.42 272.887 418.06 274.407 418.92C276.537 420.12 278.907 419.4 279.087 419.35C281.117 418.7 282.157 417.07 283.177 415.44C284.127 413.91 285.677 410.87 285.947 406.33C286.577 407.35 286.917 408.31 287.097 409.14C288.517 415.58 282.077 421.32 281.397 421.91C282.087 422.66 283.147 423.65 284.627 424.46C290.897 427.9 298.097 424.65 299.267 424.12C307.977 420.18 310.287 410.7 310.587 409.4C310.747 411.73 310.667 415.65 308.797 419.87C308.177 421.28 306.997 423.86 304.367 426.25C303.457 427.05 301.547 428.75 298.487 429.72Z" fill="#22334E"/>
<path d="M205.607 453.97C204.017 450.94 202.417 447.9 200.827 444.87C203.197 444.69 205.577 444.52 207.947 444.34C207.887 447.15 207.817 449.97 207.757 452.78C207.037 453.18 206.327 453.58 205.607 453.97Z" fill="#22334E"/>
<path d="M208.137 439.68C209.477 440.01 211.007 440.3 212.717 440.5C214.487 440.7 216.097 440.75 217.517 440.73C217.487 438.68 217.457 436.63 217.427 434.58C212.637 434.89 207.117 434.91 201.037 434.32C190.727 433.32 182.077 430.88 175.507 428.45C176.917 430.93 178.507 432.49 179.597 433.39C184.127 437.16 189.507 437.64 192.447 437.9C194.167 438.05 195.587 438.03 196.537 437.99C197.157 438.82 197.777 439.65 198.397 440.49C199.687 440.73 201.487 440.92 203.597 440.72C205.447 440.52 206.997 440.09 208.137 439.68Z" fill="#22334E"/>
<path d="M267.927 387.1C267.367 387.43 266.467 387.78 265.067 387.68C265.307 386.28 265.597 384.18 265.717 381.63C266.077 373.81 264.467 368.18 263.507 363.93C262.427 359.18 261.287 352.3 261.207 343.42C263.267 345.76 265.327 348.1 267.387 350.44C267.877 353.23 268.497 355.26 268.997 356.66C269.337 357.62 269.887 358.99 269.607 360.73C269.487 361.48 269.257 362.07 269.077 362.46C269.247 366.52 269.417 370.59 269.587 374.65C271.517 380.42 270.677 385.47 267.927 387.1Z" fill="#22334E"/>
<path d="M323.677 347.37C324.087 349.41 324.487 351.46 324.897 353.5C317.687 355.89 309.247 358.17 299.717 359.84C288.167 361.87 277.747 362.52 268.947 362.52C268.967 360.57 268.977 358.61 268.997 356.66C276.567 356.8 285.687 356.4 295.887 354.73C306.857 352.95 316.207 350.15 323.677 347.37Z" fill="#F38A00"/>
<path d="M310.397 311.4C311.567 313.54 312.737 315.84 313.887 318.3C315.227 321.16 316.377 323.91 317.377 326.53C317.417 326.77 317.557 327.89 316.827 328.96C316.057 330.08 314.877 330.32 314.657 330.36C308.227 331.89 301.807 333.42 295.377 334.96C294.977 335.04 293.577 335.27 292.117 334.48C290.367 333.53 289.847 331.83 289.757 331.51C288.397 327.51 287.037 323.51 285.667 319.51C285.577 319.31 284.967 317.93 285.667 316.45C286.477 314.72 288.337 314.43 288.477 314.41C294.047 313.09 299.627 311.77 305.197 310.45C305.737 310.29 306.887 310.05 308.257 310.39C309.267 310.63 309.977 311.08 310.397 311.4Z" fill="#E86B18"/>
<path d="M267.677 351.79C265.497 350.07 262.367 347.16 259.847 342.77C255.517 335.23 255.667 328 255.757 323.2C255.837 319.16 256.067 312.01 260.357 304.48C261.997 301.59 263.787 299.45 265.127 298.01C250.157 301.78 237.197 303.33 227.337 303.97C213.397 304.88 202.617 304.17 194.827 303.63C184.887 302.94 179.297 302.57 172.017 300.91C159.457 298.04 149.657 293.14 142.957 289.08C142.797 288.52 142.617 287.75 142.527 286.82C142.257 284 142.987 281.83 143.267 281.1C143.837 279.58 144.627 278.4 145.317 277.56C147.577 278.22 150.627 279.06 154.257 279.92C157.517 280.69 164.957 282.34 175.387 283.53C189.157 285.1 200.287 284.98 207.257 284.87C216.327 284.74 228.137 284.52 243.347 282.14C253.407 280.57 261.357 278.61 272.477 275.87C280.797 273.82 287.717 271.91 292.697 270.48C293.057 270.71 293.547 271.07 294.037 271.59C294.037 271.59 294.827 272.41 295.377 273.5C295.957 274.65 296.457 276.36 295.977 281.56C295.857 282.89 295.647 284.67 295.267 286.78C296.127 287.32 297.167 288.11 298.147 289.25C300.397 291.86 301.017 294.72 301.217 296.13C298.497 295.52 293.327 294.75 287.237 296.3C285.177 296.82 275.737 299.5 270.047 308.39C266.827 313.42 266.397 318.04 265.787 325.58C265.307 331.68 265.237 340.76 267.677 351.79Z" fill="#FFFEE9"/>
<path d="M192.867 391.64C192.377 379.98 192.337 367.33 192.997 353.85C193.907 335.34 195.977 318.45 198.567 303.42C195.447 302.91 192.327 302.4 189.207 301.89C187.187 313.96 186.097 324.14 185.467 331.63C183.987 349.25 184.077 363.48 184.187 374.52C184.257 381.37 184.427 387 184.567 390.73C178.017 390.66 170.527 390.14 162.357 388.82C150.337 386.87 140.107 383.7 131.977 380.52C131.487 381.84 130.867 384.03 130.957 386.78C131.067 390.17 132.207 392.72 132.917 394.05C136.317 395.62 141.317 397.71 147.557 399.55C156.287 402.12 163.917 403.16 176.027 404.02C192.947 405.22 206.307 405.21 211.897 405.17C239.767 404.95 256.377 402.48 261.177 401.72C264.327 401.23 266.947 400.76 268.767 400.42C269.147 397.57 269.537 394.72 269.917 391.88C272.527 392.57 275.977 393.39 280.067 394.06C288.437 395.44 294.817 395.46 299.727 395.46C308.137 395.46 312.987 394.61 322.707 392.91C325.107 392.49 328.287 391.91 330.237 389.34C332.227 386.71 332.267 382.89 332.277 381.51C332.277 381.18 332.287 379.6 331.857 377.59C331.557 376.18 331.347 375.21 330.687 374.15C330.287 373.5 329.407 372.32 327.667 371.4C325.117 372.64 321.337 374.27 316.577 375.55C308.697 377.67 302.607 377.63 294.487 377.59C283.847 377.54 276.167 376.08 273.547 375.55C271.907 375.22 270.547 374.89 269.587 374.66C268.657 376.6 267.607 379.43 267.287 382.96C267.137 384.58 267.177 386.04 267.287 387.3C260.157 388.58 252.607 389.68 244.667 390.51C225.657 392.5 208.227 392.57 192.867 391.64Z" fill="#FFFEE9"/>
<path d="M139.887 329.08C139.077 326.94 138.087 323.68 137.847 319.63C137.497 313.82 138.787 309.45 140.277 304.69C141.457 300.9 143.467 295.64 146.997 289.8C148.217 290.74 149.437 291.68 150.657 292.63C148.597 297.5 146.577 302.93 144.747 308.91C142.507 316.18 140.967 322.97 139.887 329.08Z" fill="#FFFEE9"/>
<path d="M119.847 330.23C122.907 323.85 125.977 317.46 129.037 311.08C129.467 310.85 130.097 310.61 130.697 310.82C131.967 311.27 132.177 313.43 132.277 314.5C132.457 316.41 132.157 318.13 131.457 320.27C129.467 326.43 126.527 329.19 125.817 329.83C124.747 330.79 123.807 331.37 122.657 331.37C121.307 331.39 120.297 330.62 119.847 330.23Z" fill="#E86B18"/>
<path d="M161.587 341.21C161.047 342.02 160.077 342.43 159.157 342.23C157.937 341.97 157.497 340.78 157.467 340.71C155.007 336.02 152.547 331.34 150.087 326.65C150.027 326.55 149.147 324.85 150.087 323.2C150.827 321.9 152.167 321.59 152.387 321.54C158.257 322.01 164.127 322.48 170.007 322.94C170.157 322.92 171.817 322.77 172.817 323.96C173.767 325.09 173.727 326.95 172.557 328.3C168.907 332.61 165.247 336.91 161.587 341.21Z" fill="#E86B18"/>
<path d="M239.847 376.44C238.517 379.58 235.657 380.8 234.907 381.12C234.617 381.25 229.787 383.22 225.547 380.35C223.037 378.65 222.157 376.22 221.977 375.67C220.827 372.27 222.117 369.39 222.407 368.78C222.757 368.05 224.167 365.31 227.427 364.1C230.447 362.98 233.067 363.9 234.067 364.27C234.857 364.56 236.907 365.35 238.497 367.42C238.637 367.63 241.787 371.88 239.847 376.44Z" fill="#E86B18"/>
<path d="M153.377 378.23C152.597 378.18 149.557 377.91 147.417 375.34C145.407 372.92 145.567 370.12 145.627 369.21C145.657 368.73 146.007 364.8 149.457 362.32C150.077 361.87 152.277 360.35 155.327 360.62C158.627 360.91 160.667 363.1 161.457 364.11C161.887 364.67 164.027 367.4 163.327 371C162.647 374.5 159.797 376.24 158.897 376.79C158.167 377.24 156.147 378.43 153.377 378.23Z" fill="#E86B18"/>
<path d="M132.117 392.35C127.467 391.73 123.607 390.92 120.737 390.23C117.447 389.44 113.387 388.3 109.117 385.81C107.417 384.82 106.057 383.83 105.107 382.13C103.837 379.85 104.037 377.56 104.127 376.62C104.437 373.47 106.117 371.38 106.837 370.51C107.957 369.15 109.157 368.3 109.957 367.8C112.497 369.69 114.797 370.98 116.507 371.84C120.007 373.59 122.947 374.47 125.397 375.2C127.787 375.91 129.857 376.38 131.437 376.69C131.607 377.97 131.777 379.24 131.947 380.52C131.617 382.75 131.277 384.99 130.947 387.22C131.357 388.94 131.737 390.65 132.117 392.35Z" fill="#FFFEE9"/>
<path d="M111.487 351.39C111.857 350.51 112.217 349.58 112.567 348.62C112.967 347.53 113.317 346.46 113.637 345.44C115.887 346.89 118.557 348.39 121.627 349.77C126.687 352.03 131.357 353.28 135.157 353.98C134.687 355.98 134.217 357.98 133.757 359.98C130.027 359.1 125.797 357.84 121.247 356.02C117.577 354.55 114.317 352.95 111.487 351.39Z" fill="#F38A00"/>
<path d="M232.137 345.41C231.177 345.71 228.427 346.44 225.207 345.38C221.307 344.1 219.437 341.11 218.997 340.36C218.507 339.52 216.697 336.43 217.637 332.7C218.427 329.57 220.677 327.81 221.727 327C223.517 325.6 225.307 324.99 226.407 324.7C226.687 324.51 226.827 324.16 226.747 323.85C226.657 323.49 226.297 323.23 225.897 323.25C224.617 323.04 222.597 322.86 220.207 323.35C219.177 323.56 217.307 323.96 215.427 325.21C211.517 327.81 210.477 332.13 210.237 333.12C209.977 334.22 209.167 338.17 211.177 342.4C212.587 345.38 214.697 347 215.267 347.42C218.287 349.65 221.387 349.88 222.837 349.97C224.337 350.06 226.747 350.21 229.307 348.86C230.787 348.08 231.787 347.08 232.397 346.37C232.677 345.96 232.687 345.56 232.517 345.42C232.477 345.42 232.367 345.34 232.137 345.41Z" fill="white"/>
<path d="M207.947 444.34C207.987 442.79 208.027 441.24 208.067 439.7C201.277 440.36 194.067 440.81 186.477 440.95C169.577 441.27 154.247 440.02 140.857 438.06C140.917 440.1 140.967 442.15 141.027 444.19C149.647 445.35 159.227 446.18 169.627 446.4C183.907 446.71 196.797 445.78 207.947 444.34Z" fill="#FFFEE9"/>
<path d="M165.157 452.66C163.907 454.08 162.307 454.38 161.837 454.45C155.287 453.98 148.727 453.51 142.177 453.05C141.717 452.91 140.367 452.43 139.327 451.05C138.317 449.7 138.227 448.3 138.217 447.82C137.827 442.61 137.437 437.41 137.047 432.2C137.057 431.87 137.157 430.6 138.177 429.52C139.077 428.57 140.157 428.34 140.507 428.29C147.107 428.63 153.697 428.97 160.297 429.31C160.727 429.24 162.427 429.01 164.127 430.08C165.947 431.22 166.457 433.01 166.557 433.4C166.517 438.93 166.467 444.46 166.427 450C166.347 450.49 166.077 451.61 165.157 452.66Z" fill="#E86B18"/>
<path d="M217.817 446.07C217.717 444.29 217.617 442.5 217.517 440.72C226.687 441.31 236.827 441.49 247.757 440.95C264.407 440.13 279.217 437.84 291.807 435.09C291.707 436.95 291.617 438.82 291.517 440.68C278.487 443.33 263.387 445.48 246.557 446.22C236.287 446.69 226.667 446.56 217.817 446.07Z" fill="#FFFEE9"/>
<path d="M260.907 454.32C252.817 454.66 244.737 455 236.647 455.34C236.017 455.07 234.947 454.51 233.967 453.43C232.807 452.15 232.357 450.8 232.177 450.11C231.877 444.92 231.577 439.73 231.287 434.54C231.407 434.05 231.747 432.98 232.687 431.99C233.657 430.97 234.747 430.6 235.237 430.46C243.067 430.16 250.897 429.86 258.727 429.57C259.207 429.56 260.507 429.6 261.787 430.46C263.427 431.57 263.867 433.25 263.957 433.65C264.127 438.59 264.297 443.52 264.467 448.46C264.527 448.79 264.887 450.9 263.447 452.67C262.547 453.78 261.387 454.18 260.907 454.32Z" fill="#E86B18"/>
<path d="M226.897 338.76L227.487 335.67C227.517 335.52 227.467 335.37 227.367 335.27L225.157 333.03C224.897 332.76 225.047 332.31 225.417 332.26L228.537 331.87C228.687 331.85 228.817 331.76 228.877 331.63L230.317 328.84C230.487 328.51 230.967 328.52 231.127 328.85L232.467 331.69C232.527 331.82 232.657 331.92 232.807 331.94L235.907 332.45C236.277 332.51 236.417 332.97 236.147 333.23L233.857 335.38C233.747 335.48 233.697 335.63 233.717 335.78L234.187 338.89C234.247 339.26 233.847 339.53 233.527 339.35L230.767 337.84C230.637 337.77 230.477 337.77 230.347 337.83L227.537 339.24C227.207 339.42 226.827 339.13 226.897 338.76Z" fill="white"/>
<path d="M187.867 310.48C188.237 308.05 188.617 305.63 188.987 303.2C192.157 303.42 195.327 303.64 198.487 303.86C198.087 306.33 197.687 308.8 197.287 311.27C194.147 311.01 191.007 310.75 187.867 310.48Z" fill="#96979A"/>
<path d="M132.117 392.35C131.747 390.6 131.437 388.38 131.457 385.82C131.477 383.8 131.687 382.01 131.967 380.52C131.797 379.24 131.627 377.97 131.457 376.69C130.407 376.46 129.357 376.22 128.307 375.99C128.387 378.52 128.707 381.67 129.597 385.18C130.317 387.99 131.227 390.39 132.117 392.35Z" fill="#96979A"/>
<path d="M264.747 401.16C264.507 398.46 264.417 395.41 264.627 392.09C264.727 390.55 264.877 389.08 265.067 387.69C265.807 387.56 266.547 387.43 267.287 387.3C267.297 387.79 267.367 388.56 267.737 389.41C268.357 390.84 269.437 391.6 269.897 391.89C269.517 394.74 269.127 397.59 268.747 400.43C267.417 400.67 266.087 400.91 264.747 401.16Z" fill="#96979A"/>
<path d="M201.077 445.14C200.177 443.58 199.287 442.03 198.387 440.47C201.617 440.21 204.847 439.96 208.067 439.7C208.027 441.25 207.987 442.8 207.947 444.34C206.907 444.54 205.777 444.73 204.577 444.87C203.337 445.01 202.167 445.1 201.077 445.14Z" fill="#96979A"/>
<path d="M145.307 277.54C145.027 277.8 144.677 278.18 144.357 278.68C144.037 279.17 143.847 279.64 143.727 280C145.417 280.68 147.857 281.61 150.827 282.61C155.817 284.28 165.167 287.06 184.307 289.12C195.337 290.31 204.987 291.35 218.137 290.91C221.917 290.78 230.317 290.39 248.517 287.46C260.727 285.5 276.977 282.46 296.157 277.63C296.217 276.9 296.227 275.57 295.627 274.08C294.797 272 293.297 270.88 292.677 270.46C289.497 271.35 284.877 272.64 279.277 274.12C267.107 277.35 260.447 279.12 252.257 280.68C243.287 282.4 236.447 283.12 231.357 283.64C222.687 284.53 202.297 286.52 178.687 284C168.237 282.88 160.287 281.22 157.797 280.68C152.707 279.59 148.437 278.45 145.307 277.54Z" fill="#96979A"/>
<path d="M130.437 359.12C130.867 357.16 131.287 355.19 131.717 353.23C132.867 353.48 134.017 353.73 135.167 353.98C134.697 355.98 134.227 357.98 133.767 359.98C132.647 359.69 131.547 359.41 130.437 359.12Z" fill="#E86D18"/>
<path d="M211.937 506.44C211.657 504.52 211.447 501.76 211.887 498.48C212.137 496.56 212.717 492.54 215.337 488.17C217.397 484.74 219.897 482.45 221.747 481.05C220.367 477.56 219.017 473.39 218.067 468.59C217.547 465.96 217.207 463.49 216.997 461.2C216.837 460.99 216.497 460.46 216.467 459.7C216.447 459.19 216.567 458.79 216.667 458.55C216.967 457.99 217.467 457.27 218.277 456.98C219.487 456.54 220.757 457.25 221.217 457.49C221.467 457.62 224.237 458.05 229.767 458.89C234.897 459.68 240.967 459.6 245.857 459.53C251.067 459.45 257.647 459.33 266.327 458.26C273.027 457.43 281.377 455.99 290.817 453.36C291.177 453.32 291.877 453.3 292.657 453.62C292.947 453.74 293.897 454.14 294.407 455.14C295.147 456.6 294.317 458.11 294.237 458.25C294.217 468.32 294.017 478.67 293.597 489.27C293.387 494.58 293.127 499.81 292.827 504.97C282.307 508.08 273.067 509.63 265.887 510.46C259.927 511.14 250.017 512.23 237.037 511.1C226.737 510.23 218.187 508.25 211.937 506.44Z" fill="#FFFEE9"/>
<path d="M126.827 501.2C126.527 499.04 125.947 492.77 129.487 486.09C133.327 478.86 139.527 475.84 141.447 474.99C140.227 469.79 139.007 464.58 137.787 459.38C137.677 459.02 137.387 457.89 137.907 456.64C138.227 455.87 138.717 455.38 139.017 455.13C141.397 455.81 144.807 456.68 148.957 457.38C154.367 458.29 158.347 458.47 169.767 458.53C191.187 458.64 196.597 458.13 203.087 455.21C205.137 454.29 206.737 453.37 207.727 452.78C207.977 452.77 208.987 452.75 209.797 453.48C210.657 454.26 210.927 455.59 210.457 456.81C209.667 471.38 208.887 485.94 208.097 500.51C195.087 504.14 176.487 507.57 154.347 505.87C143.927 505.06 134.687 503.28 126.827 501.2Z" fill="#FFFEE9"/>
</svg>
