<svg width="483" height="558" viewBox="0 0 483 558" fill="none" xmlns="http://www.w3.org/2000/svg">
<path d="M136.22 398.35C135.97 398.4 134.89 398.66 134.21 399.59C133.73 400.25 133.69 400.9 133.69 401.18C133.47 405.76 133.26 410.35 133.04 414.93C133.07 415.02 133.56 416.41 133.56 416.41C133.56 416.41 134.14 416.64 134.71 416.87C134.39 418.71 133.99 421.35 133.73 424.56C133.19 431.12 133.34 438.18 135.51 451.35C136.77 459 138.73 468.87 141.89 480.32C148.74 480.42 155.63 480.5 162.57 480.54C177.52 480.63 192.28 480.58 206.84 480.39C207.27 471.1 207.7 461.81 208.13 452.51C210.67 452.79 213.21 453.08 215.76 453.36C217.52 462.28 219.28 471.2 221.04 480.12C230.46 480.5 240.19 480.71 250.23 480.72C263.92 480.73 277.06 480.35 289.62 479.69C291.52 468.32 292.87 456.25 293.42 443.55C293.5 441.72 293.56 439.9 293.61 438.1C291.21 437.85 281.37 436.53 274.66 428.22C268.97 421.18 268.73 413.08 268.61 409.16C268.47 404.43 269.26 400.56 269.97 398C268.74 398.11 266.84 398.28 264.51 398.46C252.9 399.38 242.96 399.76 233.71 399.97C205.34 400.59 173.77 399.72 166.69 399.52C154.94 399.14 144.65 398.73 136.22 398.35Z" fill="#505050"/>
<path d="M134.75 416.42C151.02 418.28 168.51 419.63 187.09 420.19C217.13 421.09 244.68 419.77 269.22 417.3" stroke="#303438" stroke-width="3" stroke-miterlimit="10"/>
<path d="M152.63 418.2C152.34 420.86 151.25 427.57 145.98 433.8C141.83 438.71 137.05 441 134.55 441.99" stroke="#303438" stroke-width="3" stroke-miterlimit="10"/>
<path d="M251.05 418.86C252.24 422.61 254.57 428.03 259.35 432.95C271.96 445.93 290.37 443.91 293 443.58" stroke="#303438" stroke-width="3" stroke-miterlimit="10"/>
<path d="M259.35 432.95C260.04 442.8 260.3 453.51 259.86 464.95C259.66 470.28 259.32 475.42 258.87 480.36" fill="#505050"/>
<path d="M259.35 432.95C260.04 442.8 260.3 453.51 259.86 464.95C259.66 470.28 259.32 475.42 258.87 480.36" stroke="#303438" stroke-width="3" stroke-miterlimit="10"/>
<path d="M147.3 432.12C147.27 438.66 147.48 445.65 148.02 453.03C148.73 462.77 149.92 471.78 151.34 479.97" fill="#505050"/>
<path d="M147.3 432.12C147.27 438.66 147.48 445.65 148.02 453.03C148.73 462.77 149.92 471.78 151.34 479.97" stroke="#303438" stroke-width="3" stroke-miterlimit="10"/>
<path d="M227.69 413.29C229.993 413.29 231.86 411.423 231.86 409.12C231.86 406.817 229.993 404.95 227.69 404.95C225.387 404.95 223.52 406.817 223.52 409.12C223.52 411.423 225.387 413.29 227.69 413.29Z" fill="#ACADAF"/>
<path d="M260.45 467.5C264.99 468.42 270.57 469.17 276.96 469.2C282.13 469.23 286.74 468.79 290.66 468.18" fill="#505050"/>
<path d="M260.45 467.5C264.99 468.42 270.57 469.17 276.96 469.2C282.13 469.23 286.74 468.79 290.66 468.18" stroke="#303438" stroke-width="3" stroke-miterlimit="10"/>
<path d="M149.11 464.52C147.08 464.93 144.96 465.3 142.75 465.63C141.45 465.82 140.17 465.99 138.92 466.14" fill="#505050"/>
<path d="M149.11 464.52C147.08 464.93 144.96 465.3 142.75 465.63C141.45 465.82 140.17 465.99 138.92 466.14" stroke="#303438" stroke-width="3" stroke-miterlimit="10"/>
<path d="M173.18 413.29C175.483 413.29 177.35 411.423 177.35 409.12C177.35 406.817 175.483 404.95 173.18 404.95C170.877 404.95 169.01 406.817 169.01 409.12C169.01 411.423 170.877 413.29 173.18 413.29Z" fill="#ACADAF"/>
<path d="M149.11 464.52C155.63 465.28 162.65 465.82 170.11 466.02C183.53 466.38 195.71 465.57 206.37 464.23" stroke="#303438" stroke-width="3" stroke-miterlimit="10"/>
<path d="M259.75 467.44C252.83 468.16 245.36 468.67 237.39 468.83C230.97 468.96 224.87 468.85 219.13 468.57" stroke="#303438" stroke-width="3" stroke-miterlimit="10"/>
<path d="M215.77 453.34C215.71 451.31 215.64 449.28 215.58 447.25C211.26 447.57 206.15 447.63 200.48 447.08C189.21 445.98 180.24 442.91 174.15 440.26C176.57 443.12 178.92 445.28 180.73 446.79C184.32 449.78 186.11 451.28 188.6 452.02C190.22 452.5 191.13 452.6 192.73 453.5C194.96 454.75 196.2 456.38 196.88 457.29C197.83 458.56 198.55 459.93 199.25 461.95C199.3 462.11 199.34 462.22 199.37 462.3C199.42 462.46 201.87 469.73 202.33 471.17C202.96 473.18 203.61 476.19 203.5 480.42C204.62 480.41 205.74 480.39 206.86 480.38C207.27 474.17 207.6 467.85 207.86 461.41C207.98 458.42 208.08 455.45 208.16 452.5C210.69 452.78 213.23 453.06 215.77 453.34Z" fill="#383838"/>
<path d="M139.14 467.61C139 467.62 138.85 467.63 138.71 467.64C138.49 466.66 138.28 465.68 138.06 464.7C138.45 464.67 138.83 464.65 139.22 464.62C139.19 465.62 139.17 466.62 139.14 467.61Z" fill="#303438"/>
<path d="M135.14 443.38C135.01 443.43 134.85 443.49 134.67 443.52C134.57 443.54 134.47 443.56 134.38 443.56C134.27 442.57 134.15 441.57 134.04 440.58C134.4 441.51 134.77 442.45 135.14 443.38Z" fill="#303438"/>
<path d="M134.72 416.86C134.34 416.71 133.95 416.56 133.57 416.4C133.4 415.91 133.23 415.42 133.05 414.92C133.06 414.79 133.07 414.65 133.08 414.52C133.36 414.6 133.65 414.67 133.96 414.74C134.35 414.83 134.72 414.9 135.08 414.96C134.96 415.6 134.84 416.23 134.72 416.86Z" fill="#303438"/>
<path d="M149.87 480.21C150.86 480.04 151.84 479.88 152.83 479.71C152.88 479.95 152.93 480.2 152.98 480.44C152.42 480.43 151.6 480.43 151.04 480.42C150.82 480.42 150.13 480.41 149.91 480.41C149.89 480.34 149.88 480.28 149.87 480.21Z" fill="#303438"/>
<path d="M257.39 480.2C257.38 480.35 257.36 480.51 257.35 480.66C258.34 480.65 259.34 480.64 260.33 480.63C260.34 480.51 260.34 480.38 260.35 480.26C259.37 480.24 258.38 480.22 257.39 480.2Z" fill="#303438"/>
<path d="M219.06 470.02C218.86 469.01 218.66 467.99 218.46 466.98C218.78 467.02 219.11 467.06 219.43 467.1C219.31 468.07 219.18 469.05 219.06 470.02Z" fill="#303438"/>
<path d="M290.1 466.77C290.06 467.77 290.02 468.78 289.98 469.78C290.36 469.73 290.74 469.67 291.13 469.62C291.26 468.59 291.39 467.56 291.52 466.53C291.05 466.61 290.58 466.69 290.1 466.77Z" fill="#303438"/>
<path d="M293.16 445.03C293 444.06 292.83 443.09 292.67 442.12C292.83 442.1 292.99 442.08 293.15 442.06C293.27 442.05 293.38 442.03 293.5 442.02C293.46 443.01 293.41 444 293.37 445C293.29 445 293.22 445.01 293.16 445.03Z" fill="#303438"/>
<path d="M269.37 418.78C269.54 418.76 269.7 418.74 269.87 418.73C269.74 418.26 269.61 417.76 269.5 417.24C269.39 416.75 269.3 416.27 269.21 415.81C269.11 415.82 269 415.82 268.9 415.83C269.05 416.81 269.21 417.79 269.37 418.78Z" fill="#303438"/>
<path d="M173.03 410.83C173.974 410.83 174.74 410.064 174.74 409.12C174.74 408.176 173.974 407.41 173.03 407.41C172.085 407.41 171.32 408.176 171.32 409.12C171.32 410.064 172.085 410.83 173.03 410.83Z" fill="#505050"/>
<path d="M227.69 410.83C228.634 410.83 229.4 410.064 229.4 409.12C229.4 408.176 228.634 407.41 227.69 407.41C226.746 407.41 225.98 408.176 225.98 409.12C225.98 410.064 226.746 410.83 227.69 410.83Z" fill="#505050"/>
<path d="M369.733 146.57C373.143 144.52 375.453 142.29 376.883 140.7C379.163 138.17 380.743 136.41 381.223 133.55C381.833 129.93 380.263 127.03 379.823 126.27C379.013 124.88 377.783 123.5 373.313 120.91C368.923 118.37 365.293 116.91 363.483 116.19C355.563 113.04 350.463 111.21 350.463 111.21C335.843 105.97 336.833 106.53 333.993 105.34C328.003 102.81 323.883 100.43 318.033 97.04C308.843 91.72 304.383 88.81 301.693 86.57C300.653 85.7 297.923 83.38 292.123 76.87C282.323 65.89 282.183 63.65 274.383 54.91C270.423 50.48 265.443 44.97 257.663 39.21C252.893 35.68 248.883 33.4 244.513 30.91C238.163 27.3 232.883 24.29 225.743 21.72C220.693 19.9 213.353 17.81 204.043 17C204.293 19.98 204.473 27.09 200.343 34.36C198.203 38.13 194.363 44.88 186.553 46.23C180.113 47.35 173.633 44.32 170.083 39.85C167.393 36.46 166.763 32.71 166.253 29.64C165.513 25.19 165.923 21.45 166.383 19.04C162.323 20.28 156.573 22.38 150.173 25.93C136.093 33.75 127.783 43.69 124.133 48.14C120.703 52.33 117.073 56.75 113.663 63.33C112.143 66.26 111.173 68.66 108.683 72.52C105.833 76.94 103.063 80.08 101.533 81.71C98.9131 84.51 94.8731 88.78 88.6431 92.31C86.4231 93.57 82.913 94.94 75.873 97.67C71.403 99.41 68.883 100.26 65.023 102.27C60.253 104.74 57.843 106.03 56.723 108.53C54.903 112.6 57.193 117.21 58.123 118.87C64.723 123 71.313 127.13 77.913 131.25C109.273 124.14 140.633 117.04 172.003 109.93C237.903 122.15 303.813 134.36 369.733 146.57Z" fill="#F1B532"/>
<path d="M108.033 141.71C100.193 142.14 94.2528 140.75 90.5328 139.55C84.4128 137.57 80.2428 134.8 72.1528 129.34C66.3628 125.43 61.6528 121.77 58.1128 118.87C59.3228 117.35 61.3428 115.04 64.2428 112.74C71.9528 106.63 77.9128 106.91 87.9828 102.53C91.7828 100.88 98.2228 97.86 104.583 92.32C109.653 87.9 110.513 85.18 118.883 72.15C125.613 61.67 128.983 56.42 132.673 51.98C137.363 46.32 145.063 38.77 157.693 32.07C157.753 34.05 158.093 37.01 159.483 40.24C162.843 48.05 169.733 51.43 171.993 52.5C180.183 56.36 187.913 54.9 191.143 54.03C193.273 53.46 199.673 51.65 204.933 45.6C211.233 38.36 211.563 30.06 211.573 27.73C215.493 28.59 220.933 30.04 227.143 32.58C230.153 33.81 239.963 38.01 250.883 46.62C257.913 52.16 262.663 57.36 265.183 60.15C269.723 65.18 270.033 66.34 277.823 75.47C282.193 80.6 284.723 83.54 288.413 87.21C293.263 92.02 297.633 95.6 300.673 97.93C307.233 102.66 313.053 105.83 317.273 107.89C324.023 111.18 330.113 113.29 335.143 115.04C343.873 118.07 345.303 117.94 351.483 120.66C353.843 121.7 352.043 121.01 363.483 126.79C367.803 128.97 369.983 130.14 371.653 131.9C374.693 135.1 375.773 138.93 376.203 141.44C374.273 143.31 372.023 145.27 369.413 147.22C365.103 150.44 360.943 152.77 357.353 154.45C356.733 155.27 355.723 156.42 354.223 157.43C351.483 159.28 348.753 159.53 346.883 159.73C342.833 160.15 338.283 160.73 332.583 161.52C310.923 149.13 267.893 128.43 210.033 126.03C165.493 124.17 129.783 133.89 108.033 141.71Z" fill="black"/>
<path d="M91.9828 155.81C91.7528 155.62 89.8428 154.01 89.9428 151.38C90.0128 149.37 91.2328 147.55 93.0928 146.64C94.3228 143.15 95.5528 139.66 96.7928 136.17C103.573 132.48 113.153 127.93 125.183 124.32C128.833 123.23 139.243 120.25 158.033 118.36C166.433 117.51 188.153 115.71 217.433 118.53C230.083 119.75 245.763 121.33 265.943 126.87C291.453 133.88 309.933 143.3 318.203 147.81C326.143 152.13 332.593 156.23 337.263 159.38C339.933 159.55 342.593 159.72 345.263 159.89C346.873 159.61 348.863 159.11 351.053 158.19C353.793 157.04 355.883 155.62 357.353 154.45C361.713 153.63 365.073 153.96 367.393 154.45C368.023 154.58 368.113 154.63 374.203 156.66C380.153 158.65 381.463 159.07 383.223 159.55C385.983 160.31 388.253 160.77 389.693 161.04C390.053 161.04 390.693 161.09 390.973 161.51C391.333 162.06 390.873 162.97 390.463 163.64C387.863 167.92 383.653 171.15 383.653 171.15C379.883 174.05 378.003 175.5 376.053 176.45C375.083 176.93 371.643 178.54 366.793 179.26C364.233 179.64 362.033 179.66 360.413 179.58C360.993 180.47 361.803 181.76 362.713 183.35C364.163 185.88 364.883 187.15 365.453 188.78C366.143 190.73 366.313 192.25 366.663 195.29C367.003 198.26 366.843 198.77 367.113 201.03C367.313 202.69 367.723 205.14 368.713 208.12C368.773 208.43 368.893 209.29 368.393 209.97C367.693 210.94 366.003 211.22 364.433 210.35C362.093 210.03 358.853 209.43 355.133 208.16C351.863 207.04 348.603 205.93 345.173 203.39C343.103 201.86 337.973 197.94 335.893 190.79C334.563 186.21 335.033 182.18 335.553 179.73C335.183 179.31 334.613 178.54 334.273 177.43C334.023 176.6 333.993 175.88 334.013 175.39C332.613 174.81 330.453 173.93 327.803 172.92C312.043 166.91 299.303 163.97 290.443 162.03C254.883 154.25 237.103 150.36 216.653 148.5C209.023 147.81 183.513 145.71 150.013 147.99C127.323 149.52 107.703 152.61 91.9828 155.81Z" fill="#A83032"/>
<path d="M193.843 96.3701C193.453 96.6501 192.763 97.07 191.803 97.26C190.593 97.51 189.603 97.28 189.123 97.13C189.103 96.04 189.083 94.9601 189.063 93.8701C188.433 93.8501 187.803 93.8301 187.173 93.8101C187.183 95.1101 187.203 96.41 187.213 97.7C186.613 97.88 185.813 98.0501 184.853 98.0801C183.813 98.1201 182.933 97.98 182.303 97.82C182.263 96.56 182.213 95.3101 182.173 94.0501C181.523 94.0701 180.873 94.1001 180.233 94.1201C180.153 95.2901 180.083 96.4501 180.003 97.6201C179.423 97.6401 178.493 97.59 177.453 97.19C176.693 96.9 176.123 96.52 175.723 96.22C175.703 94.16 175.683 92.0901 175.663 90.0301C174.493 89.6001 172.523 88.6901 170.873 86.7701C167.453 82.7901 168.173 77.72 168.363 76.39C169.323 69.6 174.773 66 175.723 65.39C179.833 62.78 183.893 62.82 185.553 62.86C187.493 62.91 192.543 63.03 196.723 66.92C200.503 70.44 201.203 74.84 201.383 76.11C201.633 77.85 202.263 82.21 199.473 86.13C197.593 88.77 195.073 89.94 193.853 90.41C193.843 92.42 193.843 94.3901 193.843 96.3701ZM194.233 84.04C194.583 83.86 195.603 83.2801 196.143 82.0301C196.853 80.3801 196.173 78.87 196.013 78.54C195.183 76.82 193.513 76.3 193.163 76.2C192.793 76.1 190.933 75.57 189.463 76.75C188.203 77.76 188.123 79.3 188.103 79.69C188.013 81.45 189.023 82.68 189.463 83.14C189.803 83.49 190.583 84.2701 191.843 84.4601C193.033 84.6401 193.943 84.19 194.233 84.04ZM177.653 84.4601C178.923 84.2701 179.693 83.49 180.033 83.14C180.473 82.69 181.493 81.45 181.393 79.69C181.373 79.31 181.293 77.77 180.033 76.75C178.563 75.57 176.703 76.09 176.333 76.2C175.983 76.3 174.313 76.82 173.483 78.54C173.323 78.87 172.643 80.3801 173.353 82.0301C173.893 83.2801 174.913 83.86 175.263 84.04C175.543 84.19 176.463 84.6401 177.653 84.4601ZM185.313 88.3001C185.853 88.6901 185.843 88.72 185.943 88.75C186.343 88.87 186.963 88.63 187.133 88.16C187.293 87.71 186.973 87.26 186.843 87.08C186.693 86.87 186.533 86.7501 186.483 86.7101C186.153 86.4601 185.643 85.91 184.833 84.63C184.773 84.47 184.623 84.36 184.453 84.36C184.273 84.36 184.113 84.5001 184.073 84.6801C183.393 86.0001 182.833 86.57 182.433 86.83C182.363 86.88 182.143 87.0101 182.023 87.2801C181.863 87.6101 181.823 88.1501 182.183 88.5201C182.553 88.9101 183.123 88.87 183.443 88.73C183.553 88.68 183.513 88.6801 184.033 88.3001C184.493 87.9701 184.583 87.9301 184.683 87.9301C184.783 87.9301 184.873 87.9701 185.313 88.3001Z" fill="#FDFFFC"/>
<path d="M203.603 77.42C203.673 76.65 203.693 75.64 203.503 74.48C203.253 72.92 202.733 71.7 202.303 70.88C202.843 70.55 203.373 70.22 203.913 69.89C203.813 69.41 203.653 68.3 204.133 67.05C204.283 66.66 204.753 65.4799 206.013 64.6899C206.413 64.4399 207.293 63.9 208.503 64.02C208.883 64.06 210.113 64.24 210.933 65.3C211.523 66.07 211.583 66.91 211.603 67.28C211.653 68.13 211.403 68.79 211.253 69.13C211.633 69.06 212.453 68.95 213.393 69.29C213.723 69.41 214.843 69.81 215.433 70.98C215.943 71.98 215.763 72.93 215.693 73.31C215.643 73.54 215.463 74.38 214.763 75.16C213.813 76.24 212.563 76.47 212.083 76.56C209.753 77 207.873 75.69 207.453 75.38C206.183 76.05 204.893 76.74 203.603 77.42Z" fill="#FDFFFC"/>
<path d="M166.553 77.66C166.513 76.88 166.543 75.88 166.783 74.73C167.103 73.18 167.673 71.9801 168.143 71.1801C167.623 70.8301 167.103 70.4701 166.583 70.1201C166.703 69.6501 166.913 68.55 166.493 67.27C166.363 66.87 165.943 65.67 164.723 64.83C164.343 64.56 163.473 63.99 162.263 64.05C161.883 64.07 160.643 64.19 159.783 65.22C159.153 65.97 159.063 66.8 159.023 67.17C158.943 68.02 159.153 68.69 159.293 69.04C158.913 68.95 158.093 68.81 157.153 69.1C156.813 69.21 155.683 69.56 155.033 70.7C154.483 71.67 154.613 72.63 154.673 73.02C154.713 73.25 154.863 74.1 155.513 74.91C156.413 76.03 157.653 76.3201 158.123 76.4301C160.433 76.9701 162.373 75.75 162.803 75.46C164.043 76.18 165.303 76.92 166.553 77.66Z" fill="#FDFFFC"/>
<path d="M168.993 88.02C167.073 89.33 165.163 90.63 163.243 91.94C162.653 91.65 161.053 90.97 159.083 91.4C158.313 91.57 156.493 91.97 155.643 93.64C155.593 93.75 154.693 95.6 155.713 97.26C156.473 98.49 157.793 98.79 158.083 98.86C158.963 99.06 159.703 98.92 160.083 98.81C159.973 99.12 159.713 99.95 160.003 100.9C160.373 102.14 161.393 102.71 161.753 102.91C162.043 103.07 163.003 103.6 164.243 103.4C165.843 103.14 166.703 101.86 166.933 101.54C168.363 99.43 167.383 96.9 167.273 96.63C169.373 94.91 171.463 93.18 173.563 91.46C172.813 91.15 171.853 90.66 170.853 89.88C170.053 89.23 169.443 88.57 168.993 88.02Z" fill="#FDFFFC"/>
<path d="M200.133 88.51C202.103 89.73 204.073 90.95 206.043 92.17C206.613 91.86 208.193 91.1 210.173 91.45C210.953 91.58 212.783 91.9 213.703 93.54C213.763 93.65 214.743 95.46 213.793 97.16C213.083 98.42 211.783 98.78 211.493 98.86C210.623 99.1 209.883 98.99 209.493 98.9C209.623 99.21 209.913 100.02 209.663 100.99C209.343 102.24 208.353 102.86 208.003 103.08C207.723 103.25 206.783 103.82 205.533 103.68C203.923 103.49 203.003 102.25 202.763 101.94C201.243 99.89 202.113 97.32 202.213 97.05C200.043 95.42 197.873 93.79 195.703 92.16C196.433 91.82 197.373 91.28 198.343 90.46C199.133 89.75 199.713 89.07 200.133 88.51Z" fill="#FDFFFC"/>
<path d="M334.553 178.15C334.413 177.84 334.283 177.46 334.173 177.02C334.023 176.38 334.003 175.81 334.023 175.38C334.413 175.11 336.383 173.69 336.893 170.98C337.363 168.48 336.273 166.58 336.003 166.13C328.723 162.43 320.763 158.8 312.133 155.41C291.673 147.38 272.593 142.76 256.223 140.09C266.363 140.83 277.493 142.14 289.413 144.3C298.923 146.03 307.753 148.09 315.843 150.3C307.093 146.17 296.073 141.52 283.033 137.28C278.523 135.81 267.243 132.27 251.883 129.11C238.093 126.27 202.493 119.21 160.093 123.75C146.303 125.23 133.963 127.5 129.583 128.35C116.493 130.87 105.383 133.72 96.793 136.17C100.953 133.71 106.953 130.5 114.523 127.58C121.653 124.83 130.183 122.39 146.053 120.05C165.973 117.11 182.343 116.83 190.983 116.88C214.103 117.01 232.663 119.75 243.963 121.84C253.743 123.64 265.823 125.92 281.243 131.29C298.943 137.45 312.063 144.56 319.543 148.65C327.083 152.78 333.303 156.63 337.923 159.63C338.333 160.74 338.883 162.4 339.263 164.48C339.753 167.14 340.083 168.94 339.523 171.25C339.323 172.08 338.763 174.33 336.843 176.36C336.003 177.22 335.163 177.79 334.553 178.15Z" fill="#802424"/>
<path d="M93.0928 146.64C93.7428 144.81 94.3828 142.98 95.0328 141.15C99.7828 140.32 104.663 139.57 109.673 138.91C130.863 136.13 150.643 135.56 168.583 136.29C157.173 137.06 145.103 138.24 132.453 139.93C118.473 141.8 105.333 144.1 93.0928 146.64Z" fill="#802424"/>
<path d="M335.563 179.72C337.183 179.85 340.663 179.86 343.283 177.57C346.743 174.54 346.533 169.39 346.393 166.11C346.283 163.47 345.733 161.32 345.263 159.89C345.583 159.83 345.913 159.77 346.253 159.7C346.693 159.61 347.123 159.5 347.533 159.39C347.723 159.75 347.973 160.26 348.233 160.88C348.473 161.44 348.683 161.93 348.873 162.61C349.043 163.22 349.153 163.8 349.213 164.31C351.233 163.9 353.513 163.58 356.023 163.46C362.053 163.16 367.163 164.11 370.913 165.16C369.433 165.51 367.093 165.97 364.193 166.18C361.513 166.38 360.553 166.2 358.913 166.44C356.963 166.72 354.163 167.57 350.913 170.27C351.753 171.03 353.003 172.04 354.653 172.99C355.933 173.72 357.753 174.6 360.783 175.37C366.473 176.83 372.403 176.91 375.093 176.88C373.643 177.52 371.913 178.16 369.943 178.66C366.203 179.6 362.893 179.7 360.413 179.57C356.673 177.27 352.943 174.96 349.203 172.66C348.933 173.49 348.523 174.49 347.923 175.55C347.363 176.55 346.763 177.37 346.223 178.02C347.483 178.77 349.283 180.03 350.993 182.02C353.233 184.63 354.193 187.14 354.653 188.4C355.873 191.72 356.063 194.71 356.013 196.74C355.213 194.68 353.973 192.07 352.013 189.34C349.673 186.06 347.143 183.78 345.203 182.28C344.703 182.34 344.203 182.4 343.693 182.46C344.273 183.39 344.503 184.19 344.603 184.75C344.833 185.97 344.543 186.53 344.773 187.9C344.923 188.76 345.173 189.36 345.453 190.03C346.583 192.69 348.753 195.07 349.543 195.9C348.623 195.92 346.813 195.84 344.943 194.79C342.863 193.63 341.913 191.9 341.203 190.7C339.283 187.46 339.373 184.13 339.503 182.7C338.853 182.67 338.203 182.64 337.543 182.61C336.733 182.57 335.933 182.53 335.133 182.49C335.273 181.57 335.413 180.65 335.563 179.72Z" fill="#802424"/>
<path d="M269.171 407.08C250.421 410.81 225.581 413.86 196.491 412.36C171.471 411.07 150.091 406.76 133.361 402.15C134.231 389.13 135.101 376.1 135.971 363.08C129.841 364.02 123.711 364.95 117.591 365.89C114.951 361.72 112.311 357.55 109.681 353.38C113.831 341.52 119.621 327.74 127.811 313.04C135.241 299.7 143.041 288.47 150.251 279.28C153.081 280.05 156.051 280.8 159.161 281.49C162.251 282.18 165.241 282.77 168.121 283.27C170.721 286.26 175.311 290.7 182.191 293.64C191.381 297.57 199.571 296.63 207.211 295.68C220.441 294.04 231.111 289.16 238.701 284.53C245.061 283.74 251.931 282.62 259.191 281.05C268.531 279.02 276.981 276.57 284.481 274.01C287.801 277.14 292.461 281.91 297.331 288.28C300.301 292.17 306.491 300.76 315.511 321.56C319.741 331.31 324.841 344.33 329.581 360.19C322.661 367.28 315.741 374.37 308.811 381.47C296.191 381.91 283.561 382.35 270.941 382.79C271.001 384.33 271.021 386.76 270.741 389.73C270.411 393.31 269.891 394.92 269.491 398.23C269.271 400.25 269.021 403.28 269.171 407.08Z" fill="#BE3839"/>
<path d="M292.831 282.72C293.951 284.01 295.091 285.38 296.231 286.84C297.661 288.66 298.961 290.43 300.141 292.15C294.931 294.9 288.881 297.71 282.011 300.26C273.901 303.27 266.371 305.28 259.801 306.64C259.141 304.75 258.361 302.73 257.441 300.64C256.741 299.07 256.031 297.59 255.311 296.21C262.481 294.75 270.731 292.47 279.591 288.89C284.461 286.94 288.871 284.84 292.831 282.72Z" fill="#222222"/>
<path d="M136.111 362.44C137.341 353.19 139.361 342.72 142.621 331.42C144.801 323.87 147.251 316.97 149.761 310.76" stroke="#1B1819" stroke-miterlimit="10"/>
<path d="M270.591 365.9C270.561 361.96 270.381 357.87 270.031 353.62C268.511 335.39 264.151 319.65 259.211 306.84" stroke="#1B1819" stroke-miterlimit="10"/>
<path d="M323.371 341.32C323.981 343.02 324.591 344.75 325.201 346.5C325.891 348.51 326.551 350.49 327.191 352.45C321.271 354.22 314.801 355.86 307.801 357.21C293.921 359.88 281.281 360.77 270.461 360.79C270.391 358.97 270.281 357.09 270.141 355.16C270.001 353.26 269.831 351.41 269.641 349.63C280.501 349.64 293.321 348.67 307.391 345.61C313.111 344.35 318.451 342.89 323.371 341.32Z" fill="#222222"/>
<path d="M315.951 322.53C316.741 324.05 317.531 325.72 318.291 327.55C319.121 329.55 319.791 331.45 320.331 333.22C314.481 335.09 307.991 336.84 300.891 338.26C288.901 340.67 277.971 341.61 268.611 341.8C268.381 339.95 268.071 337.99 267.661 335.94C267.361 334.44 267.041 333 266.691 331.63C276.861 330.93 288.241 329.44 300.481 326.65C305.941 325.41 311.101 324.02 315.951 322.53Z" fill="#222222"/>
<path d="M306.131 302.06C307.041 303.55 307.951 305.17 308.851 306.93C309.821 308.83 310.651 310.65 311.361 312.36C305.841 314.62 299.691 316.83 292.931 318.78C282.701 321.74 273.251 323.5 264.961 324.54C264.481 322.79 263.981 321.02 263.451 319.21C262.991 317.66 262.531 316.14 262.051 314.65C271.131 312.98 281.051 310.61 291.561 307.24C296.701 305.6 301.551 303.86 306.131 302.06Z" fill="#222222"/>
<path d="M266.121 388.26C266.221 388.86 266.551 390.35 267.821 391.68C268.741 392.64 269.741 393.09 270.301 393.29C270.211 393.82 269.901 395.66 269.811 396.19C269.701 396.82 269.371 398.75 269.271 399.38C242.311 404.68 206.311 407.97 165.361 400.87C154.011 398.9 143.461 396.34 133.771 393.45C134.031 391.6 134.251 389.63 134.401 387.55C134.511 386.02 134.571 384.55 134.601 383.14C145.011 385.62 156.211 387.78 168.171 389.38C205.871 394.43 239.311 392.39 266.121 388.26Z" fill="#222222"/>
<path d="M270.281 366.08C270.441 366.44 270.591 366.84 270.721 367.28C271.261 369.14 271.121 370.82 270.901 371.96C270.811 372.49 270.501 374.33 270.411 374.86C270.301 375.49 269.971 377.42 269.871 378.05C241.341 382.51 205.861 384.56 166.031 378.65C155.211 377.05 144.991 374.99 135.401 372.64C135.511 371.11 135.711 368.44 135.821 366.9C135.901 365.73 136.091 363.19 136.171 362.03C146.311 364.43 157.191 366.5 168.761 368.04C207.951 373.27 242.651 370.76 270.281 366.08Z" fill="#222222"/>
<path d="M269.211 346.04C269.431 347.49 269.631 349 269.801 350.57C270.071 353.07 270.231 355.47 270.311 357.73C242.191 361.81 207.581 363.54 168.821 357.98C157.851 356.41 147.481 354.39 137.751 352.08C138.041 350.22 138.391 348.26 138.831 346.23C139.181 344.62 139.551 343.07 139.951 341.6C149.801 343.9 160.351 345.89 171.561 347.38C209.081 352.37 242.401 350.28 269.211 346.04Z" fill="#222222"/>
<path d="M265.101 325.05C265.511 326.4 265.901 327.82 266.261 329.3C266.871 331.79 267.331 334.17 267.671 336.4C240.511 340.3 207.621 341.92 170.931 337.09C160.921 335.77 151.411 334.08 142.421 332.12C142.881 330.65 143.821 327.64 144.281 326.17C144.591 325.19 145.451 322.45 145.761 321.47C154.471 323.44 163.741 325.15 173.551 326.45C208.611 331.1 239.831 329.11 265.101 325.05Z" fill="#222222"/>
<path d="M259.351 305.36C259.981 306.78 260.601 308.38 261.171 310.14C261.871 312.32 262.361 314.36 262.701 316.18C234.721 320.04 202.261 321.2 166.811 316.16C160.641 315.28 154.641 314.25 148.821 313.1C149.241 311.52 149.801 309.78 150.531 307.93C151.281 306.04 152.081 304.36 152.871 302.9C158.281 303.9 163.841 304.8 169.551 305.56C202.621 309.96 232.961 308.91 259.351 305.36Z" fill="#222222"/>
<path d="M134.281 388.52C131.621 388.29 128.231 387.91 124.321 387.24C122.971 387.01 119.901 386.32 113.821 384.96C113.821 384.96 107.481 383.55 101.761 380.68C101.211 380.4 100.211 379.86 99.5913 378.77C98.9313 377.61 99.0213 376.42 99.0813 375.71C99.4313 371.7 100.361 368.69 100.361 368.69C102.081 363.08 102.311 358.27 104.061 354.9C104.351 354.34 104.991 353.23 106.231 352.47C106.561 352.27 107.171 351.91 108.021 351.83C109.361 351.71 110.361 352.36 110.701 352.6C111.221 353.18 112.031 354.02 113.131 354.9C116.011 357.22 118.881 358.14 124.491 359.88C128.131 361.01 130.671 361.54 132.021 361.79C133.621 362.09 135.021 362.29 136.111 362.43C135.501 371.13 134.891 379.83 134.281 388.52Z" fill="#FCFCFB"/>
<path d="M249.731 286.13C250.791 287.54 251.901 289.17 252.981 291.01C254.161 293.03 255.101 294.95 255.851 296.69C220.301 301.7 188.151 300.95 159.581 296.88C158.091 296.67 156.601 296.45 155.131 296.22C155.571 294.6 156.131 292.84 156.831 290.99C157.551 289.09 158.321 287.37 159.091 285.83C160.161 285.98 161.241 286.13 162.321 286.28C165.721 286.73 169.071 287.12 172.351 287.46C173.691 288.64 175.671 290.2 178.281 291.67C188.111 297.23 197.991 296.51 205.701 295.86C217.501 294.85 226.941 291.05 233.331 287.7C238.791 287.17 244.261 286.65 249.731 286.13Z" fill="#222222"/>
<path d="M251.201 288.19C257.801 286.7 265.271 284.52 273.261 281.29C277.901 279.41 282.131 277.41 285.951 275.4C285.461 274.93 284.981 274.46 284.491 274C279.431 275.72 275.081 277.01 271.721 277.95C261.011 280.94 253.071 282.34 250.741 282.74C249.241 283 248.001 283.19 247.181 283.32C248.521 284.94 249.861 286.57 251.201 288.19Z" fill="black"/>
<path d="M139.221 345.97C138.691 347.87 138.201 349.91 137.751 352.08C137.361 353.98 137.061 355.81 136.821 357.54C134.581 356.82 132.301 356.05 129.981 355.2C123.391 352.8 117.341 350.17 111.831 347.45C112.451 345.66 113.151 343.8 113.931 341.88C114.551 340.35 115.191 338.88 115.831 337.47C121.651 340.39 128.271 343.05 135.671 345.07C136.871 345.4 138.051 345.7 139.221 345.97Z" fill="#222222"/>
<path d="M143.821 327.42C143.191 329.33 142.571 331.34 141.991 333.45C141.511 335.2 141.081 336.9 140.701 338.54C139.471 338.12 138.241 337.69 137.001 337.24C130.681 334.94 124.781 332.39 119.311 329.72C119.931 328.06 120.701 326.27 121.631 324.39C122.471 322.7 123.341 321.17 124.181 319.8C129.841 322.77 136.001 325.29 142.691 327.12C143.071 327.23 143.441 327.33 143.821 327.42Z" fill="#222222"/>
<path d="M150.091 309.68C149.511 311.13 148.941 312.61 148.371 314.12C147.561 316.27 146.811 318.39 146.111 320.46C145.361 320.2 144.611 319.93 143.861 319.66C138.231 317.62 132.881 315.39 127.821 313.03C128.501 311.57 129.301 310 130.251 308.37C131.271 306.61 132.311 305.04 133.311 303.65C138.891 305.66 144.491 307.67 150.091 309.68Z" fill="#222222"/>
<path d="M156.881 292.27C156.051 293.86 155.211 295.69 154.451 297.76C153.861 299.35 153.411 300.87 153.051 302.26C152.021 301.94 150.991 301.6 149.941 301.25C145.651 299.8 141.601 298.22 137.801 296.57C138.651 295.07 139.631 293.47 140.791 291.8C141.881 290.23 142.971 288.82 144.021 287.55C146.871 288.86 150.021 290.13 153.471 291.24C154.631 291.62 155.761 291.96 156.881 292.27Z" fill="#222222"/>
<path d="M160.721 281.82C160.181 283.16 159.631 284.5 159.091 285.83C158.531 285.62 156.971 285.03 156.411 284.82C153.711 283.8 151.021 282.78 148.331 281.76C148.611 281.37 148.911 280.98 149.211 280.59C149.561 280.14 149.911 279.7 150.251 279.28C152.041 279.77 153.881 280.24 155.771 280.7C157.451 281.09 159.101 281.47 160.721 281.82Z" fill="black"/>
<path d="M286.831 276.27C286.051 275.49 285.271 274.73 284.491 274C277.291 276.46 269.181 278.83 260.231 280.81C252.411 282.55 245.071 283.74 238.321 284.57C231.951 287.68 228.541 291.8 226.961 294.06C224.711 297.27 223.651 300.26 222.701 302.91C221.201 307.1 220.591 310.61 219.981 315.34C218.491 326.79 218.331 333.48 218.331 333.48C217.801 355.18 217.541 366.03 217.601 370.83C217.751 382.49 217.821 399.54 217.431 421.55C220.541 422.4 223.891 423.11 227.471 423.59C246.221 426.14 262.171 421.37 272.391 417.05C271.051 414.75 270.311 412.61 269.891 410.82C269.171 407.74 269.321 405.17 269.631 400.16C269.801 397.49 270.041 395.16 270.281 393.28C271.661 392.66 273.051 392.04 274.431 391.41C274.521 383.32 274.601 375.24 274.691 367.15C274.881 362.85 274.791 357.76 274.091 352.09C273.331 345.94 272.041 340.62 270.691 336.26C269.091 333.85 267.021 330.18 265.581 325.37C265.001 323.41 262.521 314.55 265.241 303.24C266.911 296.31 269.191 286.97 277.501 282.64C282.891 279.83 288.431 280.39 291.211 280.89C289.861 279.38 288.391 277.83 286.831 276.27Z" fill="black"/>
<path d="M168.881 283.4C165.791 282.87 162.581 282.24 159.251 281.5C156.121 280.8 153.121 280.05 150.261 279.27C149.331 280.48 148.411 281.69 147.481 282.9C147.831 284.36 148.231 286.52 148.251 289.16C148.271 292.05 147.811 294.23 147.611 295.16C143.321 315.15 141.341 322.29 141.341 322.29C138.281 333.31 136.481 339.82 134.591 348.13C133.081 354.78 132.041 360.26 131.401 363.83C130.031 373.68 128.791 383.81 127.701 394.21C127.031 400.65 126.431 406.99 125.911 413.23C130.391 414.85 136.021 416.46 142.631 417.44C148.481 418.31 153.711 418.47 158.081 418.33C159.551 390.78 161.971 369.29 163.951 354.5C165.391 343.77 167.871 327.16 168.671 304.07C168.971 295.37 168.941 288.17 168.881 283.4Z" fill="black"/>
<path d="M126.951 385.8C126.971 385.07 127.001 384.01 127.041 382.74C127.111 380.75 127.201 379.09 127.301 377.25C127.421 374.95 127.351 376.29 128.481 366.94C128.541 366.41 128.691 365.2 129.601 364.32C130.201 363.74 130.891 363.53 131.231 363.43C132.461 363.06 133.521 363.31 134.011 363.46C135.641 363.88 137.841 364.42 140.461 364.99C147.131 366.46 152.201 367.23 153.481 367.42C158.731 368.19 162.341 368.45 167.271 368.82C188.891 370.48 189.721 371.06 200.841 371.5C205.181 371.67 208.761 371.7 215.901 371.76C226.241 371.84 237.121 371.91 250.751 371.25C255.731 371.01 262.631 370.59 270.901 369.83C272.061 370.47 273.211 371.12 274.371 371.76C274.201 377.16 274.031 382.57 273.861 387.97C273.901 388.17 274.271 390.18 272.841 391.67C271.901 392.65 270.721 392.83 270.351 392.87C270.231 393.96 270.101 395.05 269.981 396.15C254.351 397.75 241.741 398.21 232.761 398.31C231.471 398.32 227.531 398.37 222.361 398.3C212.921 398.16 204.521 397.68 193.311 397.04C160.621 395.16 147.541 392.62 138.801 390.53C134.501 389.5 130.981 388.52 128.651 387.85C128.571 387.85 127.751 387.84 127.251 387.15C126.811 386.55 126.931 385.9 126.951 385.8Z" fill="#5E3F2D"/>
<path d="M327.681 360.68C328.291 360.46 329.691 360.05 331.361 360.4C333.131 360.77 334.201 361.79 334.731 362.31C336.451 364.01 336.811 365.88 337.541 369.46C337.911 371.27 339.081 377.07 339.291 383.25C339.321 384.06 339.351 385.35 338.521 386.57C338.251 386.96 337.721 387.61 335.151 389.06C334.131 389.64 332.931 390.31 331.471 390.91C324.791 393.65 317.061 394.74 317.061 394.74C313.761 395.21 306.021 396.18 294.341 396.27C294.341 396.27 290.181 396.3 273.161 393.97C271.971 393.81 269.341 393.41 267.691 391.54C267.491 391.32 267.001 390.73 266.411 389.13C265.891 387.73 265.481 386.07 265.301 382.73C265.201 380.86 265.281 379.02 265.441 375.33C265.601 371.66 265.741 370.58 266.661 369.48C267.731 368.21 269.171 367.7 269.651 367.54C272.401 366.61 274.851 367.57 277.361 368.18C278.541 368.46 281.631 368.58 287.811 368.82C298.231 369.22 307.541 367.32 308.921 367.03C313.741 366.02 320.351 364.19 327.681 360.68Z" fill="#FCFCFB"/>
<path d="M321.181 384.6C323.943 384.6 326.181 382.361 326.181 379.6C326.181 376.839 323.943 374.6 321.181 374.6C318.42 374.6 316.181 376.839 316.181 379.6C316.181 382.361 318.42 384.6 321.181 384.6Z" fill="#ACADAF"/>
<path d="M112.961 375.52C115.722 375.52 117.961 373.281 117.961 370.52C117.961 367.759 115.722 365.52 112.961 365.52C110.2 365.52 107.961 367.759 107.961 370.52C107.961 373.281 110.2 375.52 112.961 375.52Z" fill="#ACADAF"/>
<path d="M282.971 387.07C285.733 387.07 287.971 384.831 287.971 382.07C287.971 379.309 285.733 377.07 282.971 377.07C280.21 377.07 277.971 379.309 277.971 382.07C277.971 384.831 280.21 387.07 282.971 387.07Z" fill="#ACADAF"/>
<path d="M204.981 398.76C204.831 399.24 204.271 400.83 202.621 401.95C201.131 402.95 199.641 402.99 199.111 402.97C188.321 402.33 177.541 401.69 166.751 401.06C166.131 400.77 164.931 400.09 163.961 398.73C162.631 396.85 162.631 394.88 162.661 394.23C162.961 386.19 163.261 378.14 163.551 370.1C163.551 369.68 163.611 367.97 164.951 366.53C166.601 364.76 168.851 364.85 169.161 364.87C180.141 365.34 191.121 365.81 202.101 366.27C202.641 366.48 204.091 367.12 205.161 368.7C206.181 370.19 206.301 371.69 206.311 372.27C205.881 381.1 205.431 389.93 204.981 398.76ZM197.001 376.03C197.021 375.92 197.191 375.01 196.551 374.24C195.891 373.45 194.941 373.47 194.831 373.47C187.921 373.09 181.001 372.7 174.091 372.32C173.401 372.02 172.591 372.14 172.051 372.64C171.281 373.34 171.471 374.38 171.481 374.43C171.221 379.94 170.971 385.45 170.711 390.96C170.691 391.02 170.361 391.87 170.901 392.62C171.361 393.25 172.071 393.31 172.181 393.32C179.311 393.66 186.431 394 193.561 394.34C193.781 394.35 194.431 394.37 195.101 393.95C195.771 393.53 196.041 392.94 196.121 392.74C196.411 387.18 196.701 381.61 197.001 376.03Z" fill="#F3B43C"/>
<path d="M260.001 399.84C261.931 401.96 264.181 404.17 266.811 406.35C267.721 407.11 268.631 407.81 269.521 408.48C269.751 410.11 270.241 412.55 271.461 415.28C275.411 424.09 283.321 427.74 285.091 428.51C289.631 430.47 293.841 430.78 296.741 430.69C298.961 432.15 301.441 433.64 304.171 435.08C307.621 436.91 310.911 438.36 313.911 439.53C314.581 439.89 316.021 440.79 316.771 442.51C318.241 445.86 315.771 449.26 315.401 449.77C313.691 452.12 311.291 452.94 309.661 453.47C306.011 454.66 302.641 454.33 299.701 453.73C294.751 452.72 290.171 450.76 283.611 446.71C278.381 443.47 274.591 440.47 267.011 434.45C258.771 427.91 255.661 424.9 253.991 423.22C250.651 419.86 248.081 416.85 246.331 414.67C250.891 409.71 255.451 404.78 260.001 399.84Z" fill="#513626"/>
<path d="M295.391 446.65C284.031 441.78 276.451 435.62 267.651 428.35C262.991 424.51 256.741 418.97 249.861 411.67C248.691 412.66 247.521 413.66 246.351 414.65C247.501 416.09 249.191 418.12 251.351 420.44C252.591 421.77 255.901 425.26 263.891 431.92C267.881 435.25 271.731 438.46 277.321 442.43C283.951 447.15 287.831 449.23 290.541 450.55C292.661 451.58 296.501 453.33 301.451 454.02C303.871 454.36 305.551 454.3 307.031 454.08C309.651 453.68 311.661 452.75 312.921 452.05C308.741 451.23 302.511 449.7 295.391 446.65Z" fill="#3D2614"/>
<path d="M221.321 386.69C220.711 386.33 219.151 385.29 218.511 383.37C217.571 380.51 219.161 377.17 221.831 375.71C223.931 374.56 227.071 374.38 229.231 376.35C231.121 378.07 231.531 380.73 230.891 382.86C229.881 386.24 226.531 387.26 226.291 387.33C225.421 388.6 224.151 390.76 223.481 393.71C222.491 398.09 223.391 401.61 223.741 402.77C224.301 404.68 225.361 408.29 228.851 410.81C231.171 412.49 233.551 412.95 234.851 413.11C238.551 408.56 242.381 403.96 246.341 399.32C250.151 394.85 253.941 390.51 257.701 386.3C258.041 386.09 259.571 385.2 261.401 385.66C263.881 386.29 264.721 388.84 264.851 389.23C265.411 391.05 264.841 392.71 264.471 393.7C261.991 400.31 258.731 404.68 258.731 404.68C254.321 410.59 252.111 413.54 248.011 416.42C245.361 418.28 242.431 420.29 238.051 420.89C236.521 421.1 233.011 421.53 229.111 419.87C224.931 418.08 222.781 414.93 221.451 412.98C218.311 408.37 217.651 403.74 217.491 401.49C216.961 394.11 220.081 388.63 221.321 386.69Z" fill="#F3B43C"/>
<path d="M242.811 405.8C243.861 406.07 244.731 406.05 245.361 405.97C249.071 405.5 251.371 401.93 251.911 399.5C252.181 398.3 251.961 397.62 251.821 397.29C251.391 396.26 250.481 395.76 250.121 395.59C244.701 391.16 239.281 386.74 233.861 382.31C232.901 381.34 231.951 380.37 230.991 379.41C231.131 380.05 231.271 381.14 230.971 382.4C230.501 384.32 229.281 385.45 228.841 385.85C227.891 386.71 226.911 387.13 226.291 387.34C226.411 387.87 226.641 388.56 227.061 389.3C227.421 389.93 227.791 390.36 228.001 390.58C235.321 398.11 242.811 405.8 242.811 405.8Z" fill="#513626"/>
<path d="M233.871 382.31C234.911 383.16 235.941 384 236.981 384.85C235.481 388.29 233.971 391.73 232.471 395.17C232.941 390.88 233.401 386.6 233.871 382.31Z" fill="#3D2614"/>
<path d="M234.551 397.31C237.201 394.66 239.851 392.01 242.501 389.36C240.491 392.67 238.491 395.99 236.481 399.3C235.841 398.64 235.201 397.98 234.551 397.31Z" fill="#3D2614"/>
<path d="M235.071 397.84C237.551 395.01 240.031 392.19 242.511 389.36C240.321 392.5 238.131 395.65 235.951 398.79C235.651 398.47 235.361 398.16 235.071 397.84Z" fill="#5E3F2D"/>
<path d="M248.071 393.93C248.761 394.48 249.441 395.04 250.131 395.59C246.551 397.83 242.981 400.06 239.401 402.3C242.291 399.51 245.181 396.72 248.071 393.93Z" fill="#3D2614"/>
<path d="M241.061 404C240.511 403.43 239.951 402.86 239.401 402.3C242.981 400.05 246.551 397.81 250.131 395.56C247.101 398.37 244.081 401.19 241.061 404Z" fill="#5E3F2D"/>
<path d="M234.861 383.12C235.311 383.48 235.751 383.85 236.201 384.21C234.961 387.86 233.711 391.52 232.471 395.17C233.271 391.15 234.061 387.14 234.861 383.12Z" fill="#5E3F2D"/>
<path d="M210.38 508.2C210.1 506.28 209.89 503.52 210.33 500.24C210.58 498.32 211.16 494.3 213.78 489.93C215.84 486.5 218.34 484.21 220.19 482.81C218.81 479.32 217.46 475.15 216.51 470.35C215.99 467.72 215.65 465.25 215.44 462.96C215.87 461.56 216.29 460.15 216.72 458.75C217.4 458.87 218.42 459.05 219.66 459.26C223.79 459.97 227.3 460.52 228.21 460.66C233.34 461.45 239.41 461.37 244.3 461.3C249.51 461.22 256.09 461.1 264.77 460.03C271.47 459.2 279.82 457.76 289.26 455.13C289.62 455.09 290.32 455.07 291.1 455.39C291.39 455.51 292.34 455.91 292.85 456.91C293.59 458.37 292.76 459.88 292.68 460.02C292.66 470.09 292.46 480.44 292.04 491.04C291.83 496.35 291.57 501.58 291.27 506.74C280.75 509.85 271.51 511.4 264.33 512.23C258.37 512.91 248.46 514 235.48 512.87C225.17 511.99 216.62 510.01 210.38 508.2Z" fill="black"/>
<path d="M125.27 502.96C124.97 500.8 124.39 494.53 127.93 487.85C131.77 480.62 137.97 477.6 139.89 476.75C138.67 471.55 137.45 466.34 136.23 461.14C136.12 460.78 135.83 459.65 136.35 458.4C136.67 457.63 137.16 457.14 137.46 456.89C139.84 457.57 143.25 458.44 147.4 459.14C152.81 460.05 156.79 460.23 168.21 460.29C185.53 460.38 192.39 460.06 197.8 458.39C199.68 457.81 201.53 456.97 201.53 456.97C203.58 456.11 205.3 455.27 206.65 454.55C207.26 456.06 207.88 457.57 208.49 459.08C207.84 473.47 207.19 487.86 206.54 502.25C193.53 505.88 174.93 509.31 152.79 507.61C142.37 506.82 133.12 505.04 125.27 502.96Z" fill="black"/>
<path d="M289.17 515.77C288.55 516.38 287.93 516.67 287.52 516.81C284.36 517.35 280.11 518.02 275.08 518.62C270.32 519.19 263.96 519.94 256.04 520.16C243.39 520.51 233.91 520.86 222.04 517.5C218.77 516.57 216.12 515.6 214.39 514.92C212.85 514.14 212.09 513 211.75 512.39C211.32 511.61 211.1 510.86 210.76 509.58C210.41 508.27 210.2 507.16 210.07 506.36C215.94 507.87 224.08 509.6 233.88 510.55C248.76 511.99 260.29 510.89 268.63 510.05C277.91 509.12 285.68 507.73 291.37 506.54C291.53 508.32 291.37 509.74 291.22 510.66C290.98 512.16 290.62 514.33 289.17 515.77Z" fill="#222222"/>
<path d="M205.6 509.61C205.23 510.18 204.73 510.83 204.07 511.43C202.65 512.7 201.25 513.04 200.45 513.14C197.42 513.71 193.34 514.4 188.5 515.03C183.93 515.63 177.82 516.41 170.21 516.64C152.92 517.16 140.33 514.48 137.56 513.86C134.33 513.15 131.68 512.42 129.9 511.9C129.6 511.78 129.18 511.56 128.7 511.19C128.43 510.98 127.28 510.03 126.44 508.04C126.21 507.5 125.91 506.66 125.73 505.55C125.5 504.47 125.27 503.4 125.04 502.32C131.7 504.08 139.75 505.72 148.94 506.61C152.14 506.92 165.07 508.07 182.31 506.09C189.26 505.29 197.46 503.93 206.6 501.54C206.56 503.3 206.4 505.31 206.02 507.48C205.89 508.24 205.75 508.95 205.6 509.61Z" fill="#222222"/>
<path d="M147.56 480.48C145.59 480.29 142.02 480 138.44 482.08C136.18 483.39 132.16 486.66 133.07 489.3C133.73 491.2 136.84 492.46 138.95 491.67C141.1 490.86 140.57 488.53 142.75 487.35C145.41 485.91 147.56 488.62 151.41 487.41C153.39 486.79 155.6 485.19 155.47 483.8C155.27 481.77 150.13 480.73 147.56 480.48Z" fill="#ACADAF"/>
<path d="M233.09 483.11C231.12 482.92 227.55 482.63 223.97 484.71C221.71 486.02 217.69 489.29 218.6 491.93C219.26 493.83 222.37 495.09 224.48 494.3C226.63 493.49 226.1 491.16 228.28 489.98C230.94 488.54 233.09 491.25 236.94 490.04C238.92 489.42 241.13 487.82 241 486.43C240.8 484.4 235.66 483.36 233.09 483.11Z" fill="#ACADAF"/>
<path d="M135.88 454C145.36 454.15 154.9 454.27 164.48 454.36C178.64 454.49 192.69 454.54 206.62 454.52C207.97 457.45 209.33 460.38 210.68 463.31C200.66 466.23 186.34 469.24 169 469.11C153.23 468.99 140.08 466.3 130.56 463.59C132.34 460.39 134.11 457.2 135.88 454Z" fill="black"/>
<path d="M214.84 454.22C225.18 454.58 235.71 454.83 246.45 454.95C261.95 455.12 277.06 455.02 291.75 454.69C293.37 457.98 294.99 461.28 296.61 464.57C284.51 467.09 269.16 469.17 251.38 468.98C236.19 468.82 222.9 467.03 212.04 464.84C212.97 461.3 213.9 457.76 214.84 454.22Z" fill="black"/>
</svg>
