<svg width="483" height="558" viewBox="0 0 483 558" fill="none" xmlns="http://www.w3.org/2000/svg">
<path d="M288.861 272C289.751 273.8 290.151 275.3 290.331 276.25C290.471 276.98 290.541 277.59 290.551 277.78C290.651 278.85 290.641 279.79 290.581 280.55C291.401 280.72 292.621 281.06 293.901 281.83C295.581 282.83 296.581 284.08 297.091 284.83C299.291 287.61 302.011 291.22 304.961 295.56C304.961 295.56 308.811 301.23 312.431 307.52C317.241 315.88 325.361 333.56 333.491 357.41C334.031 359 334.591 361.29 334.551 364.05C334.481 368.93 332.581 372.57 331.481 374.34C332.111 375.15 334.331 378.16 334.131 382.48C333.881 387.97 329.941 391.16 329.341 391.64C328.061 392.34 326.151 393.31 323.721 394.19C316.431 396.85 310.271 396.69 304.531 396.47C294.431 396.08 285.381 395.49 277.301 394.81C276.291 394.83 274.901 394.75 273.301 394.32C271.681 393.89 270.421 393.25 269.561 392.72C258.151 393.9 225.571 396.99 193.901 395.72C180.741 395.19 167.471 393.93 167.471 393.93C156.011 392.84 145.821 391.46 137.141 390.09C133.771 389.32 130.291 388.44 126.711 387.44C120.241 385.63 114.211 383.64 108.651 381.56C108.301 381.39 102.861 378.72 102.121 372.65C101.471 367.34 104.931 363.72 105.371 363.27C104.781 362.61 103.741 361.26 103.241 359.27C102.641 356.83 103.211 354.83 103.511 353.99C104.191 352.42 105.181 350.22 106.431 347.61C108.821 342.61 110.891 338.84 113.651 333.91C118.261 325.68 118.501 325.51 124.081 315.72C127.541 309.65 129.781 305.61 133.441 300.08C135.011 297.71 137.081 294.71 140.281 291.27C142.411 288.98 144.381 287.21 145.861 285.97C145.611 285.31 145.241 284.04 145.461 282.46C145.761 280.26 147.021 278.82 147.521 278.31C153.841 280.06 162.151 282.07 172.021 283.63C177.471 284.49 195.241 287.09 218.231 286.01C246.261 284.71 270.451 278.49 288.861 272Z" fill="#E5BF6E"/>
<path d="M214.111 286.18C212.961 286.21 211.811 286.23 210.661 286.26C211.711 288.8 212.761 291.81 213.561 295.28C214.761 300.47 215.071 305.09 215.041 308.76C216.061 308.53 217.081 308.31 218.101 308.08C217.871 304.56 217.431 300.62 216.621 296.36C215.911 292.61 215.031 289.21 214.111 286.18Z" fill="#C39A4C"/>
<path d="M227.711 285.39C228.711 285.3 229.701 285.2 230.701 285.11C231.531 287.06 232.361 289.39 233.021 292.07C233.861 295.5 234.201 298.59 234.301 301.12C233.381 301.48 232.471 301.84 231.551 302.2C231.681 300.05 231.631 297.05 230.851 293.59C230.061 290.06 228.771 287.29 227.711 285.39Z" fill="#C39A4C"/>
<path d="M249.121 296.7C248.981 294.57 248.681 292.12 248.101 289.44C247.581 287.02 246.921 284.88 246.251 283.03C245.421 283.17 244.601 283.3 243.771 283.44C244.511 285.2 245.261 287.33 245.831 289.79C246.531 292.78 246.791 295.47 246.851 297.66C247.611 297.33 248.361 297.02 249.121 296.7Z" fill="#C39A4C"/>
<path d="M260.971 292.71C261.661 292.51 262.351 292.31 263.041 292.11C263.171 290.38 263.171 288.08 262.691 285.46C262.301 283.31 261.691 281.5 261.101 280.09C260.291 280.27 259.491 280.46 258.681 280.64C259.271 282 259.861 283.67 260.301 285.62C260.921 288.37 261.031 290.82 260.971 292.71Z" fill="#C39A4C"/>
<path d="M274.871 276.5C274.111 276.73 273.341 276.96 272.581 277.19C273.101 278.3 273.681 279.76 274.111 281.56C274.661 283.88 274.771 285.92 274.751 287.4C275.551 287.05 276.351 286.7 277.141 286.35C277.111 284.92 276.941 283.15 276.471 281.15C276.031 279.29 275.441 277.73 274.871 276.5Z" fill="#C39A4C"/>
<path d="M174.361 306.28C173.531 305.66 172.701 305.04 171.871 304.42C172.431 301.59 173.231 298.43 174.361 295.05C175.711 291.03 177.261 287.53 178.761 284.58C179.751 284.69 180.751 284.8 181.741 284.9C180.291 287.65 178.811 290.89 177.491 294.61C175.961 298.9 174.991 302.86 174.361 306.28Z" fill="#C39A4C"/>
<path d="M159.101 296.31C158.371 295.58 157.651 294.85 156.921 294.11C157.071 292.13 157.401 289.78 158.051 287.21C158.611 284.99 159.301 283.05 159.991 281.41C160.791 281.57 161.591 281.73 162.391 281.9C161.571 283.64 160.711 285.85 160.081 288.47C159.351 291.5 159.131 294.19 159.101 296.31Z" fill="#C39A4C"/>
<path d="M135.541 389.73C134.481 389.52 133.381 389.26 132.251 388.97C131.661 388.82 131.091 388.66 130.541 388.49C130.021 387.81 129.141 386.44 128.851 384.5C128.401 381.48 129.711 379.17 130.131 378.5C129.291 377.19 128.161 375.1 127.581 372.33C126.901 369.1 127.341 366.53 127.641 364.35C128.201 360.34 129.261 358.12 130.771 353.88C132.341 349.48 132.161 349.19 134.341 342.07C135.841 337.18 138.631 328.49 143.631 314.6C141.931 320.25 138.851 330.8 136.321 341.63C135.881 343.51 135.091 347.01 134.151 351.65C133.821 353.31 133.201 356.86 131.981 363.97C131.681 365.7 131.361 366.71 131.341 368.31C131.291 371.58 132.241 374.25 133.061 376.01C131.871 378.04 131.481 379.86 131.341 380.99C131.121 382.71 130.771 385.39 132.451 387.56C133.441 388.85 134.761 389.45 135.541 389.73Z" fill="#9F7400"/>
<path d="M263.561 386.07C263.651 381.78 266.011 378.97 266.661 378.24C265.321 376.1 263.751 372.82 263.851 368.82C263.891 367.19 264.191 366.08 264.621 364.29C264.621 364.29 265.551 360.36 266.921 352.33C267.631 348.16 267.461 343.96 267.111 335.57C266.821 328.69 266.401 327.13 266.471 321.66C266.521 317.45 266.851 314.03 267.111 311.83C267.551 314.04 268.171 317.2 268.901 321.02C271.191 333.02 271.521 335.53 271.711 338.25C272.111 343.89 271.791 348.27 271.711 349.36C271.341 354.18 270.671 356.38 269.611 365.23C268.871 371.43 268.751 374.07 270.501 375.83C271.901 377.23 273.921 377.48 275.351 377.49C274.581 377.36 272.311 377.08 270.121 378.38C267.051 380.19 266.531 383.56 266.421 384.25C265.881 387.72 267.671 390.32 268.121 390.97C268.751 391.89 269.431 392.53 269.921 392.94C268.561 393.08 267.191 393.22 265.831 393.35C265.191 392.48 263.481 389.83 263.561 386.07Z" fill="#9F7400"/>
<path d="M277.211 385.94C277.061 389.29 276.631 392.26 276.111 394.78C275.171 394.63 274.231 394.47 273.301 394.32C273.771 391.21 274.121 387.78 274.241 384.06C274.301 382.16 274.291 380.35 274.241 378.61C275.181 378.55 276.111 378.5 277.051 378.44C277.241 380.66 277.341 383.18 277.211 385.94Z" fill="#C39A4C"/>
<path d="M288.861 272C288.111 272.26 287.361 272.52 286.621 272.78C287.101 273.83 287.631 275.27 287.941 277.04C288.231 278.7 288.231 280.15 288.151 281.25C288.961 281.02 289.771 280.78 290.591 280.55C290.671 279.49 290.671 278.09 290.381 276.48C290.031 274.57 289.391 273.05 288.861 272Z" fill="#C39A4C"/>
<path d="M147.521 278.32C147.051 278.79 146.071 279.91 145.631 281.65C145.111 283.72 145.661 285.41 145.891 286.02C146.361 286.43 146.831 286.84 147.301 287.25C147.091 286.34 146.871 284.9 147.121 283.17C147.421 281.06 148.261 279.51 148.801 278.67C148.381 278.56 147.951 278.44 147.521 278.32Z" fill="#C39A4C"/>
<path d="M288.201 379.47C289.191 379.38 290.191 379.3 291.181 379.21C291.671 381.86 292.051 384.98 292.121 388.49C292.171 391.2 292.031 393.67 291.781 395.85C290.741 395.79 289.691 395.72 288.651 395.66C288.991 393.63 289.241 391.21 289.221 388.49C289.201 384.95 288.741 381.9 288.201 379.47Z" fill="#C39A4C"/>
<path d="M323.341 375.3C322.321 375.49 321.301 375.68 320.281 375.87C320.871 377.97 321.401 380.45 321.681 383.27C322.151 387.93 321.791 391.94 321.261 394.99C322.231 394.66 323.201 394.34 324.171 394.01C324.501 391.35 324.711 388.15 324.541 384.54C324.391 381.01 323.911 377.89 323.341 375.3Z" fill="#C39A4C"/>
<path d="M307.081 377.98C306.121 378.05 305.151 378.11 304.191 378.18C304.841 380.87 305.421 384.32 305.471 388.33C305.511 391.45 305.221 394.2 304.831 396.49C305.721 396.52 306.621 396.55 307.511 396.57C307.851 394.2 308.091 391.48 308.081 388.45C308.081 384.43 307.641 380.89 307.081 377.98Z" fill="#C39A4C"/>
<path d="M108.261 365.61C109.101 365.88 109.951 366.15 110.791 366.41C110.081 367.58 109.331 369.1 108.811 370.98C107.501 375.7 108.471 379.77 109.091 381.74C108.731 381.6 108.321 381.41 107.891 381.16C107.351 380.84 106.911 380.5 106.571 380.2C106.121 378.58 105.581 375.79 106.041 372.37C106.451 369.34 107.491 367.02 108.261 365.61Z" fill="#C39A4C"/>
<path d="M120.981 385.77C119.911 385.43 118.851 385.09 117.781 384.76C117.251 382.88 116.711 380.13 116.811 376.79C116.911 373.51 117.591 370.83 118.211 369C119.061 369.42 119.911 369.84 120.761 370.25C120.131 371.77 119.341 374.22 119.271 377.32C119.191 381.17 120.261 384.15 120.981 385.77Z" fill="#C39A4C"/>
<path d="M197.721 293.17C196.761 292.91 195.791 292.66 194.831 292.4C192.731 308.1 191.061 324.96 190.061 342.87C189.301 356.49 189.001 369.53 189.041 381.93C189.941 381.89 190.851 381.85 191.751 381.81C191.711 369.75 192.021 357.06 192.781 343.8C193.821 325.81 195.551 308.89 197.721 293.17Z" fill="#C39A4C"/>
<path d="M210.491 305.34C211.511 306.28 212.531 307.21 213.551 308.15C212.391 316.64 211.491 325.77 211.001 335.47C210.141 352.38 210.681 367.84 211.941 381.51C210.921 381.45 209.901 381.4 208.881 381.34C208.131 369.61 207.781 356.87 208.071 343.25C208.351 329.68 209.251 317 210.491 305.34Z" fill="#C39A4C"/>
<path d="M229.261 304.2C228.281 304.59 227.291 304.99 226.311 305.38C227.321 312.6 228.151 320.17 228.751 328.07C230.201 347.21 230.011 364.88 228.911 380.73C229.881 380.67 230.851 380.6 231.821 380.54C232.591 368.99 232.911 356.25 232.461 342.5C231.991 328.6 230.811 315.78 229.261 304.2Z" fill="#C39A4C"/>
<path d="M249.121 296.7C248.151 297.05 247.181 297.39 246.211 297.74C248.031 306.18 249.611 315.34 250.751 325.18C253.061 345.18 253.001 363.25 251.881 378.68C252.811 378.55 253.731 378.42 254.661 378.28C255.341 368.51 255.611 357.79 255.171 346.28C254.471 327.58 252.071 310.91 249.121 296.7Z" fill="#C39A4C"/>
<path d="M162.701 298.24C163.541 298.91 164.371 299.57 165.211 300.24C161.391 308.98 157.551 319.58 154.641 331.88C150.381 349.86 149.441 365.81 149.661 378.22C148.761 378.06 147.851 377.9 146.951 377.74C146.881 365.81 147.841 350.86 151.451 334.05C154.471 319.98 158.621 307.96 162.701 298.24Z" fill="#C39A4C"/>
<path d="M176.721 306.42C177.661 306.84 178.611 307.26 179.551 307.68C177.941 313.36 176.461 319.41 175.211 325.81C171.221 346.16 170.521 364.68 171.251 380.32C170.181 380.25 169.111 380.18 168.051 380.11C167.421 369.9 167.411 357.65 168.951 343.93C170.601 329.3 173.591 316.67 176.721 306.42Z" fill="#C39A4C"/>
<path d="M316.311 376.82C317.631 376.48 318.951 376.14 320.271 375.8C320.671 373.9 321.181 371.03 321.421 367.5C321.921 360.17 321.111 351.82 313.971 331.84C312.461 327.62 310.471 322.43 303.941 307.01C299.411 296.31 295.571 287.47 292.851 281.29C292.101 281.05 291.341 280.81 290.591 280.57C290.271 280.7 289.941 280.83 289.621 280.95C292.611 287.94 296.291 296.58 300.751 307.18C303.421 313.53 307.661 323.65 311.591 335.42C311.601 335.46 315.351 345.89 317.461 358.7C317.831 360.96 318.281 364.16 317.971 368.27C317.691 371.87 316.941 374.81 316.311 376.82Z" fill="#C39A4C"/>
<path d="M292.631 379.33C293.761 379.05 294.891 378.77 296.031 378.49C296.601 368.23 296.431 355.99 294.501 342.36C291.141 318.62 283.701 299.61 277.151 286.33C276.071 286.65 275.001 286.96 273.921 287.28C278.611 297.31 283.421 309.76 287.011 324.4C292.291 345.99 293.131 365.01 292.631 379.33Z" fill="#C39A4C"/>
<path d="M114.491 368.32C113.141 367.89 111.791 367.45 110.441 367.02C110.071 363.95 109.871 359.47 110.921 354.28C111.781 350 112.971 347.84 118.661 337.34C127.611 320.83 129.931 316.45 134.471 309.29C134.791 308.78 135.661 307.44 137.381 304.74C140.121 300.47 143.791 294.75 148.181 288C148.951 288.36 149.721 288.72 150.491 289.08C145.251 297.01 141.061 303.73 138.061 308.65C133.001 316.97 135.361 313.37 122.401 336.39C117.011 345.96 114.591 351.01 113.891 355.96C113.161 361.15 113.841 365.52 114.491 368.32Z" fill="#C39A4C"/>
<path d="M149.991 391.96C148.871 391.81 147.741 391.66 146.621 391.51C146.291 389.72 146.031 387.25 146.321 384.33C146.571 381.88 147.131 379.83 147.681 378.29C148.811 378.46 149.951 378.63 151.081 378.8C150.381 380.38 149.491 382.94 149.371 386.18C149.281 388.54 149.621 390.53 149.991 391.96Z" fill="#C39A4C"/>
<path d="M168.531 394.03C169.491 394.12 170.451 394.21 171.421 394.29C171.211 392.6 171.081 390.52 171.261 388.15C171.471 385.31 172.041 382.92 172.621 381.09C171.541 380.96 170.461 380.82 169.381 380.69C168.961 382.6 168.601 384.85 168.451 387.39C168.291 389.87 168.361 392.11 168.531 394.03Z" fill="#C39A4C"/>
<path d="M189.041 395.66C190.091 395.72 191.141 395.78 192.191 395.84C192.451 391.32 192.701 386.8 192.961 382.28C191.831 382.17 190.691 382.05 189.561 381.94C189.421 384.31 189.311 386.72 189.221 389.17C189.141 391.37 189.081 393.53 189.041 395.66Z" fill="#C39A4C"/>
<path d="M213.411 381.67C212.301 381.67 211.201 381.67 210.091 381.67C210.611 383.52 211.121 386.01 211.201 388.99C211.271 391.83 210.921 394.25 210.521 396.07C211.661 396.08 212.791 396.09 213.931 396.09C214.201 394.04 214.371 391.58 214.271 388.81C214.161 386.09 213.821 383.68 213.411 381.67Z" fill="#C39A4C"/>
<path d="M234.621 381.49C233.621 381.46 232.621 381.42 231.621 381.39C232.071 383.19 232.501 385.6 232.511 388.45C232.531 391.3 232.131 393.72 231.691 395.53C232.771 395.48 233.841 395.43 234.921 395.38C235.151 393.17 235.281 390.65 235.191 387.88C235.121 385.54 234.901 383.4 234.621 381.49Z" fill="#C39A4C"/>
<path d="M255.471 378.93C254.541 379.06 253.611 379.19 252.681 379.32C253.131 381.4 253.511 383.82 253.701 386.53C253.901 389.39 253.831 391.97 253.651 394.17C254.761 394.08 255.861 393.99 256.971 393.9C256.911 391.61 256.761 389.17 256.511 386.59C256.241 383.87 255.881 381.31 255.471 378.93Z" fill="#C39A4C"/>
<path d="M331.481 374.34C331.701 374.04 331.931 373.7 332.151 373.31C332.521 372.66 332.771 372.05 332.951 371.51C325.081 373.91 314.971 376.23 303.091 377.17C289.801 378.22 278.361 377.21 269.631 375.79C269.521 375.83 268.901 376.04 268.581 376.7C268.221 377.44 268.541 378.14 268.581 378.23C276.141 379.53 285.421 380.47 296.011 380.14C310.401 379.71 322.491 377.06 331.481 374.34Z" fill="#9F7400"/>
<path d="M131.811 373.21C132.041 374.25 132.271 375.28 132.491 376.32C149.231 379.57 168.721 382.2 190.491 383.04C220.301 384.2 246.441 381.7 267.681 378.19C267.031 377.31 266.381 376.43 265.721 375.55C245.151 378.94 219.781 381.35 190.831 380.23C168.531 379.38 148.681 376.6 131.811 373.21Z" fill="#9F7400"/>
<path d="M105.371 363.28C105.121 363.5 104.841 363.78 104.561 364.14C104.311 364.46 104.111 364.78 103.971 365.05C106.421 366.56 109.571 368.19 113.381 369.51C119.371 371.59 124.711 372.1 128.531 372.15C128.471 371.35 128.401 370.56 128.341 369.76C124.641 369.64 119.681 369.07 114.151 367.21C110.671 366.05 107.741 364.63 105.371 363.28Z" fill="#9F7400"/>
<path d="M145.891 286.03C155.821 294.65 165.751 303.28 175.681 311.9C182.521 305.68 189.371 299.46 196.211 293.24C202.221 299.88 208.241 306.52 214.251 313.15C265.421 292.12 290.861 281.26 290.581 280.56C290.311 279.87 265.261 288.98 215.441 307.88C209.091 301.98 202.731 296.08 196.381 290.18C189.311 295.55 182.241 300.92 175.171 306.29C165.411 299.53 155.651 292.78 145.891 286.03Z" fill="#9F7400"/>
<path d="M193.431 322.5C198.827 322.5 203.201 318.126 203.201 312.73C203.201 307.334 198.827 302.96 193.431 302.96C188.035 302.96 183.661 307.334 183.661 312.73C183.661 318.126 188.035 322.5 193.431 322.5Z" fill="#765839"/>
<path d="M188.061 307C188.061 307.04 188.031 307.27 188.191 307.46C188.321 307.61 188.481 307.65 188.531 307.66C189.591 309.16 190.661 310.65 191.721 312.15C190.391 313.5 189.061 314.86 187.731 316.21C187.641 316.21 187.431 316.24 187.231 316.39C186.901 316.64 186.871 317.03 186.861 317.09C186.921 317.1 187.291 317.14 187.591 316.88C187.771 316.72 187.841 316.53 187.861 316.44C189.451 315.42 191.051 314.4 192.641 313.38C194.271 314.63 195.901 315.88 197.531 317.12C197.541 317.21 197.581 317.64 197.941 317.96C198.431 318.38 199.061 318.2 199.101 318.19C199.111 318.12 199.141 317.58 198.721 317.18C198.381 316.86 197.971 316.85 197.871 316.85C196.511 315.37 195.141 313.88 193.781 312.4C195.421 310.83 197.061 309.26 198.701 307.7C198.731 307.71 199.121 307.76 199.401 307.46C199.641 307.2 199.611 306.87 199.611 306.83C199.551 306.82 199.161 306.78 198.841 307.06C198.651 307.23 198.581 307.44 198.561 307.53C196.641 308.83 194.721 310.12 192.801 311.42C191.411 310.13 190.021 308.84 188.631 307.55C188.621 307.49 188.581 307.34 188.451 307.2C188.321 307.04 188.121 307.01 188.061 307Z" fill="#5B4639"/>
<path d="M253.198 296.58C246.748 299.24 240.298 301.91 233.838 304.57C232.288 307.83 230.648 311.99 229.438 316.95C228.298 321.59 227.818 325.77 227.648 329.21C206.198 328.4 184.758 327.59 163.308 326.78C163.108 322.87 163.168 318.2 163.818 312.99C164.348 308.74 165.178 304.96 166.088 301.72C162.358 298.48 158.628 295.24 154.888 292C153.208 298.54 151.668 305.64 150.408 313.25C149.668 317.75 149.078 322.09 148.618 326.27C148.208 327.04 147.748 328.12 147.468 329.46C147.058 331.46 147.258 333.15 147.468 334.18C147.138 335.17 146.678 336.67 146.188 338.52C145.208 342.29 144.958 344.47 144.528 346.69C143.638 351.29 142.078 355.51 140.828 357.92C139.508 360.46 136.268 365.52 128.358 369.52C128.248 372.42 128.108 376.81 128.058 382.18C128.058 382.18 128.018 386.61 128.058 390.35C128.198 403.29 129.898 417.9 130.438 422.39C131.268 429.24 132.498 437.74 134.348 447.5C133.988 447.55 133.228 447.7 132.578 448.31C132.418 448.47 131.978 448.92 131.688 450.03C131.598 450.39 131.218 451.93 131.878 454.56C132.308 456.28 132.578 456.05 132.708 457.18C132.818 458.18 132.638 458.58 132.648 460.82C132.648 461.97 132.698 462.31 132.908 462.67C133.348 463.46 134.198 463.79 134.888 464.01C137.178 464.75 139.638 465 141.208 465.1C147.868 466.04 154.988 466.78 162.528 467.21C178.348 468.11 192.718 467.44 205.218 466.05C205.938 465.8 207.328 465.22 208.608 463.89C209.928 462.52 210.458 461.06 210.668 460.33C210.828 458.22 210.998 456.11 211.158 454C211.208 453.69 211.428 452.04 210.328 450.68C209.798 450.03 209.178 449.7 208.798 449.53C208.828 445.96 208.858 442.4 208.898 438.83C211.948 439.2 215.008 439.58 218.058 439.95C218.188 443.63 218.318 447.31 218.438 450.99C218.228 451.03 217.358 451.2 216.718 452.01C216.028 452.89 216.118 453.86 216.148 454.05C216.448 457.71 216.748 461.37 217.038 465.03C217.308 465.68 217.828 466.69 218.798 467.67C219.598 468.48 220.418 468.96 220.998 469.25C231.188 469.98 242.578 470.27 254.958 469.76C268.178 469.21 280.208 467.85 290.848 466.12C291.138 466.13 291.868 466.12 292.618 465.68C293.238 465.31 293.578 464.83 293.728 464.57C294.038 463.06 294.308 461.41 294.498 459.63C294.818 456.53 294.818 453.72 294.668 451.29C294.588 450.96 294.358 450.17 293.658 449.46C292.968 448.76 292.188 448.52 291.858 448.44C292.558 446.01 293.208 442.99 293.518 439.5C293.868 435.56 293.668 432.13 293.328 429.4C290.798 429.54 283.498 429.6 276.668 424.69C268.798 419.03 266.948 410.65 266.328 407.84C264.818 400.98 266.058 395.27 266.878 392.44C266.328 391.34 265.788 390.24 265.238 389.14C264.878 388.04 264.128 385.23 265.108 381.93C265.748 379.8 266.848 378.31 267.578 377.48C266.888 375.79 266.188 374.11 265.498 372.42C264.098 372.37 261.978 372.11 259.678 371.07C253.868 368.43 251.378 362.7 249.978 359.58C249.138 357.7 248.538 355.85 247.668 351.82C246.708 347.34 245.588 341.02 244.998 333.16C245.218 332.18 245.408 331.15 245.568 330.07C245.978 327.27 246.078 324.7 246.018 322.44C246.428 317.29 247.488 310.95 249.978 304.06C250.978 301.31 252.078 298.82 253.198 296.58Z" fill="#007FC9"/>
<path d="M130.288 372.78C131.388 372.37 132.798 371.76 134.338 370.85" stroke="#003B6A" stroke-width="2" stroke-miterlimit="10"/>
<path d="M140.478 365.73C143.248 362.5 144.728 359.03 145.948 356.1C146.718 354.25 147.198 352.77 150.208 340.1C150.238 339.97 150.268 339.83 150.298 339.7" stroke="#003B6A" stroke-width="2" stroke-miterlimit="10" stroke-dasharray="8.03 8.03"/>
<path d="M151.218 335.79C151.618 334.08 151.968 332.61 152.248 331.41C153.748 331.46 155.248 331.51 156.748 331.56" stroke="#003B6A" stroke-width="2" stroke-miterlimit="10"/>
<path d="M165.558 331.87C187.598 332.62 209.638 333.38 231.678 334.13" stroke="#003B6A" stroke-width="2" stroke-miterlimit="10" stroke-dasharray="8.82 8.82"/>
<path d="M236.088 334.25C237.588 334.27 239.088 334.29 240.588 334.31C240.598 335.54 240.628 337.06 240.728 338.81" stroke="#003B6A" stroke-width="2" stroke-miterlimit="10"/>
<path d="M241.658 347.76C242.458 353.66 243.428 358.8 246.548 364.26C248.268 367.28 250.768 371.53 255.928 374.45C255.968 374.47 256.018 374.5 256.058 374.52" stroke="#003B6A" stroke-width="2" stroke-miterlimit="10" stroke-dasharray="9 9"/>
<path d="M260.178 376.3C261.888 376.83 263.408 377.08 264.578 377.2" stroke="#003B6A" stroke-width="2" stroke-miterlimit="10"/>
<path d="M253.198 296.58C251.928 297.11 250.668 297.64 249.398 298.16C247.358 302.51 246.078 306.42 245.268 309.48C244.178 313.58 243.008 317.97 243.228 322.37C243.248 322.72 243.338 324.56 243.288 327.03C243.238 329.32 243.208 330.5 242.908 331.88C242.588 333.34 242.178 335.19 240.738 336.92C240.158 337.62 238.238 339.93 235.188 340.05C233.468 340.11 231.038 339.49 230.018 337.69C229.598 336.95 229.548 336.25 229.568 334.75C229.638 330.82 230.138 327.92 230.138 327.92C231.428 320.54 231.028 321.57 231.668 318.73C232.418 315.43 233.198 312.99 233.708 311.39C234.718 308.24 235.758 305.56 236.648 303.45C235.618 303.88 234.588 304.3 233.558 304.73C232.778 306.57 231.838 308.94 230.928 311.77C230.348 313.57 229.548 316.09 228.868 319.43C228.048 323.49 228.608 322.85 227.638 329.21C227.258 331.68 226.938 333.34 227.188 335.78C227.518 338.89 228.438 340.05 228.788 340.44C230.128 341.96 231.928 342.35 232.618 342.48C234.638 342.88 236.238 342.33 237.468 341.91C238.688 341.49 241.208 340.58 243.088 338.02C244.438 336.18 244.858 334.29 244.998 333.17C245.228 332.16 245.538 330.61 245.748 328.71C246.038 326.06 245.958 324.48 246.018 322.45C246.018 322.45 246.118 319.52 246.978 314.6C248.318 306.97 251.968 299.12 253.198 296.58Z" fill="#00559F" stroke="#00559F" stroke-miterlimit="10"/>
<path d="M154.888 292C154.408 293.88 153.828 296.21 153.218 298.9C152.588 301.69 151.758 305.55 150.948 310.12C150.158 314.58 149.318 320.01 148.628 326.26C148.278 326.92 147.918 327.74 147.658 328.72C147.038 331 147.248 332.97 147.478 334.18C147.728 334.88 148.238 336 149.268 336.99C151.568 339.2 155.268 339.62 158.078 338.33C160.508 337.21 161.598 335.12 162.168 334.05C163.808 330.93 163.498 327.92 163.318 326.77C163.228 325.08 163.168 322.87 163.258 320.26C163.358 317.02 163.678 313.3 164.398 309.23C164.758 307.17 165.288 304.62 166.098 301.71C165.238 300.91 164.378 300.11 163.508 299.32C163.158 300.97 162.658 303.39 162.108 306.34C161.168 311.35 160.698 313.9 160.638 316.04C160.528 320.03 160.958 324.27 160.958 324.27C161.148 326.11 161.348 327.27 161.088 329.06C160.848 330.75 160.568 332.66 158.978 334.17C156.838 336.21 153.998 335.92 153.808 335.89C153.598 335.86 150.248 335.42 149.408 333.15C149.068 332.23 149.258 331.35 149.578 329.85C149.858 328.55 150.278 327.53 150.618 326.83C150.818 325.18 151.108 322.9 151.508 320.19C151.848 317.9 151.988 317.17 152.978 311.25C154.278 303.51 154.438 302.36 155.038 300.07C155.748 297.35 156.498 295.18 156.998 293.81C156.288 293.22 155.588 292.61 154.888 292Z" fill="#00559F" stroke="#00559F" stroke-miterlimit="10"/>
<path d="M208.638 449.49C209.178 449.71 210.048 450.16 210.628 451.08C210.898 451.5 211.228 451.94 211.178 454C211.088 457.58 211.038 459.37 210.688 460.33C210.448 460.99 209.548 463.31 207.268 465.04C205.038 466.73 202.598 467 201.608 467.09C187.378 468.45 173.358 467.6 173.358 467.6C156.708 466.59 152.048 467.69 139.698 464.99C138.878 464.81 135.718 465.38 133.748 463.52C133.498 463.28 132.348 462.2 132.208 460.62C132.088 459.28 132.688 457.61 132.758 457.42C132.968 456.84 133.108 456.67 133.098 456.28C133.088 455.33 132.318 455.1 131.778 454.04C131.068 452.61 131.458 451.04 131.658 450.25C131.808 449.68 131.958 449.08 132.448 448.48C132.958 447.85 133.598 447.52 133.938 447.34C134.358 447.12 134.728 446.99 134.998 446.91C139.258 447.63 144.658 448.44 150.958 449.12C159.468 450.05 174.028 451.24 192.238 450.57C196.938 450.39 202.458 450.07 208.638 449.49Z" stroke="#00559F" stroke-width="3" stroke-miterlimit="10"/>
<path d="M218.458 450.99C218.278 451.03 217.088 451.29 216.468 452.42C216.098 453.11 216.128 453.77 216.158 454.05C216.438 457.46 216.708 460.86 216.988 464.27C217.118 464.88 217.458 466.06 218.398 467.22C219.348 468.4 220.438 468.99 221.008 469.25C230.198 469.91 240.268 470.2 251.068 469.9C265.648 469.49 278.898 468.05 290.568 466.17C290.928 466.19 291.988 466.19 292.928 465.47C293.318 465.17 293.568 464.84 293.728 464.58C294.068 462.94 294.358 461.11 294.548 459.12C294.798 456.45 294.808 454.02 294.698 451.9C294.688 451.57 294.608 450.65 293.928 449.78C293.168 448.8 292.158 448.52 291.858 448.45C288.248 449.36 284.508 450.17 280.628 450.88C257.268 455.1 236.008 453.97 218.458 450.99Z" stroke="#00559F" stroke-width="3" stroke-miterlimit="10"/>
<path d="M218.078 439.95C217.938 438.09 217.798 436.22 217.668 434.36C213.388 434.72 208.348 434.79 202.728 434.17C191.588 432.94 182.708 429.49 176.688 426.51C179.088 429.72 181.398 432.15 183.198 433.85C186.748 437.21 188.518 438.89 190.988 439.72C192.588 440.26 193.488 440.37 195.078 441.38C195.878 441.89 196.988 442.74 199.188 445.64C199.758 446.38 200.498 447.4 201.328 448.66C203.838 448.42 206.348 448.18 208.858 447.94C208.958 445 209.058 442.07 209.158 439.13C212.118 439.4 215.098 439.67 218.078 439.95Z" fill="#003074"/>
<path d="M202.418 451.42C204.428 451.29 206.448 451.16 208.458 451.04C208.658 451.15 208.988 451.37 209.268 451.76C209.328 451.85 209.548 452.17 209.648 452.65C209.718 452.98 209.708 453.27 209.688 453.46C209.618 455.36 209.548 457.26 209.478 459.16C209.328 459.71 209.048 460.49 208.538 461.33C208.368 461.62 207.648 462.75 206.278 463.8C205.338 464.52 204.418 464.94 203.678 465.2C203.968 463.5 204.178 461.26 203.978 458.65C203.758 455.65 203.058 453.18 202.418 451.42Z" fill="#003074"/>
<path d="M153.958 336.32C156.995 336.32 159.458 333.858 159.458 330.82C159.458 327.783 156.995 325.32 153.958 325.32C150.92 325.32 148.458 327.783 148.458 330.82C148.458 333.858 150.92 336.32 153.958 336.32Z" fill="#FFF255"/>
<path d="M236.298 339.72C239.335 339.72 241.798 337.258 241.798 334.22C241.798 331.182 239.335 328.72 236.298 328.72C233.26 328.72 230.798 331.182 230.798 334.22C230.798 337.258 233.26 339.72 236.298 339.72Z" fill="#FFF255"/>
<path d="M201.308 448.65C201.698 449.6 202.088 450.54 202.488 451.49C204.478 451.34 206.468 451.19 208.458 451.04C208.638 451.14 208.888 451.3 209.118 451.57C209.478 451.99 209.598 452.43 209.648 452.65C209.588 454.79 209.538 456.93 209.478 459.06C209.298 459.76 208.938 460.77 208.208 461.82C208.048 462.05 207.338 463.04 206.058 463.96C205.158 464.61 204.308 464.98 203.688 465.2C203.658 465.8 203.658 466.47 203.708 467.19C203.738 467.55 203.768 467.9 203.818 468.22C204.188 468.15 204.638 468.03 205.148 467.85C205.378 467.77 205.988 467.55 206.718 467.15C206.958 467.02 207.448 466.74 208.028 466.31C208.848 465.71 209.408 465.13 209.688 464.82C209.798 464.7 210.338 464.1 210.918 463.2C211.318 462.58 211.818 461.8 212.128 460.73C212.298 460.15 212.398 459.54 212.408 459.44C212.468 459.08 212.498 458.77 212.508 458.54C212.558 456.98 212.618 455.41 212.668 453.85C212.688 453.62 212.698 453.3 212.678 452.92C212.658 452.62 212.638 452.12 212.478 451.54C212.158 450.41 211.488 449.67 211.208 449.39C210.868 449.05 210.558 448.84 210.318 448.68C209.748 448.29 209.208 448.06 208.828 447.91C206.328 448.17 203.818 448.41 201.308 448.65Z" fill="#003530"/>
<path d="M254.198 406.97C254.378 408.11 254.548 409.26 254.718 410.43" stroke="#003B6A" stroke-width="2" stroke-miterlimit="10"/>
<path d="M255.648 417.79C255.948 420.47 256.198 423.22 256.408 426.05C256.868 432.25 257.058 438.15 257.048 443.7" stroke="#003B6A" stroke-width="2" stroke-miterlimit="10" stroke-dasharray="7.42 7.42"/>
<path d="M257.018 447.41C256.998 448.59 256.968 449.76 256.928 450.91" stroke="#003B6A" stroke-width="2" stroke-miterlimit="10"/>
<path d="M142.888 395.42C142.008 400.87 141.328 406.84 141.018 413.29C140.378 426.64 141.498 438.44 143.168 448.15" stroke="#003B6A" stroke-width="2" stroke-miterlimit="10" stroke-dasharray="7 7"/>
<path d="M150.448 385.26C148.978 388.04 146.608 391.76 142.888 395.41C137.898 400.31 132.698 402.91 129.358 404.26" stroke="#00559F" stroke-width="3" stroke-miterlimit="10"/>
<path d="M228.328 384.52C230.068 388 232.828 392.42 237.178 396.61C247.888 406.91 260.848 408.7 265.688 409.12" stroke="#00559F" stroke-width="3" stroke-miterlimit="10"/>
<path d="M150.158 330.78C150.178 333.56 152.208 335.18 152.458 335.38C150.648 334.6 149.418 332.9 149.308 331C149.178 328.79 150.578 326.7 152.758 325.89C152.558 326.02 150.138 327.72 150.158 330.78Z" fill="#948D00"/>
<path d="M211.988 371.76C209.038 375.31 202.998 381.61 193.268 385.72C186.228 388.7 179.888 389.42 175.738 389.55C177.718 391.06 181.998 393.89 188.028 394.49C196.858 395.36 203.258 390.84 205.438 389.3C216.508 381.48 217.988 368.35 218.208 366.07C216.128 367.96 214.058 369.86 211.988 371.76Z" fill="#003074"/>
<path d="M183.028 379.7C186.348 379.27 187.128 376.77 194.248 366.97C198.418 361.23 200.178 359.29 200.098 355.84C200.078 354.91 199.878 352.36 198.138 350.06C196.268 347.61 193.778 346.94 189.078 345.73C187.018 345.2 185.978 344.9 185.198 344.8C183.378 344.56 181.338 344.29 179.218 345.11C176.818 346.04 175.528 347.88 175.088 348.5C173.118 351.29 173.338 354.05 173.858 361.46C174.758 374.19 174.818 376.28 177.008 378.01C177.158 378.14 179.738 380.12 183.028 379.7Z" fill="#E99D00"/>
<path d="M175.098 353.57C176.238 353.15 178.508 352.51 181.318 352.92C185.418 353.53 187.978 355.99 188.778 356.84" stroke="#AB7642" stroke-width="2" stroke-miterlimit="10" stroke-linecap="round"/>
<path d="M175.668 359.25C176.468 359.01 178.308 358.57 180.538 359.14C183.158 359.8 184.708 361.44 185.238 362.06" stroke="#AB7642" stroke-width="2" stroke-miterlimit="10" stroke-linecap="round"/>
<path d="M176.168 365.26C176.718 365.17 177.758 365.08 178.968 365.44C180.428 365.88 181.338 366.74 181.728 367.16" stroke="#AB7642" stroke-width="2" stroke-miterlimit="10" stroke-linecap="round"/>
<path d="M197.088 349.34C199.598 350.41 202.188 349.59 203.108 347.88C203.808 346.58 203.748 344.38 202.298 343.41C201.108 342.61 199.628 343.1 199.398 343.18C199.808 342.93 201.938 341.6 202.358 339.13C202.858 336.18 200.608 333.43 198.058 332.46C194.788 331.21 191.078 332.93 189.688 335.52C189.188 336.45 189.058 337.37 189.028 338.07C188.958 337.78 188.208 334.83 185.478 333.8C182.928 332.84 179.618 333.91 178.548 336.37C177.858 337.97 178.488 339.74 178.768 340.55C179.228 341.85 179.948 342.76 180.428 343.29C179.058 342.44 177.458 342.49 176.568 343.3C175.368 344.41 175.948 346.49 176.648 347.53C177.848 349.31 180.688 349.96 183.658 348.95C184.018 349.74 184.778 351.17 186.288 352.4C186.828 352.84 188.618 354.27 191.318 354.47C192.668 354.57 194.598 354.71 195.948 353.33C197.398 351.87 197.138 349.71 197.088 349.34Z" fill="#008922"/>
<path d="M157.178 359.71C177.558 360.35 197.948 360.99 218.328 361.62C214.428 382.69 194.518 394.53 178.758 390.09C166.968 386.77 157.888 374.44 157.178 359.71Z" fill="#007FC9" stroke="#00559F" stroke-width="3" stroke-miterlimit="10"/>
<path d="M184.158 368.41C186.56 368.41 188.508 366.458 188.508 364.05C188.508 361.642 186.56 359.69 184.158 359.69C181.755 359.69 179.808 361.642 179.808 364.05C179.808 366.458 181.755 368.41 184.158 368.41Z" fill="#FFF255"/>
<path d="M232.208 334.63C232.378 336.69 233.598 338 233.968 338.36C233.708 338.22 231.788 337.14 231.418 334.95C231.068 332.93 232.178 330.79 234.198 329.72C233.938 329.95 231.988 331.81 232.208 334.63Z" fill="#948D00"/>
<path d="M181.398 363.89C181.288 366.14 182.838 367.54 183.028 367.71C181.428 367.14 180.388 365.59 180.468 363.92C180.538 362.3 181.638 360.89 183.208 360.42C182.988 360.58 181.508 361.79 181.398 363.89Z" fill="#948D00"/>
<path d="M264.248 387.67C258.088 387.3 251.938 386.93 245.778 386.56C246.378 392.26 246.968 397.96 247.568 403.67" stroke="#00559F" stroke-width="3" stroke-miterlimit="10"/>
<path d="M128.348 386.3C131.938 385.89 135.528 385.47 139.118 385.06C139.208 389.53 139.298 394.01 139.388 398.48" stroke="#00559F" stroke-width="3" stroke-miterlimit="10"/>
<path d="M128.598 402.93C128.668 403.95 128.748 404.98 128.818 406C129.308 405.84 129.798 405.68 130.288 405.52C130.168 404.48 130.048 403.43 129.918 402.39C129.658 402.55 129.328 402.71 128.948 402.84C128.828 402.87 128.718 402.9 128.598 402.93Z" fill="#0091B4"/>
<path d="M128.528 387.76C128.368 387.78 128.218 387.8 128.058 387.82C128.058 386.82 128.058 385.82 128.058 384.82C128.108 384.82 128.158 384.81 128.198 384.81C128.308 385.79 128.418 386.78 128.528 387.76Z" fill="#0091B4"/>
<path d="M266.298 407.68C266.118 407.66 265.928 407.63 265.748 407.61C265.688 408.62 265.628 409.63 265.568 410.64C266.068 410.67 266.558 410.7 267.058 410.72C266.898 410.17 266.738 409.59 266.588 408.98C266.478 408.54 266.388 408.1 266.298 407.68Z" fill="#0091B4"/>
<path d="M264.308 386.16C264.428 386.17 264.548 386.18 264.668 386.19C264.698 386.53 264.728 386.82 264.758 387.04C264.818 387.51 264.878 387.92 265.018 388.43C265.108 388.75 265.208 389.02 265.278 389.21C264.888 389.2 264.498 389.18 264.108 389.17C264.178 388.17 264.238 387.16 264.308 386.16Z" fill="#0091B4"/>
</svg>
