<svg width="185" height="184" viewBox="0 0 185 184" fill="none" xmlns="http://www.w3.org/2000/svg">
<path d="M182.333 67.8117C182.327 56.2059 178.474 44.9296 171.377 35.747C164.28 26.5643 154.338 19.9934 143.109 17.0622C131.879 14.1311 119.995 15.0051 109.315 19.5475C98.6354 24.0899 89.7626 32.0445 84.085 42.1667C78.7638 38.8473 72.7551 36.7863 66.5167 36.1408C60.2784 35.4952 53.975 36.2821 48.0867 38.4415C42.1985 40.6008 36.8809 44.0757 32.539 48.6013C28.1971 53.127 24.9454 58.584 23.0318 64.5566C21.1181 70.5292 20.593 76.8597 21.4964 83.066C22.3998 89.2723 24.7079 95.1905 28.2448 100.37C31.7817 105.549 36.4541 109.852 41.906 112.952C47.3579 116.052 53.4455 117.867 59.705 118.258C62.5727 125.344 67.4449 131.439 73.7247 135.797C80.0045 140.156 87.4191 142.587 95.0602 142.795C102.701 143.002 110.237 140.977 116.744 136.966C123.251 132.955 128.447 127.133 131.695 120.213C145.282 119.746 158.156 114.021 167.603 104.245C177.05 94.4691 182.331 81.4064 182.333 67.8117Z" fill="white"/>
<path d="M133.075 104.152C129.675 111.386 124.241 117.474 117.436 121.669C110.632 125.865 102.752 127.986 94.761 127.775C86.7699 127.563 79.0136 125.028 72.4405 120.478C65.8675 115.929 60.7626 109.563 57.75 102.158C49.9117 101.639 42.3637 98.991 35.9195 94.4989C29.4752 90.0068 24.3789 83.8412 21.18 76.6667V77.165C21.1779 87.6275 25.1592 97.6984 32.3149 105.331C39.4707 112.964 49.2641 117.586 59.705 118.258C62.5727 125.344 67.4449 131.439 73.7247 135.797C80.0044 140.156 87.4191 142.587 95.0602 142.795C102.701 143.002 110.237 140.977 116.744 136.966C123.251 132.955 128.447 127.133 131.695 120.213C145.001 119.742 157.629 114.228 167.019 104.789C176.409 95.3491 181.856 82.6915 182.257 69.3833C178.34 79.3416 171.598 87.938 162.86 94.1151C154.122 100.292 143.769 103.781 133.075 104.152Z" fill="#F0F0F0"/>
<path d="M182.333 67.8117C182.327 56.2059 178.474 44.9296 171.377 35.747C164.28 26.5643 154.338 19.9934 143.109 17.0622C131.879 14.1311 119.995 15.0051 109.315 19.5475C98.6354 24.0899 89.7626 32.0445 84.085 42.1667C78.7638 38.8473 72.7551 36.7863 66.5167 36.1408C60.2784 35.4952 53.975 36.2821 48.0867 38.4415C42.1985 40.6008 36.8809 44.0757 32.539 48.6013C28.1971 53.127 24.9454 58.584 23.0318 64.5566C21.1181 70.5292 20.593 76.8597 21.4964 83.066C22.3998 89.2723 24.7079 95.1905 28.2448 100.37C31.7817 105.549 36.4541 109.852 41.906 112.952C47.3579 116.052 53.4455 117.867 59.705 118.258C62.5727 125.344 67.4449 131.439 73.7247 135.797C80.0045 140.156 87.4191 142.587 95.0602 142.795C102.701 143.002 110.237 140.977 116.744 136.966C123.251 132.955 128.447 127.133 131.695 120.213C145.282 119.746 158.156 114.021 167.603 104.245C177.05 94.4691 182.331 81.4064 182.333 67.8117Z" stroke="#45413C" stroke-width="0.5" stroke-linecap="round" stroke-linejoin="round"/>
<path d="M0.25 150.513C0.25 152.506 1.04158 154.417 2.4506 155.826C3.85963 157.235 5.77067 158.027 7.76333 158.027C9.75599 158.027 11.667 157.235 13.0761 155.826C14.4851 154.417 15.2767 152.506 15.2767 150.513C15.2767 148.521 14.4851 146.61 13.0761 145.201C11.667 143.792 9.75599 143 7.76333 143C5.77067 143 3.85963 143.792 2.4506 145.201C1.04158 146.61 0.25 148.521 0.25 150.513Z" fill="white" stroke="#45413C" stroke-width="0.5" stroke-linecap="round" stroke-linejoin="round"/>
<path d="M30.4183 144.057C30.4183 145.778 30.7574 147.483 31.4163 149.074C32.0751 150.664 33.0408 152.109 34.2582 153.327C35.4755 154.544 36.9208 155.51 38.5114 156.169C40.1019 156.828 41.8067 157.167 43.5283 157.167C45.25 157.167 46.9547 156.828 48.5453 156.169C50.1359 155.51 51.5811 154.544 52.7985 153.327C54.0159 152.109 54.9816 150.664 55.6404 149.074C56.2992 147.483 56.6383 145.778 56.6383 144.057C56.6383 142.335 56.2992 140.63 55.6404 139.04C54.9816 137.449 54.0159 136.004 52.7985 134.786C51.5811 133.569 50.1359 132.603 48.5453 131.945C46.9547 131.286 45.25 130.947 43.5283 130.947C41.8067 130.947 40.1019 131.286 38.5114 131.945C36.9208 132.603 35.4755 133.569 34.2582 134.786C33.0408 136.004 32.0751 137.449 31.4163 139.04C30.7574 140.63 30.4183 142.335 30.4183 144.057Z" fill="white"/>
<path d="M43.5283 151.532C41.0377 151.523 38.5801 150.961 36.3329 149.887C34.0857 148.813 32.1048 147.254 30.5333 145.322C30.785 148.596 32.2633 151.654 34.6726 153.885C37.0819 156.117 40.2446 157.356 43.5283 157.356C46.8121 157.356 49.9748 156.117 52.3841 153.885C54.7934 151.654 56.2717 148.596 56.5233 145.322C54.9518 147.254 52.971 148.813 50.7237 149.887C48.4765 150.961 46.0189 151.523 43.5283 151.532Z" fill="#F0F0F0"/>
<path d="M30.4183 144.057C30.4183 145.778 30.7574 147.483 31.4163 149.074C32.0751 150.664 33.0408 152.109 34.2582 153.327C35.4755 154.544 36.9208 155.51 38.5114 156.169C40.1019 156.828 41.8067 157.167 43.5283 157.167C45.25 157.167 46.9547 156.828 48.5453 156.169C50.1359 155.51 51.5811 154.544 52.7985 153.327C54.0159 152.109 54.9816 150.664 55.6404 149.074C56.2992 147.483 56.6383 145.778 56.6383 144.057C56.6383 142.335 56.2992 140.63 55.6404 139.04C54.9816 137.449 54.0159 136.004 52.7985 134.786C51.5811 133.569 50.1359 132.603 48.5453 131.945C46.9547 131.286 45.25 130.947 43.5283 130.947C41.8067 130.947 40.1019 131.286 38.5114 131.945C36.9208 132.603 35.4755 133.569 34.2582 134.786C33.0408 136.004 32.0751 137.449 31.4163 139.04C30.7574 140.63 30.4183 142.335 30.4183 144.057Z" stroke="#45413C" stroke-width="0.5" stroke-linecap="round" stroke-linejoin="round"/>
</svg>
